{
.appVersion = "3149";
.formatVersion = 3;
axes = (
{
name = Weight;
tag = wght;
}
);
classes = (
{
automatic = 1;

glyphs = (
{
glyphname = A;
kernLeft = A;
kernRight = A;
layers = (
{
anchors = (
{
name = bottom;
pos = (282,0);
},
{
name = ogonek;
pos = (555,0);
},
{
name = top;
pos = (322,702);
}
);
background = {
anchors = (
{
name = bottom;
pos = (282,0);
},
{
name = ogonek;
pos = (555,0);
},
{
name = top;
pos = (322,702);
}
);
shapes = (
{
closed = 1;
nodes = (
(319,719,l),
(93,158,ls),
(63,83,o),
(37,34,o),
(-13,33,c),
(-14,0,l),
(169,0,l),
(171,44,l),
(96,40,l),
(108,62,o),
(115,77,o),
(127,109,c),
(167,216,l),
(423,222,l),
(452,128,ls),
(463,91,o),
(475,35,o),
(400,33,c),
(399,0,l),
(616,0,l),
(618,44,l),
(553,40,l),
(556,70,o),
(542,122,o),
(532,150,cs),
(341,719,l)
);
},
{
closed = 1;
nodes = (
(321,539,o),
(334,499,o),
(347,459,cs),
(412,259,l),
(183,259,l),
(263,468,l),
(278,505,o),
(292,543,o),
(307,580,c)
);
}
);
};
layerId = UUID0;
shapes = (
{
closed = 1;
nodes = (
(319,719,l),
(93,158,ls),
(63,83,o),
(37,34,o),
(-13,33,c),
(-14,0,l),
(169,0,l),
(171,44,l),
(96,40,l),
(108,62,o),
(115,77,o),
(127,109,c),
(167,216,l),
(423,222,l),
(452,128,ls),
(463,91,o),
(475,35,o),
(400,33,c),
(399,0,l),
(616,0,l),
(618,44,l),
(553,40,l),
(556,70,o),
(542,122,o),
(532,150,cs),
(341,719,l)
);
},
{
closed = 1;
nodes = (
(321,539,o),
(334,499,o),
(347,459,cs),
(412,259,l),
(183,259,l),
(263,468,l),
(278,505,o),
(292,543,o),
(307,580,c)
);
}
);
width = 631;
},
{
anchors = (
{
name = bottom;
pos = (300,0);
},
{
name = ogonek;
pos = (600,0);
},
{
name = top;
pos = (346,700);
}
);
background = {
anchors = (
{
name = bottom;
pos = (300,0);
},
{
name = ogonek;
pos = (600,0);
},
{
name = top;
pos = (346,700);
}
);
shapes = (
{
closed = 1;
nodes = (
(317,718,l),
(94,183,ls),
(68,123,o),
(47,69,o),
(-8,69,c),
(-12,0,l),
(202,0,l),
(207,80,l),
(133,77,l),
(146,100,o),
(162,140,o),
(169,158,c),
(188,205,l),
(407,209,l),
(424,154,ls),
(440,104,o),
(438,66,o),
(382,66,c),
(378,0,l),
(646,0,l),
(649,77,l),
(592,74,l),
(590,104,o),
(575,153,o),
(569,173,cs),
(384,718,l)
);
},
{
closed = 1;
nodes = (
(319,505,o),
(332,453,o),
(346,405,cs),
(385,280,l),
(217,280,l),
(268,410,l),
(293,472,o),
(309,519,o),
(315,542,c)
);
}
);
};
layerId = "6B2A2AD0-3CEC-4B3D-96BE-6A11A3496094";
shapes = (
{
closed = 1;
nodes = (
(317,718,l),
(94,183,ls),
(68,123,o),
(47,69,o),
(-8,69,c),
(-12,0,l),
(202,0,l),
(207,80,l),
(133,77,l),
(146,100,o),
(162,140,o),
(169,158,c),
(188,205,l),
(407,209,l),
(424,154,ls),
(440,104,o),
(438,66,o),
(382,66,c),
(378,0,l),
(646,0,l),
(649,77,l),
(592,74,l),
(590,104,o),
(575,153,o),
(569,173,cs),
(384,718,l)
);
},
{
closed = 1;
nodes = (
(319,505,o),
(332,453,o),
(346,405,cs),
(385,280,l),
(217,280,l),
(268,410,l),
(293,472,o),
(309,519,o),
(315,542,c)
);
}
);
width = 667;
}
);
unicode = 65;
},
{
glyphname = Aacute;
kernLeft = A;
kernRight = A;
layers = (
{
background = {
anchors = (
{
name = bottom;
pos = (282,0);
},
{
name = ogonek;
pos = (555,0);
},
{
name = top;
pos = (322,702);
}
);
shapes = (
{
closed = 1;
nodes = (
(319,719,l),
(93,158,ls),
(63,83,o),
(37,34,o),
(-13,33,c),
(-14,0,l),
(169,0,l),
(171,44,l),
(96,40,l),
(108,62,o),
(115,77,o),
(127,109,c),
(167,216,l),
(423,222,l),
(452,128,ls),
(463,91,o),
(475,35,o),
(400,33,c),
(399,0,l),
(616,0,l),
(618,44,l),
(553,40,l),
(556,70,o),
(542,122,o),
(532,150,cs),
(341,719,l)
);
},
{
closed = 1;
nodes = (
(321,539,o),
(334,499,o),
(347,459,cs),
(412,259,l),
(183,259,l),
(263,468,l),
(278,505,o),
(292,543,o),
(307,580,c)
);
},
{
closed = 1;
nodes = (
(451,855,ls),
(495,883,o),
(483,909,o),
(476,917,cs),
(471,923,o),
(449,943,o),
(411,908,cs),
(284,790,l),
(305,762,l)
);
}
);
};
layerId = UUID0;
shapes = (
{
ref = A;
},
{
pos = (239,2);
ref = acutecomb.case;
}
);
width = 631;
},
{
background = {
anchors = (
{
name = bottom;
pos = (300,0);
},
{
name = ogonek;
pos = (600,0);
},
{
name = top;
pos = (346,700);
}
);
shapes = (
{
closed = 1;
nodes = (
(317,718,l),
(94,183,ls),
(68,123,o),
(47,69,o),
(-8,69,c),
(-12,0,l),
(202,0,l),
(207,80,l),
(133,77,l),
(146,100,o),
(162,140,o),
(169,158,c),
(188,205,l),
(407,209,l),
(424,154,ls),
(440,104,o),
(438,66,o),
(382,66,c),
(378,0,l),
(646,0,l),
(649,77,l),
(592,74,l),
(590,104,o),
(575,153,o),
(569,173,cs),
(384,718,l)
);
},
{
closed = 1;
nodes = (
(319,505,o),
(332,453,o),
(346,405,cs),
(385,280,l),
(217,280,l),
(268,410,l),
(293,472,o),
(309,519,o),
(315,542,c)
);
},
{
closed = 1;
nodes = (
(465,854,l),
(498,873,o),
(523,909,o),
(500,943,cs),
(478,976,o),
(432,964,o),
(403,936,cs),
(281,818,l),
(315,770,l)
);
}
);
};
layerId = "6B2A2AD0-3CEC-4B3D-96BE-6A11A3496094";
shapes = (
{
ref = A;
},
{
pos = (236,0);
ref = acutecomb.case;
}
);
width = 667;
}
);
unicode = 193;
},
{
glyphname = Abreve;
kernLeft = A;
kernRight = A;
layers = (
{
background = {
anchors = (
{
name = bottom;
pos = (282,0);
},
{
name = ogonek;
pos = (555,0);
},
{
name = top;
pos = (322,702);
}
);
shapes = (
{
closed = 1;
nodes = (
(319,719,l),
(93,158,ls),
(63,83,o),
(37,34,o),
(-13,33,c),
(-14,0,l),
(169,0,l),
(171,44,l),
(96,40,l),
(108,62,o),
(115,77,o),
(127,109,c),
(167,216,l),
(423,222,l),
(452,128,ls),
(463,91,o),
(475,35,o),
(400,33,c),
(399,0,l),
(616,0,l),
(618,44,l),
(553,40,l),
(556,70,o),
(542,122,o),
(532,150,cs),
(341,719,l)
);
},
{
closed = 1;
nodes = (
(321,539,o),
(334,499,o),
(347,459,cs),
(412,259,l),
(183,259,l),
(263,468,l),
(278,505,o),
(292,543,o),
(307,580,c)
);
},
{
closed = 1;
nodes = (
(396,811,o),
(453,847,o),
(489,914,c),
(463,926,l),
(440,898,o),
(390,872,o),
(340,872,cs),
(289,872,o),
(242,898,o),
(223,926,c),
(196,914,l),
(222,847,o),
(274,811,o),
(335,811,cs)
);
}
);
};
layerId = UUID0;
shapes = (
{
ref = A;
},
{
pos = (156,2);
ref = brevecomb.case;
}
);
width = 631;
},
{
background = {
anchors = (
{
name = bottom;
pos = (300,0);
},
{
name = ogonek;
pos = (600,0);
},
{
name = top;
pos = (346,700);
}
);
shapes = (
{
closed = 1;
nodes = (
(317,718,l),
(94,183,ls),
(68,123,o),
(47,69,o),
(-8,69,c),
(-12,0,l),
(202,0,l),
(207,80,l),
(133,77,l),
(146,100,o),
(162,140,o),
(169,158,c),
(188,205,l),
(407,209,l),
(424,154,ls),
(440,104,o),
(438,66,o),
(382,66,c),
(378,0,l),
(646,0,l),
(649,77,l),
(592,74,l),
(590,104,o),
(575,153,o),
(569,173,cs),
(384,718,l)
);
},
{
closed = 1;
nodes = (
(319,505,o),
(332,453,o),
(346,405,cs),
(385,280,l),
(217,280,l),
(268,410,l),
(293,472,o),
(309,519,o),
(315,542,c)
);
},
{
closed = 1;
nodes = (
(418,787,o),
(496,814,o),
(535,894,c),
(481,934,l),
(453,905,o),
(417,879,o),
(359,879,cs),
(301,879,o),
(268,905,o),
(245,934,c),
(185,894,l),
(213,814,o),
(287,787,o),
(353,787,cs)
);
}
);
};
layerId = "6B2A2AD0-3CEC-4B3D-96BE-6A11A3496094";
shapes = (
{
ref = A;
},
{
pos = (139,0);
ref = brevecomb.case;
}
);
width = 667;
}
);
unicode = 258;
},
{
glyphname = Abreveacute;
layers = (
{
background = {
anchors = (
{
name = bottom;
pos = (282,0);
},
{
name = ogonek;
pos = (555,0);
},
{
name = top;
pos = (322,702);
}
);
shapes = (
{
closed = 1;
nodes = (
(319,719,l),
(93,158,ls),
(63,83,o),
(37,34,o),
(-13,33,c),
(-14,0,l),
(169,0,l),
(171,44,l),
(96,40,l),
(108,62,o),
(115,77,o),
(127,109,c),
(167,216,l),
(423,222,l),
(452,128,ls),
(463,91,o),
(475,35,o),
(400,33,c),
(399,0,l),
(616,0,l),
(618,44,l),
(553,40,l),
(556,70,o),
(542,122,o),
(532,150,cs),
(341,719,l)
);
},
{
closed = 1;
nodes = (
(321,539,o),
(334,499,o),
(347,459,cs),
(412,259,l),
(183,259,l),
(263,468,l),
(278,505,o),
(292,543,o),
(307,580,c)
);
},
{
closed = 1;
nodes = (
(372,767,o),
(425,797,o),
(456,863,c),
(435,872,l),
(411,837,o),
(370,812,o),
(326,812,cs),
(283,812,o),
(241,838,o),
(223,869,c),
(200,861,l),
(221,796,o),
(277,767,o),
(320,767,cs)
);
},
{
closed = 1;
nodes = (
(419,951,ls),
(448,981,o),
(436,1001,o),
(430,1008,cs),
(425,1013,o),
(401,1026,o),
(379,988,cs),
(314,879,l),
(334,862,l)
);
}
);
};
layerId = UUID0;
shapes = (
{
ref = A;
},
{
pos = (159,190);
ref = brevecomb_acutecomb.case;
}
);
width = 631;
},
{
background = {
anchors = (
{
name = bottom;
pos = (300,0);
},
{
name = ogonek;
pos = (600,0);
},
{
name = top;
pos = (346,700);
}
);
shapes = (
{
closed = 1;
nodes = (
(317,718,l),
(94,183,ls),
(68,123,o),
(47,69,o),
(-8,69,c),
(-12,0,l),
(202,0,l),
(207,80,l),
(133,77,l),
(146,100,o),
(162,140,o),
(169,158,c),
(188,205,l),
(407,209,l),
(424,154,ls),
(440,104,o),
(438,66,o),
(382,66,c),
(378,0,l),
(646,0,l),
(649,77,l),
(592,74,l),
(590,104,o),
(575,153,o),
(569,173,cs),
(384,718,l)
);
},
{
closed = 1;
nodes = (
(319,505,o),
(332,453,o),
(346,405,cs),
(385,280,l),
(217,280,l),
(268,410,l),
(293,472,o),
(309,519,o),
(315,542,c)
);
},
{
closed = 1;
nodes = (
(418,759,o),
(469,793,o),
(504,873,c),
(458,893,l),
(437,864,o),
(405,832,o),
(355,832,cs),
(305,832,o),
(273,863,o),
(250,893,c),
(201,869,l),
(232,790,o),
(296,759,o),
(351,759,cs)
);
},
{
closed = 1;
nodes = (
(462,972,ls),
(485,991,o),
(498,1030,o),
(472,1053,cs),
(448,1075,o),
(412,1062,o),
(394,1033,cs),
(320,918,l),
(357,884,l)
);
}
);
};
layerId = "6B2A2AD0-3CEC-4B3D-96BE-6A11A3496094";
shapes = (
{
ref = A;
},
{
pos = (179,200);
ref = brevecomb_acutecomb.case;
}
);
width = 667;
}
);
unicode = 7854;
},
{
glyphname = Abrevedotbelow;
layers = (
{
background = {
anchors = (
{
name = bottom;
pos = (271,-187);
},
{
name = ogonek;
pos = (555,0);
},
{
name = top;
pos = (322,702);
}
);
shapes = (
{
closed = 1;
nodes = (
(319,719,l),
(93,158,ls),
(63,83,o),
(37,34,o),
(-13,33,c),
(-14,0,l),
(169,0,l),
(171,44,l),
(96,40,l),
(108,62,o),
(115,77,o),
(127,109,c),
(167,216,l),
(423,222,l),
(452,128,ls),
(463,91,o),
(475,35,o),
(400,33,c),
(399,0,l),
(616,0,l),
(618,44,l),
(553,40,l),
(556,70,o),
(542,122,o),
(532,150,cs),
(341,719,l)
);
},
{
closed = 1;
nodes = (
(321,539,o),
(334,499,o),
(347,459,cs),
(412,259,l),
(183,259,l),
(263,468,l),
(278,505,o),
(292,543,o),
(307,580,c)
);
},
{
closed = 1;
nodes = (
(253,-82,o),
(229,-105,o),
(228,-134,cs),
(227,-164,o),
(247,-186,o),
(272,-186,cs),
(297,-186,o),
(321,-164,o),
(322,-134,cs),
(323,-105,o),
(305,-82,o),
(279,-82,cs)
);
},
{
closed = 1;
nodes = (
(396,811,o),
(453,847,o),
(489,914,c),
(463,926,l),
(440,898,o),
(390,872,o),
(340,872,cs),
(289,872,o),
(242,898,o),
(223,926,c),
(196,914,l),
(222,847,o),
(274,811,o),
(335,811,cs)
);
}
);
};
layerId = UUID0;
shapes = (
{
ref = A;
},
{
pos = (183,0);
ref = dotbelowcomb;
},
{
pos = (156,2);
ref = brevecomb.case;
}
);
width = 631;
},
{
background = {
anchors = (
{
name = bottom;
pos = (290,-198);
},
{
name = ogonek;
pos = (600,0);
},
{
name = top;
pos = (346,700);
}
);
shapes = (
{
closed = 1;
nodes = (
(317,718,l),
(94,183,ls),
(68,123,o),
(47,69,o),
(-8,69,c),
(-12,0,l),
(202,0,l),
(207,80,l),
(133,77,l),
(146,100,o),
(162,140,o),
(169,158,c),
(188,205,l),
(407,209,l),
(424,154,ls),
(440,104,o),
(438,66,o),
(382,66,c),
(378,0,l),
(646,0,l),
(649,77,l),
(592,74,l),
(590,104,o),
(575,153,o),
(569,173,cs),
(384,718,l)
);
},
{
closed = 1;
nodes = (
(319,505,o),
(332,453,o),
(346,405,cs),
(385,280,l),
(217,280,l),
(268,410,l),
(293,472,o),
(309,519,o),
(315,542,c)
);
},
{
closed = 1;
nodes = (
(265,-69,o),
(235,-98,o),
(233,-134,cs),
(231,-169,o),
(255,-198,o),
(291,-198,cs),
(327,-198,o),
(351,-169,o),
(353,-134,cs),
(355,-98,o),
(331,-69,o),
(297,-69,cs)
);
},
{
closed = 1;
nodes = (
(418,787,o),
(496,814,o),
(535,894,c),
(481,934,l),
(453,905,o),
(417,879,o),
(359,879,cs),
(301,879,o),
(268,905,o),
(245,934,c),
(185,894,l),
(213,814,o),
(287,787,o),
(353,787,cs)
);
}
);
};
layerId = "6B2A2AD0-3CEC-4B3D-96BE-6A11A3496094";
shapes = (
{
ref = A;
},
{
pos = (201,0);
ref = dotbelowcomb;
},
{
pos = (139,0);
ref = brevecomb.case;
}
);
width = 667;
}
);
unicode = 7862;
},
{
glyphname = Abrevegrave;
layers = (
{
background = {
anchors = (
{
name = bottom;
pos = (282,0);
},
{
name = ogonek;
pos = (555,0);
},
{
name = top;
pos = (322,702);
}
);
shapes = (
{
closed = 1;
nodes = (
(319,719,l),
(93,158,ls),
(63,83,o),
(37,34,o),
(-13,33,c),
(-14,0,l),
(169,0,l),
(171,44,l),
(96,40,l),
(108,62,o),
(115,77,o),
(127,109,c),
(167,216,l),
(423,222,l),
(452,128,ls),
(463,91,o),
(475,35,o),
(400,33,c),
(399,0,l),
(616,0,l),
(618,44,l),
(553,40,l),
(556,70,o),
(542,122,o),
(532,150,cs),
(341,719,l)
);
},
{
closed = 1;
nodes = (
(321,539,o),
(334,499,o),
(347,459,cs),
(412,259,l),
(183,259,l),
(263,468,l),
(278,505,o),
(292,543,o),
(307,580,c)
);
},
{
closed = 1;
nodes = (
(372,767,o),
(425,797,o),
(456,863,c),
(435,872,l),
(411,837,o),
(370,812,o),
(326,812,cs),
(283,812,o),
(241,838,o),
(223,869,c),
(200,861,l),
(221,796,o),
(277,767,o),
(320,767,cs)
);
},
{
closed = 1;
nodes = (
(348,882,l),
(284,991,ls),
(261,1029,o),
(237,1016,o),
(232,1011,cs),
(226,1004,o),
(214,984,o),
(243,954,cs),
(328,865,l)
);
}
);
};
layerId = UUID0;
shapes = (
{
ref = A;
},
{
pos = (159,190);
ref = brevecomb_gravecomb.case;
}
);
width = 631;
},
{
background = {
anchors = (
{
name = bottom;
pos = (300,0);
},
{
name = ogonek;
pos = (600,0);
},
{
name = top;
pos = (346,700);
}
);
shapes = (
{
closed = 1;
nodes = (
(317,718,l),
(94,183,ls),
(68,123,o),
(47,69,o),
(-8,69,c),
(-12,0,l),
(202,0,l),
(207,80,l),
(133,77,l),
(146,100,o),
(162,140,o),
(169,158,c),
(188,205,l),
(407,209,l),
(424,154,ls),
(440,104,o),
(438,66,o),
(382,66,c),
(378,0,l),
(646,0,l),
(649,77,l),
(592,74,l),
(590,104,o),
(575,153,o),
(569,173,cs),
(384,718,l)
);
},
{
closed = 1;
nodes = (
(319,505,o),
(332,453,o),
(346,405,cs),
(385,280,l),
(217,280,l),
(268,410,l),
(293,472,o),
(309,519,o),
(315,542,c)
);
},
{
closed = 1;
nodes = (
(418,759,o),
(469,793,o),
(504,873,c),
(458,893,l),
(437,864,o),
(405,832,o),
(355,832,cs),
(305,832,o),
(273,863,o),
(250,893,c),
(201,869,l),
(232,790,o),
(296,759,o),
(351,759,cs)
);
},
{
closed = 1;
nodes = (
(398,924,l),
(333,1039,ls),
(318,1067,o),
(287,1080,o),
(259,1059,cs),
(232,1035,o),
(243,1000,o),
(264,978,cs),
(358,890,l)
);
}
);
};
layerId = "6B2A2AD0-3CEC-4B3D-96BE-6A11A3496094";
shapes = (
{
ref = A;
},
{
pos = (179,200);
ref = brevecomb_gravecomb.case;
}
);
width = 667;
}
);
unicode = 7856;
},
{
glyphname = Abrevehookabove;
layers = (
{
background = {
anchors = (
{
name = bottom;
pos = (282,0);
},
{
name = ogonek;
pos = (555,0);
},
{
name = top;
pos = (322,702);
}
);
shapes = (
{
closed = 1;
nodes = (
(319,719,l),
(93,158,ls),
(63,83,o),
(37,34,o),
(-13,33,c),
(-14,0,l),
(169,0,l),
(171,44,l),
(96,40,l),
(108,62,o),
(115,77,o),
(127,109,c),
(167,216,l),
(423,222,l),
(452,128,ls),
(463,91,o),
(475,35,o),
(400,33,c),
(399,0,l),
(616,0,l),
(618,44,l),
(553,40,l),
(556,70,o),
(542,122,o),
(532,150,cs),
(341,719,l)
);
},
{
closed = 1;
nodes = (
(321,539,o),
(334,499,o),
(347,459,cs),
(412,259,l),
(183,259,l),
(263,468,l),
(278,505,o),
(292,543,o),
(307,580,c)
);
},
{
closed = 1;
nodes = (
(372,767,o),
(425,797,o),
(456,863,c),
(435,872,l),
(411,837,o),
(370,812,o),
(326,812,cs),
(283,812,o),
(241,838,o),
(223,869,c),
(200,861,l),
(221,796,o),
(277,767,o),
(320,767,cs)
);
},
{
closed = 1;
nodes = (
(337,863,l),
(338,874,o),
(352,883,o),
(369,895,cs),
(394,913,o),
(412,930,o),
(414,964,cs),
(416,1004,o),
(379,1045,o),
(309,1045,cs),
(242,1045,o),
(204,1009,o),
(201,975,cs),
(199,948,o),
(216,937,o),
(232,937,cs),
(248,937,o),
(264,947,o),
(264,963,cs),
(264,969,o),
(262,975,o),
(259,979,c),
(262,993,o),
(284,1009,o),
(308,1009,cs),
(341,1009,o),
(360,984,o),
(358,957,cs),
(357,943,o),
(350,927,o),
(337,916,cs),
(319,901,o),
(297,887,o),
(296,863,c)
);
}
);
};
layerId = UUID0;
shapes = (
{
ref = A;
},
{
pos = (159,190);
ref = brevecomb_hookabovecomb.case;
}
);
width = 631;
},
{
background = {
anchors = (
{
name = bottom;
pos = (300,0);
},
{
name = ogonek;
pos = (600,0);
},
{
name = top;
pos = (346,700);
}
);
shapes = (
{
closed = 1;
nodes = (
(317,718,l),
(94,183,ls),
(68,123,o),
(47,69,o),
(-8,69,c),
(-12,0,l),
(202,0,l),
(207,80,l),
(133,77,l),
(146,100,o),
(162,140,o),
(169,158,c),
(188,205,l),
(407,209,l),
(424,154,ls),
(440,104,o),
(438,66,o),
(382,66,c),
(378,0,l),
(646,0,l),
(649,77,l),
(592,74,l),
(590,104,o),
(575,153,o),
(569,173,cs),
(384,718,l)
);
},
{
closed = 1;
nodes = (
(319,505,o),
(332,453,o),
(346,405,cs),
(385,280,l),
(217,280,l),
(268,410,l),
(293,472,o),
(309,519,o),
(315,542,c)
);
},
{
closed = 1;
nodes = (
(418,759,o),
(469,793,o),
(504,873,c),
(458,893,l),
(437,864,o),
(405,832,o),
(355,832,cs),
(305,832,o),
(273,863,o),
(250,893,c),
(201,869,l),
(232,790,o),
(296,759,o),
(351,759,cs)
);
},
{
closed = 1;
nodes = (
(417,900,l),
(417,911,o),
(429,924,o),
(445,936,cs),
(464,951,o),
(485,965,o),
(487,999,cs),
(490,1052,o),
(449,1086,o),
(374,1086,cs),
(307,1086,o),
(267,1040,o),
(264,998,cs),
(262,971,o),
(282,950,o),
(311,950,cs),
(333,950,o),
(344,965,o),
(345,979,cs),
(346,992,o),
(337,1004,o),
(318,1004,c),
(320,1013,o),
(335,1030,o),
(371,1030,cs),
(398,1030,o),
(418,1017,o),
(416,990,cs),
(415,974,o),
(407,963,o),
(399,953,cs),
(384,935,o),
(360,926,o),
(359,900,c)
);
}
);
};
layerId = "6B2A2AD0-3CEC-4B3D-96BE-6A11A3496094";
shapes = (
{
ref = A;
},
{
pos = (179,200);
ref = brevecomb_hookabovecomb.case;
}
);
width = 667;
}
);
unicode = 7858;
},
{
glyphname = Abrevetilde;
layers = (
{
background = {
anchors = (
{
name = bottom;
pos = (282,0);
},
{
name = ogonek;
pos = (555,0);
},
{
name = top;
pos = (322,702);
}
);
shapes = (
{
closed = 1;
nodes = (
(319,719,l),
(93,158,ls),
(63,83,o),
(37,34,o),
(-13,33,c),
(-14,0,l),
(169,0,l),
(171,44,l),
(96,40,l),
(108,62,o),
(115,77,o),
(127,109,c),
(167,216,l),
(423,222,l),
(452,128,ls),
(463,91,o),
(475,35,o),
(400,33,c),
(399,0,l),
(616,0,l),
(618,44,l),
(553,40,l),
(556,70,o),
(542,122,o),
(532,150,cs),
(341,719,l)
);
},
{
closed = 1;
nodes = (
(321,539,o),
(334,499,o),
(347,459,cs),
(412,259,l),
(183,259,l),
(263,468,l),
(278,505,o),
(292,543,o),
(307,580,c)
);
},
{
closed = 1;
nodes = (
(372,767,o),
(425,797,o),
(456,863,c),
(435,872,l),
(411,837,o),
(370,812,o),
(326,812,cs),
(283,812,o),
(241,838,o),
(223,869,c),
(200,861,l),
(221,796,o),
(277,767,o),
(320,767,cs)
);
},
{
closed = 1;
nodes = (
(238,924,o),
(263,938,o),
(282,938,cs),
(321,938,o),
(341,894,o),
(392,894,cs),
(421,894,o),
(457,915,o),
(477,969,c),
(457,979,l),
(439,952,o),
(420,936,o),
(395,937,cs),
(358,938,o),
(341,981,o),
(289,980,cs),
(258,979,o),
(217,950,o),
(201,911,c),
(222,901,l)
);
}
);
};
layerId = UUID0;
shapes = (
{
ref = A;
},
{
pos = (159,190);
ref = brevecomb_tildecomb.case;
}
);
width = 631;
},
{
background = {
anchors = (
{
name = bottom;
pos = (300,0);
},
{
name = ogonek;
pos = (600,0);
},
{
name = top;
pos = (346,700);
}
);
shapes = (
{
closed = 1;
nodes = (
(317,718,l),
(94,183,ls),
(68,123,o),
(47,69,o),
(-8,69,c),
(-12,0,l),
(202,0,l),
(207,80,l),
(133,77,l),
(146,100,o),
(162,140,o),
(169,158,c),
(188,205,l),
(407,209,l),
(424,154,ls),
(440,104,o),
(438,66,o),
(382,66,c),
(378,0,l),
(646,0,l),
(649,77,l),
(592,74,l),
(590,104,o),
(575,153,o),
(569,173,cs),
(384,718,l)
);
},
{
closed = 1;
nodes = (
(319,505,o),
(332,453,o),
(346,405,cs),
(385,280,l),
(217,280,l),
(268,410,l),
(293,472,o),
(309,519,o),
(315,542,c)
);
},
{
closed = 1;
nodes = (
(418,759,o),
(469,793,o),
(504,873,c),
(458,893,l),
(437,864,o),
(405,832,o),
(355,832,cs),
(305,832,o),
(273,863,o),
(250,893,c),
(201,869,l),
(232,790,o),
(296,759,o),
(351,759,cs)
);
},
{
closed = 1;
nodes = (
(270,949,o),
(293,957,o),
(306,957,cs),
(338,957,o),
(361,925,o),
(405,925,cs),
(438,925,o),
(479,950,o),
(502,1019,c),
(458,1043,l),
(444,1017,o),
(425,1000,o),
(405,1000,cs),
(365,1000,o),
(355,1032,o),
(304,1032,cs),
(268,1032,o),
(227,1000,o),
(209,951,c),
(253,923,l)
);
}
);
};
layerId = "6B2A2AD0-3CEC-4B3D-96BE-6A11A3496094";
shapes = (
{
ref = A;
},
{
pos = (179,200);
ref = brevecomb_tildecomb.case;
}
);
width = 667;
}
);
unicode = 7860;
},
{
glyphname = Acaron;
layers = (
{
background = {
anchors = (
{
name = bottom;
pos = (300,0);
},
{
name = ogonek;
pos = (600,0);
},
{
name = top;
pos = (360,962);
}
);
shapes = (
{
closed = 1;
nodes = (
(317,718,l),
(94,183,ls),
(68,123,o),
(47,69,o),
(-8,69,c),
(-12,0,l),
(202,0,l),
(207,80,l),
(133,77,l),
(146,100,o),
(162,140,o),
(169,158,c),
(188,205,l),
(407,209,l),
(424,154,ls),
(440,104,o),
(438,66,o),
(382,66,c),
(378,0,l),
(646,0,l),
(649,77,l),
(592,74,l),
(590,104,o),
(575,153,o),
(569,173,cs),
(384,718,l)
);
},
{
closed = 1;
nodes = (
(319,505,o),
(332,453,o),
(346,405,cs),
(385,280,l),
(217,280,l),
(268,410,l),
(293,472,o),
(309,519,o),
(315,542,c)
);
},
{
closed = 1;
nodes = (
(564,922,l),
(544,962,l),
(353,875,l),
(173,962,l),
(145,921,l),
(332,770,l),
(352,770,l)
);
}
);
};
layerId = "6B2A2AD0-3CEC-4B3D-96BE-6A11A3496094";
shapes = (
{
ref = A;
},
{
pos = (100,0);
ref = caroncomb.case;
}
);
width = 667;
},
{
background = {
anchors = (
{
name = bottom;
pos = (282,0);
},
{
name = ogonek;
pos = (555,0);
},
{
name = top;
pos = (335,947);
}
);
shapes = (
{
closed = 1;
nodes = (
(319,719,l),
(93,158,ls),
(63,83,o),
(37,34,o),
(-13,33,c),
(-14,0,l),
(169,0,l),
(171,44,l),
(96,40,l),
(108,62,o),
(115,77,o),
(127,109,c),
(167,216,l),
(423,222,l),
(452,128,ls),
(463,91,o),
(475,35,o),
(400,33,c),
(399,0,l),
(616,0,l),
(618,44,l),
(553,40,l),
(556,70,o),
(542,122,o),
(532,150,cs),
(341,719,l)
);
},
{
closed = 1;
nodes = (
(321,539,o),
(334,499,o),
(347,459,cs),
(412,259,l),
(183,259,l),
(263,468,l),
(278,505,o),
(292,543,o),
(307,580,c)
);
},
{
closed = 1;
nodes = (
(519,921,l),
(504,947,l),
(327,850,l),
(160,945,l),
(141,916,l),
(324,773,l),
(326,773,l)
);
}
);
};
layerId = UUID0;
shapes = (
{
ref = A;
},
{
pos = (81,2);
ref = caroncomb.case;
}
);
width = 631;
}
);
unicode = 461;
},
{
glyphname = Acircumflex;
kernLeft = A;
kernRight = A;
layers = (
{
background = {
anchors = (
{
name = bottom;
pos = (282,0);
},
{
name = ogonek;
pos = (555,0);
},
{
name = top;
pos = (322,702);
}
);
shapes = (
{
closed = 1;
nodes = (
(319,719,l),
(93,158,ls),
(63,83,o),
(37,34,o),
(-13,33,c),
(-14,0,l),
(169,0,l),
(171,44,l),
(96,40,l),
(108,62,o),
(115,77,o),
(127,109,c),
(167,216,l),
(423,222,l),
(452,128,ls),
(463,91,o),
(475,35,o),
(400,33,c),
(399,0,l),
(616,0,l),
(618,44,l),
(553,40,l),
(556,70,o),
(542,122,o),
(532,150,cs),
(341,719,l)
);
},
{
closed = 1;
nodes = (
(321,539,o),
(334,499,o),
(347,459,cs),
(412,259,l),
(183,259,l),
(263,468,l),
(278,505,o),
(292,543,o),
(307,580,c)
);
},
{
closed = 1;
nodes = (
(519,791,l),
(338,932,l),
(336,932,l),
(140,792,l),
(155,765,l),
(325,852,l),
(501,763,l)
);
}
);
};
layerId = UUID0;
shapes = (
{
ref = A;
},
{
pos = (95,2);
ref = circumflexcomb.case;
}
);
width = 631;
},
{
background = {
anchors = (
{
name = bottom;
pos = (300,0);
},
{
name = ogonek;
pos = (600,0);
},
{
name = top;
pos = (346,700);
}
);
shapes = (
{
closed = 1;
nodes = (
(317,718,l),
(94,183,ls),
(68,123,o),
(47,69,o),
(-8,69,c),
(-12,0,l),
(202,0,l),
(207,80,l),
(133,77,l),
(146,100,o),
(162,140,o),
(169,158,c),
(188,205,l),
(407,209,l),
(424,154,ls),
(440,104,o),
(438,66,o),
(382,66,c),
(378,0,l),
(646,0,l),
(649,77,l),
(592,74,l),
(590,104,o),
(575,153,o),
(569,173,cs),
(384,718,l)
);
},
{
closed = 1;
nodes = (
(319,505,o),
(332,453,o),
(346,405,cs),
(385,280,l),
(217,280,l),
(268,410,l),
(293,472,o),
(309,519,o),
(315,542,c)
);
},
{
closed = 1;
nodes = (
(563,821,l),
(375,971,l),
(356,971,l),
(144,821,l),
(163,781,l),
(356,867,l),
(535,779,l)
);
}
);
};
layerId = "6B2A2AD0-3CEC-4B3D-96BE-6A11A3496094";
shapes = (
{
ref = A;
},
{
pos = (114,0);
ref = circumflexcomb.case;
}
);
width = 667;
}
);
unicode = 194;
},
{
glyphname = Acircumflexacute;
layers = (
{
background = {
anchors = (
{
name = bottom;
pos = (282,0);
},
{
name = ogonek;
pos = (555,0);
},
{
name = top;
pos = (322,702);
}
);
shapes = (
{
closed = 1;
nodes = (
(319,719,l),
(93,158,ls),
(63,83,o),
(37,34,o),
(-13,33,c),
(-14,0,l),
(169,0,l),
(171,44,l),
(96,40,l),
(108,62,o),
(115,77,o),
(127,109,c),
(167,216,l),
(423,222,l),
(452,128,ls),
(463,91,o),
(475,35,o),
(400,33,c),
(399,0,l),
(616,0,l),
(618,44,l),
(553,40,l),
(556,70,o),
(542,122,o),
(532,150,cs),
(341,719,l)
);
},
{
closed = 1;
nodes = (
(321,539,o),
(334,499,o),
(347,459,cs),
(412,259,l),
(183,259,l),
(263,468,l),
(278,505,o),
(292,543,o),
(307,580,c)
);
},
{
closed = 1;
nodes = (
(462,778,l),
(335,878,l),
(333,878,l),
(196,779,l),
(210,754,l),
(326,814,l),
(446,753,l)
);
},
{
closed = 1;
nodes = (
(558,922,ls),
(587,952,o),
(575,972,o),
(569,979,cs),
(564,984,o),
(540,997,o),
(518,959,cs),
(453,850,l),
(473,833,l)
);
}
);
};
layerId = UUID0;
shapes = (
{
ref = A;
},
{
pos = (163,202);
ref = circumflexcomb_acutecomb.case;
}
);
width = 631;
},
{
background = {
anchors = (
{
name = bottom;
pos = (300,0);
},
{
name = ogonek;
pos = (600,0);
},
{
name = top;
pos = (346,700);
}
);
shapes = (
{
closed = 1;
nodes = (
(317,718,l),
(94,183,ls),
(68,123,o),
(47,69,o),
(-8,69,c),
(-12,0,l),
(202,0,l),
(207,80,l),
(133,77,l),
(146,100,o),
(162,140,o),
(169,158,c),
(188,205,l),
(407,209,l),
(424,154,ls),
(440,104,o),
(438,66,o),
(382,66,c),
(378,0,l),
(646,0,l),
(649,77,l),
(592,74,l),
(590,104,o),
(575,153,o),
(569,173,cs),
(384,718,l)
);
},
{
closed = 1;
nodes = (
(319,505,o),
(332,453,o),
(346,405,cs),
(385,280,l),
(217,280,l),
(268,410,l),
(293,472,o),
(309,519,o),
(315,542,c)
);
},
{
closed = 1;
nodes = (
(503,812,l),
(359,913,l),
(346,913,l),
(187,807,l),
(215,761,l),
(346,820,l),
(468,760,l)
);
},
{
closed = 1;
nodes = (
(602,967,ls),
(625,986,o),
(638,1025,o),
(612,1048,cs),
(588,1070,o),
(552,1057,o),
(534,1028,cs),
(460,913,l),
(497,879,l)
);
}
);
};
layerId = "6B2A2AD0-3CEC-4B3D-96BE-6A11A3496094";
shapes = (
{
ref = A;
},
{
pos = (175,203);
ref = circumflexcomb_acutecomb.case;
}
);
width = 667;
}
);
unicode = 7844;
},
{
glyphname = Acircumflexdotbelow;
layers = (
{
background = {
anchors = (
{
name = bottom;
pos = (271,-187);
},
{
name = ogonek;
pos = (555,0);
},
{
name = top;
pos = (322,702);
}
);
shapes = (
{
closed = 1;
nodes = (
(319,719,l),
(93,158,ls),
(63,83,o),
(37,34,o),
(-13,33,c),
(-14,0,l),
(169,0,l),
(171,44,l),
(96,40,l),
(108,62,o),
(115,77,o),
(127,109,c),
(167,216,l),
(423,222,l),
(452,128,ls),
(463,91,o),
(475,35,o),
(400,33,c),
(399,0,l),
(616,0,l),
(618,44,l),
(553,40,l),
(556,70,o),
(542,122,o),
(532,150,cs),
(341,719,l)
);
},
{
closed = 1;
nodes = (
(321,539,o),
(334,499,o),
(347,459,cs),
(412,259,l),
(183,259,l),
(263,468,l),
(278,505,o),
(292,543,o),
(307,580,c)
);
},
{
closed = 1;
nodes = (
(253,-82,o),
(229,-105,o),
(228,-134,cs),
(227,-164,o),
(247,-186,o),
(272,-186,cs),
(297,-186,o),
(321,-164,o),
(322,-134,cs),
(323,-105,o),
(305,-82,o),
(279,-82,cs)
);
},
{
closed = 1;
nodes = (
(519,791,l),
(338,932,l),
(336,932,l),
(140,792,l),
(155,765,l),
(325,852,l),
(501,763,l)
);
}
);
};
layerId = UUID0;
shapes = (
{
ref = A;
},
{
pos = (183,0);
ref = dotbelowcomb;
},
{
pos = (95,2);
ref = circumflexcomb.case;
}
);
width = 631;
},
{
background = {
anchors = (
{
name = bottom;
pos = (290,-198);
},
{
name = ogonek;
pos = (600,0);
},
{
name = top;
pos = (346,700);
}
);
shapes = (
{
closed = 1;
nodes = (
(317,718,l),
(94,183,ls),
(68,123,o),
(47,69,o),
(-8,69,c),
(-12,0,l),
(202,0,l),
(207,80,l),
(133,77,l),
(146,100,o),
(162,140,o),
(169,158,c),
(188,205,l),
(407,209,l),
(424,154,ls),
(440,104,o),
(438,66,o),
(382,66,c),
(378,0,l),
(646,0,l),
(649,77,l),
(592,74,l),
(590,104,o),
(575,153,o),
(569,173,cs),
(384,718,l)
);
},
{
closed = 1;
nodes = (
(319,505,o),
(332,453,o),
(346,405,cs),
(385,280,l),
(217,280,l),
(268,410,l),
(293,472,o),
(309,519,o),
(315,542,c)
);
},
{
closed = 1;
nodes = (
(265,-69,o),
(235,-98,o),
(233,-134,cs),
(231,-169,o),
(255,-198,o),
(291,-198,cs),
(327,-198,o),
(351,-169,o),
(353,-134,cs),
(355,-98,o),
(331,-69,o),
(297,-69,cs)
);
},
{
closed = 1;
nodes = (
(563,821,l),
(375,971,l),
(356,971,l),
(144,821,l),
(163,781,l),
(356,867,l),
(535,779,l)
);
}
);
};
layerId = "6B2A2AD0-3CEC-4B3D-96BE-6A11A3496094";
shapes = (
{
ref = A;
},
{
pos = (201,0);
ref = dotbelowcomb;
},
{
pos = (114,0);
ref = circumflexcomb.case;
}
);
width = 667;
}
);
unicode = 7852;
},
{
glyphname = Acircumflexgrave;
layers = (
{
background = {
anchors = (
{
name = bottom;
pos = (282,0);
},
{
name = ogonek;
pos = (555,0);
},
{
name = top;
pos = (322,702);
}
);
shapes = (
{
closed = 1;
nodes = (
(319,719,l),
(93,158,ls),
(63,83,o),
(37,34,o),
(-13,33,c),
(-14,0,l),
(169,0,l),
(171,44,l),
(96,40,l),
(108,62,o),
(115,77,o),
(127,109,c),
(167,216,l),
(423,222,l),
(452,128,ls),
(463,91,o),
(475,35,o),
(400,33,c),
(399,0,l),
(616,0,l),
(618,44,l),
(553,40,l),
(556,70,o),
(542,122,o),
(532,150,cs),
(341,719,l)
);
},
{
closed = 1;
nodes = (
(321,539,o),
(334,499,o),
(347,459,cs),
(412,259,l),
(183,259,l),
(263,468,l),
(278,505,o),
(292,543,o),
(307,580,c)
);
},
{
closed = 1;
nodes = (
(462,778,l),
(335,878,l),
(333,878,l),
(196,779,l),
(210,754,l),
(326,814,l),
(446,753,l)
);
},
{
closed = 1;
nodes = (
(459,881,l),
(388,1001,ls),
(364,1042,o),
(337,1028,o),
(332,1022,cs),
(325,1015,o),
(312,993,o),
(344,960,cs),
(437,862,l)
);
}
);
};
layerId = UUID0;
shapes = (
{
ref = A;
},
{
pos = (71,190);
ref = circumflexcomb_gravecomb.case;
}
);
width = 631;
},
{
background = {
anchors = (
{
name = bottom;
pos = (300,0);
},
{
name = ogonek;
pos = (600,0);
},
{
name = top;
pos = (346,700);
}
);
shapes = (
{
closed = 1;
nodes = (
(317,718,l),
(94,183,ls),
(68,123,o),
(47,69,o),
(-8,69,c),
(-12,0,l),
(202,0,l),
(207,80,l),
(133,77,l),
(146,100,o),
(162,140,o),
(169,158,c),
(188,205,l),
(407,209,l),
(424,154,ls),
(440,104,o),
(438,66,o),
(382,66,c),
(378,0,l),
(646,0,l),
(649,77,l),
(592,74,l),
(590,104,o),
(575,153,o),
(569,173,cs),
(384,718,l)
);
},
{
closed = 1;
nodes = (
(319,505,o),
(332,453,o),
(346,405,cs),
(385,280,l),
(217,280,l),
(268,410,l),
(293,472,o),
(309,519,o),
(315,542,c)
);
},
{
closed = 1;
nodes = (
(503,812,l),
(359,913,l),
(346,913,l),
(187,807,l),
(215,761,l),
(346,820,l),
(468,760,l)
);
},
{
closed = 1;
nodes = (
(504,922,l),
(439,1037,ls),
(424,1065,o),
(393,1078,o),
(365,1057,cs),
(338,1033,o),
(349,998,o),
(370,976,cs),
(464,888,l)
);
}
);
};
layerId = "6B2A2AD0-3CEC-4B3D-96BE-6A11A3496094";
shapes = (
{
ref = A;
},
{
pos = (114,200);
ref = circumflexcomb_gravecomb.case;
}
);
width = 667;
}
);
unicode = 7846;
},
{
glyphname = Acircumflexhookabove;
layers = (
{
background = {
anchors = (
{
name = bottom;
pos = (282,0);
},
{
name = ogonek;
pos = (555,0);
},
{
name = top;
pos = (322,702);
}
);
shapes = (
{
closed = 1;
nodes = (
(319,719,l),
(93,158,ls),
(63,83,o),
(37,34,o),
(-13,33,c),
(-14,0,l),
(169,0,l),
(171,44,l),
(96,40,l),
(108,62,o),
(115,77,o),
(127,109,c),
(167,216,l),
(423,222,l),
(452,128,ls),
(463,91,o),
(475,35,o),
(400,33,c),
(399,0,l),
(616,0,l),
(618,44,l),
(553,40,l),
(556,70,o),
(542,122,o),
(532,150,cs),
(341,719,l)
);
},
{
closed = 1;
nodes = (
(321,539,o),
(334,499,o),
(347,459,cs),
(412,259,l),
(183,259,l),
(263,468,l),
(278,505,o),
(292,543,o),
(307,580,c)
);
},
{
closed = 1;
nodes = (
(462,778,l),
(335,878,l),
(333,878,l),
(196,779,l),
(210,754,l),
(326,814,l),
(446,753,l)
);
},
{
closed = 1;
nodes = (
(448,857,l),
(449,868,o),
(463,877,o),
(480,889,cs),
(505,907,o),
(523,924,o),
(525,958,cs),
(527,998,o),
(490,1039,o),
(420,1039,cs),
(353,1039,o),
(315,1003,o),
(312,969,cs),
(310,942,o),
(327,931,o),
(343,931,cs),
(359,931,o),
(375,941,o),
(375,957,cs),
(375,963,o),
(373,969,o),
(370,973,c),
(373,987,o),
(395,1003,o),
(419,1003,cs),
(452,1003,o),
(471,978,o),
(469,951,cs),
(468,937,o),
(461,921,o),
(448,910,cs),
(430,895,o),
(408,881,o),
(407,857,c)
);
}
);
};
layerId = UUID0;
shapes = (
{
ref = A;
},
{
pos = (173,190);
ref = circumflexcomb_hookabovecomb.case;
}
);
width = 631;
},
{
background = {
anchors = (
{
name = bottom;
pos = (300,0);
},
{
name = ogonek;
pos = (600,0);
},
{
name = top;
pos = (346,700);
}
);
shapes = (
{
closed = 1;
nodes = (
(317,718,l),
(94,183,ls),
(68,123,o),
(47,69,o),
(-8,69,c),
(-12,0,l),
(202,0,l),
(207,80,l),
(133,77,l),
(146,100,o),
(162,140,o),
(169,158,c),
(188,205,l),
(407,209,l),
(424,154,ls),
(440,104,o),
(438,66,o),
(382,66,c),
(378,0,l),
(646,0,l),
(649,77,l),
(592,74,l),
(590,104,o),
(575,153,o),
(569,173,cs),
(384,718,l)
);
},
{
closed = 1;
nodes = (
(319,505,o),
(332,453,o),
(346,405,cs),
(385,280,l),
(217,280,l),
(268,410,l),
(293,472,o),
(309,519,o),
(315,542,c)
);
},
{
closed = 1;
nodes = (
(503,812,l),
(359,913,l),
(346,913,l),
(187,807,l),
(215,761,l),
(346,820,l),
(468,760,l)
);
},
{
closed = 1;
nodes = (
(525,875,l),
(525,886,o),
(537,899,o),
(553,911,cs),
(572,926,o),
(593,940,o),
(595,974,cs),
(598,1027,o),
(557,1061,o),
(482,1061,cs),
(415,1061,o),
(375,1015,o),
(372,973,cs),
(370,946,o),
(390,925,o),
(419,925,cs),
(441,925,o),
(452,940,o),
(453,954,cs),
(454,967,o),
(445,979,o),
(426,979,c),
(428,988,o),
(443,1005,o),
(479,1005,cs),
(506,1005,o),
(526,992,o),
(524,965,cs),
(523,949,o),
(515,938,o),
(507,928,cs),
(492,910,o),
(468,901,o),
(467,875,c)
);
}
);
};
layerId = "6B2A2AD0-3CEC-4B3D-96BE-6A11A3496094";
shapes = (
{
ref = A;
},
{
pos = (180,200);
ref = circumflexcomb_hookabovecomb.case;
}
);
width = 667;
}
);
unicode = 7848;
},
{
glyphname = Acircumflextilde;
layers = (
{
background = {
anchors = (
{
name = bottom;
pos = (282,0);
},
{
name = ogonek;
pos = (555,0);
},
{
name = top;
pos = (322,702);
}
);
shapes = (
{
closed = 1;
nodes = (
(319,719,l),
(93,158,ls),
(63,83,o),
(37,34,o),
(-13,33,c),
(-14,0,l),
(169,0,l),
(171,44,l),
(96,40,l),
(108,62,o),
(115,77,o),
(127,109,c),
(167,216,l),
(423,222,l),
(452,128,ls),
(463,91,o),
(475,35,o),
(400,33,c),
(399,0,l),
(616,0,l),
(618,44,l),
(553,40,l),
(556,70,o),
(542,122,o),
(532,150,cs),
(341,719,l)
);
},
{
closed = 1;
nodes = (
(321,539,o),
(334,499,o),
(347,459,cs),
(412,259,l),
(183,259,l),
(263,468,l),
(278,505,o),
(292,543,o),
(307,580,c)
);
},
{
closed = 1;
nodes = (
(462,778,l),
(335,878,l),
(333,878,l),
(196,779,l),
(210,754,l),
(326,814,l),
(446,753,l)
);
},
{
closed = 1;
nodes = (
(236,917,o),
(261,931,o),
(280,931,cs),
(319,931,o),
(339,887,o),
(390,887,cs),
(419,887,o),
(455,908,o),
(475,962,c),
(455,972,l),
(437,945,o),
(418,929,o),
(393,930,cs),
(356,931,o),
(339,974,o),
(287,973,cs),
(256,972,o),
(215,943,o),
(199,904,c),
(220,894,l)
);
}
);
};
layerId = UUID0;
shapes = (
{
ref = A;
},
{
pos = (164,190);
ref = circumflexcomb_tildecomb.case;
}
);
width = 631;
},
{
background = {
anchors = (
{
name = bottom;
pos = (300,0);
},
{
name = ogonek;
pos = (600,0);
},
{
name = top;
pos = (346,700);
}
);
shapes = (
{
closed = 1;
nodes = (
(317,718,l),
(94,183,ls),
(68,123,o),
(47,69,o),
(-8,69,c),
(-12,0,l),
(202,0,l),
(207,80,l),
(133,77,l),
(146,100,o),
(162,140,o),
(169,158,c),
(188,205,l),
(407,209,l),
(424,154,ls),
(440,104,o),
(438,66,o),
(382,66,c),
(378,0,l),
(646,0,l),
(649,77,l),
(592,74,l),
(590,104,o),
(575,153,o),
(569,173,cs),
(384,718,l)
);
},
{
closed = 1;
nodes = (
(319,505,o),
(332,453,o),
(346,405,cs),
(385,280,l),
(217,280,l),
(268,410,l),
(293,472,o),
(309,519,o),
(315,542,c)
);
},
{
closed = 1;
nodes = (
(503,812,l),
(359,913,l),
(346,913,l),
(187,807,l),
(215,761,l),
(346,820,l),
(468,760,l)
);
},
{
closed = 1;
nodes = (
(278,939,o),
(301,947,o),
(314,947,cs),
(346,947,o),
(369,915,o),
(413,915,cs),
(446,915,o),
(487,940,o),
(510,1009,c),
(466,1033,l),
(452,1007,o),
(433,990,o),
(413,990,cs),
(373,990,o),
(363,1022,o),
(312,1022,cs),
(276,1022,o),
(235,990,o),
(217,941,c),
(261,913,l)
);
}
);
};
layerId = "6B2A2AD0-3CEC-4B3D-96BE-6A11A3496094";
shapes = (
{
ref = A;
},
{
pos = (176,200);
ref = circumflexcomb_tildecomb.case;
}
);
width = 667;
}
);
unicode = 7850;
},
{
glyphname = Adieresis;
kernLeft = A;
kernRight = A;
layers = (
{
background = {
anchors = (
{
name = bottom;
pos = (282,0);
},
{
name = ogonek;
pos = (555,0);
},
{
name = top;
pos = (332,899);
}
);
shapes = (
{
closed = 1;
nodes = (
(319,719,l),
(93,158,ls),
(63,83,o),
(37,34,o),
(-13,33,c),
(-14,0,l),
(169,0,l),
(171,44,l),
(96,40,l),
(108,62,o),
(115,77,o),
(127,109,c),
(167,216,l),
(423,222,l),
(452,128,ls),
(463,91,o),
(475,35,o),
(400,33,c),
(399,0,l),
(616,0,l),
(618,44,l),
(553,40,l),
(556,70,o),
(542,122,o),
(532,150,cs),
(341,719,l)
);
},
{
closed = 1;
nodes = (
(321,539,o),
(334,499,o),
(347,459,cs),
(412,259,l),
(183,259,l),
(263,468,l),
(278,505,o),
(292,543,o),
(307,580,c)
);
},
{
closed = 1;
nodes = (
(271,780,o),
(296,806,o),
(297,839,cs),
(299,873,o),
(280,899,o),
(253,899,cs),
(225,899,o),
(200,873,o),
(199,839,cs),
(198,806,o),
(218,780,o),
(246,780,cs)
);
},
{
closed = 1;
nodes = (
(433,780,o),
(458,806,o),
(459,839,cs),
(460,873,o),
(442,899,o),
(414,899,cs),
(387,899,o),
(362,873,o),
(361,839,cs),
(360,806,o),
(380,780,o),
(407,780,cs)
);
}
);
};
layerId = UUID0;
shapes = (
{
ref = A;
},
{
pos = (153,2);
ref = dieresiscomb.case;
}
);
width = 631;
},
{
background = {
anchors = (
{
name = bottom;
pos = (300,0);
},
{
name = ogonek;
pos = (600,0);
},
{
name = top;
pos = (359,949);
}
);
shapes = (
{
closed = 1;
nodes = (
(317,718,l),
(94,183,ls),
(68,123,o),
(47,69,o),
(-8,69,c),
(-12,0,l),
(202,0,l),
(207,80,l),
(133,77,l),
(146,100,o),
(162,140,o),
(169,158,c),
(188,205,l),
(407,209,l),
(424,154,ls),
(440,104,o),
(438,66,o),
(382,66,c),
(378,0,l),
(646,0,l),
(649,77,l),
(592,74,l),
(590,104,o),
(575,153,o),
(569,173,cs),
(384,718,l)
);
},
{
closed = 1;
nodes = (
(319,505,o),
(332,453,o),
(346,405,cs),
(385,280,l),
(217,280,l),
(268,410,l),
(293,472,o),
(309,519,o),
(315,542,c)
);
},
{
closed = 1;
nodes = (
(303,797,o),
(333,835,o),
(333,878,cs),
(333,917,o),
(309,949,o),
(274,949,cs),
(237,949,o),
(204,912,o),
(204,868,cs),
(204,828,o),
(230,797,o),
(264,797,cs)
);
},
{
closed = 1;
nodes = (
(477,797,o),
(507,834,o),
(507,878,cs),
(507,917,o),
(484,949,o),
(448,949,cs),
(411,949,o),
(379,912,o),
(379,868,cs),
(379,828,o),
(404,797,o),
(439,797,cs)
);
}
);
};
layerId = "6B2A2AD0-3CEC-4B3D-96BE-6A11A3496094";
shapes = (
{
ref = A;
},
{
pos = (159,0);
ref = dieresiscomb.case;
}
);
width = 667;
}
);
unicode = 196;
},
{
glyphname = Adotbelow;
layers = (
{
background = {
anchors = (
{
name = bottom;
pos = (271,-187);
},
{
name = ogonek;
pos = (555,0);
},
{
name = top;
pos = (322,702);
}
);
shapes = (
{
closed = 1;
nodes = (
(319,719,l),
(93,158,ls),
(63,83,o),
(37,34,o),
(-13,33,c),
(-14,0,l),
(169,0,l),
(171,44,l),
(96,40,l),
(108,62,o),
(115,77,o),
(127,109,c),
(167,216,l),
(423,222,l),
(452,128,ls),
(463,91,o),
(475,35,o),
(400,33,c),
(399,0,l),
(616,0,l),
(618,44,l),
(553,40,l),
(556,70,o),
(542,122,o),
(532,150,cs),
(341,719,l)
);
},
{
closed = 1;
nodes = (
(321,539,o),
(334,499,o),
(347,459,cs),
(412,259,l),
(183,259,l),
(263,468,l),
(278,505,o),
(292,543,o),
(307,580,c)
);
},
{
closed = 1;
nodes = (
(253,-82,o),
(229,-105,o),
(228,-134,cs),
(227,-164,o),
(247,-186,o),
(272,-186,cs),
(297,-186,o),
(321,-164,o),
(322,-134,cs),
(323,-105,o),
(305,-82,o),
(279,-82,cs)
);
}
);
};
layerId = UUID0;
shapes = (
{
ref = A;
},
{
pos = (183,0);
ref = dotbelowcomb;
}
);
width = 631;
},
{
background = {
anchors = (
{
name = bottom;
pos = (290,-198);
},
{
name = ogonek;
pos = (600,0);
},
{
name = top;
pos = (346,700);
}
);
shapes = (
{
closed = 1;
nodes = (
(317,718,l),
(94,183,ls),
(68,123,o),
(47,69,o),
(-8,69,c),
(-12,0,l),
(202,0,l),
(207,80,l),
(133,77,l),
(146,100,o),
(162,140,o),
(169,158,c),
(188,205,l),
(407,209,l),
(424,154,ls),
(440,104,o),
(438,66,o),
(382,66,c),
(378,0,l),
(646,0,l),
(649,77,l),
(592,74,l),
(590,104,o),
(575,153,o),
(569,173,cs),
(384,718,l)
);
},
{
closed = 1;
nodes = (
(319,505,o),
(332,453,o),
(346,405,cs),
(385,280,l),
(217,280,l),
(268,410,l),
(293,472,o),
(309,519,o),
(315,542,c)
);
},
{
closed = 1;
nodes = (
(265,-69,o),
(235,-98,o),
(233,-134,cs),
(231,-169,o),
(255,-198,o),
(291,-198,cs),
(327,-198,o),
(351,-169,o),
(353,-134,cs),
(355,-98,o),
(331,-69,o),
(297,-69,cs)
);
}
);
};
layerId = "6B2A2AD0-3CEC-4B3D-96BE-6A11A3496094";
shapes = (
{
ref = A;
},
{
pos = (201,0);
ref = dotbelowcomb;
}
);
width = 667;
}
);
unicode = 7840;
},
{
glyphname = Agrave;
kernLeft = A;
kernRight = A;
layers = (
{
background = {
anchors = (
{
name = bottom;
pos = (282,0);
},
{
name = ogonek;
pos = (555,0);
},
{
name = top;
pos = (294,928);
}
);
shapes = (
{
closed = 1;
nodes = (
(319,719,l),
(93,158,ls),
(63,83,o),
(37,34,o),
(-13,33,c),
(-14,0,l),
(169,0,l),
(171,44,l),
(96,40,l),
(108,62,o),
(115,77,o),
(127,109,c),
(167,216,l),
(423,222,l),
(452,128,ls),
(463,91,o),
(475,35,o),
(400,33,c),
(399,0,l),
(616,0,l),
(618,44,l),
(553,40,l),
(556,70,o),
(542,122,o),
(532,150,cs),
(341,719,l)
);
},
{
closed = 1;
nodes = (
(321,539,o),
(334,499,o),
(347,459,cs),
(412,259,l),
(183,259,l),
(263,468,l),
(278,505,o),
(292,543,o),
(307,580,c)
);
},
{
closed = 1;
nodes = (
(389,790,l),
(262,908,ls),
(224,943,o),
(202,923,o),
(197,917,cs),
(190,909,o),
(178,883,o),
(222,855,cs),
(368,762,l)
);
}
);
};
layerId = UUID0;
shapes = (
{
ref = A;
},
{
pos = (145,2);
ref = gravecomb.case;
}
);
width = 631;
},
{
background = {
anchors = (
{
name = bottom;
pos = (300,0);
},
{
name = ogonek;
pos = (600,0);
},
{
name = top;
pos = (330,963);
}
);
shapes = (
{
closed = 1;
nodes = (
(317,718,l),
(94,183,ls),
(68,123,o),
(47,69,o),
(-8,69,c),
(-12,0,l),
(202,0,l),
(207,80,l),
(133,77,l),
(146,100,o),
(162,140,o),
(169,158,c),
(188,205,l),
(407,209,l),
(424,154,ls),
(440,104,o),
(438,66,o),
(382,66,c),
(378,0,l),
(646,0,l),
(649,77,l),
(592,74,l),
(590,104,o),
(575,153,o),
(569,173,cs),
(384,718,l)
);
},
{
closed = 1;
nodes = (
(319,505,o),
(332,453,o),
(346,405,cs),
(385,280,l),
(217,280,l),
(268,410,l),
(293,472,o),
(309,519,o),
(315,542,c)
);
},
{
closed = 1;
nodes = (
(434,819,l),
(325,936,ls),
(298,964,o),
(254,977,o),
(228,943,cs),
(201,910,o),
(224,873,o),
(254,854,c),
(395,770,l)
);
}
);
};
layerId = "6B2A2AD0-3CEC-4B3D-96BE-6A11A3496094";
shapes = (
{
ref = A;
},
{
pos = (171,0);
ref = gravecomb.case;
}
);
width = 667;
}
);
unicode = 192;
},
{
glyphname = Ahookabove;
layers = (
{
background = {
anchors = (
{
name = bottom;
pos = (282,0);
},
{
name = ogonek;
pos = (555,0);
},
{
name = top;
pos = (332,946);
}
);
shapes = (
{
closed = 1;
nodes = (
(319,719,l),
(93,158,ls),
(63,83,o),
(37,34,o),
(-13,33,c),
(-14,0,l),
(169,0,l),
(171,44,l),
(96,40,l),
(108,62,o),
(115,77,o),
(127,109,c),
(167,216,l),
(423,222,l),
(452,128,ls),
(463,91,o),
(475,35,o),
(400,33,c),
(399,0,l),
(616,0,l),
(618,44,l),
(553,40,l),
(556,70,o),
(542,122,o),
(532,150,cs),
(341,719,l)
);
},
{
closed = 1;
nodes = (
(321,539,o),
(334,499,o),
(347,459,cs),
(412,259,l),
(183,259,l),
(263,468,l),
(278,505,o),
(292,543,o),
(307,580,c)
);
},
{
closed = 1;
nodes = (
(336,756,l),
(337,767,o),
(351,776,o),
(368,788,cs),
(393,806,o),
(411,823,o),
(413,857,cs),
(415,897,o),
(378,938,o),
(308,938,cs),
(241,938,o),
(203,902,o),
(200,868,cs),
(198,841,o),
(215,830,o),
(231,830,cs),
(247,830,o),
(263,840,o),
(263,856,cs),
(263,862,o),
(261,868,o),
(258,872,c),
(261,886,o),
(283,902,o),
(307,902,cs),
(340,902,o),
(359,877,o),
(357,850,cs),
(356,836,o),
(349,820,o),
(336,809,cs),
(318,794,o),
(296,780,o),
(295,756,c)
);
}
);
};
layerId = UUID0;
shapes = (
{
ref = A;
},
{
pos = (155,190);
ref = hookabovecomb;
}
);
width = 631;
},
{
background = {
anchors = (
{
name = bottom;
pos = (300,0);
},
{
name = ogonek;
pos = (600,0);
},
{
name = top;
pos = (365,956);
}
);
shapes = (
{
closed = 1;
nodes = (
(317,718,l),
(94,183,ls),
(68,123,o),
(47,69,o),
(-8,69,c),
(-12,0,l),
(202,0,l),
(207,80,l),
(133,77,l),
(146,100,o),
(162,140,o),
(169,158,c),
(188,205,l),
(407,209,l),
(424,154,ls),
(440,104,o),
(438,66,o),
(382,66,c),
(378,0,l),
(646,0,l),
(649,77,l),
(592,74,l),
(590,104,o),
(575,153,o),
(569,173,cs),
(384,718,l)
);
},
{
closed = 1;
nodes = (
(319,505,o),
(332,453,o),
(346,405,cs),
(385,280,l),
(217,280,l),
(268,410,l),
(293,472,o),
(309,519,o),
(315,542,c)
);
},
{
closed = 1;
nodes = (
(404,759,l),
(404,771,o),
(416,785,o),
(433,798,cs),
(453,814,o),
(476,828,o),
(478,864,cs),
(481,921,o),
(437,957,o),
(358,957,cs),
(287,957,o),
(244,908,o),
(241,863,cs),
(239,835,o),
(260,812,o),
(291,812,cs),
(314,812,o),
(326,828,o),
(327,843,cs),
(328,857,o),
(319,870,o),
(299,870,c),
(301,879,o),
(317,897,o),
(355,897,cs),
(383,897,o),
(405,883,o),
(403,855,cs),
(402,838,o),
(393,826,o),
(384,816,cs),
(367,798,o),
(343,787,o),
(342,759,c)
);
}
);
};
layerId = "6B2A2AD0-3CEC-4B3D-96BE-6A11A3496094";
shapes = (
{
ref = A;
},
{
pos = (158,200);
ref = hookabovecomb;
}
);
width = 667;
}
);
unicode = 7842;
},
{
glyphname = Amacron;
kernLeft = A;
kernRight = A;
layers = (
{
background = {
anchors = (
{
name = bottom;
pos = (282,0);
},
{
name = ogonek;
pos = (555,0);
},
{
name = top;
pos = (322,702);
}
);
shapes = (
{
closed = 1;
nodes = (
(319,719,l),
(93,158,ls),
(63,83,o),
(37,34,o),
(-13,33,c),
(-14,0,l),
(169,0,l),
(171,44,l),
(96,40,l),
(108,62,o),
(115,77,o),
(127,109,c),
(167,216,l),
(423,222,l),
(452,128,ls),
(463,91,o),
(475,35,o),
(400,33,c),
(399,0,l),
(616,0,l),
(618,44,l),
(553,40,l),
(556,70,o),
(542,122,o),
(532,150,cs),
(341,719,l)
);
},
{
closed = 1;
nodes = (
(321,539,o),
(334,499,o),
(347,459,cs),
(412,259,l),
(183,259,l),
(263,468,l),
(278,505,o),
(292,543,o),
(307,580,c)
);
},
{
closed = 1;
nodes = (
(462,839,l),
(465,891,l),
(200,891,l),
(197,835,l)
);
}
);
};
layerId = UUID0;
shapes = (
{
ref = A;
},
{
pos = (152,190);
ref = macroncomb;
}
);
width = 631;
},
{
background = {
anchors = (
{
name = bottom;
pos = (300,0);
},
{
name = ogonek;
pos = (600,0);
},
{
name = top;
pos = (346,700);
}
);
shapes = (
{
closed = 1;
nodes = (
(317,718,l),
(94,183,ls),
(68,123,o),
(47,69,o),
(-8,69,c),
(-12,0,l),
(202,0,l),
(207,80,l),
(133,77,l),
(146,100,o),
(162,140,o),
(169,158,c),
(188,205,l),
(407,209,l),
(424,154,ls),
(440,104,o),
(438,66,o),
(382,66,c),
(378,0,l),
(646,0,l),
(649,77,l),
(592,74,l),
(590,104,o),
(575,153,o),
(569,173,cs),
(384,718,l)
);
},
{
closed = 1;
nodes = (
(319,505,o),
(332,453,o),
(346,405,cs),
(385,280,l),
(217,280,l),
(268,410,l),
(293,472,o),
(309,519,o),
(315,542,c)
);
},
{
closed = 1;
nodes = (
(486,832,l),
(490,922,l),
(206,922,l),
(202,829,l)
);
}
);
};
layerId = "6B2A2AD0-3CEC-4B3D-96BE-6A11A3496094";
shapes = (
{
ref = A;
},
{
pos = (157,200);
ref = macroncomb;
}
);
width = 667;
}
);
unicode = 256;
},
{
glyphname = Aogonek;
kernLeft = A;
kernRight = A;
layers = (
{
background = {
anchors = (
{
name = bottom;
pos = (282,0);
},
{
name = ogonek;
pos = (555,0);
},
{
name = top;
pos = (322,702);
}
);
shapes = (
{
closed = 1;
nodes = (
(319,719,l),
(93,158,ls),
(63,83,o),
(37,34,o),
(-13,33,c),
(-14,0,l),
(169,0,l),
(171,44,l),
(96,40,l),
(108,62,o),
(115,77,o),
(127,109,c),
(167,216,l),
(423,222,l),
(452,128,ls),
(463,91,o),
(475,35,o),
(400,33,c),
(399,0,l),
(616,0,l),
(618,44,l),
(553,40,l),
(556,70,o),
(542,122,o),
(532,150,cs),
(341,719,l)
);
},
{
closed = 1;
nodes = (
(321,539,o),
(334,499,o),
(347,459,cs),
(412,259,l),
(183,259,l),
(263,468,l),
(278,505,o),
(292,543,o),
(307,580,c)
);
},
{
closed = 1;
nodes = (
(481,-284,o),
(528,-252,o),
(556,-221,c),
(542,-204,l),
(517,-226,o),
(490,-236,o),
(466,-236,cs),
(427,-236,o),
(406,-208,o),
(406,-166,cs),
(406,-95,o),
(477,-30,o),
(555,0,c),
(557,26,l),
(453,-7,o),
(348,-84,o),
(343,-182,cs),
(340,-242,o),
(374,-284,o),
(433,-284,cs)
);
}
);
};
layerId = UUID0;
shapes = (
{
ref = A;
},
{
pos = (297,-27);
ref = ogonekcomb;
}
);
width = 631;
},
{
background = {
anchors = (
{
name = bottom;
pos = (300,0);
},
{
name = ogonek;
pos = (600,0);
},
{
name = top;
pos = (346,700);
}
);
shapes = (
{
closed = 1;
nodes = (
(317,718,l),
(94,183,ls),
(68,123,o),
(47,69,o),
(-8,69,c),
(-12,0,l),
(202,0,l),
(207,80,l),
(133,77,l),
(146,100,o),
(162,140,o),
(169,158,c),
(188,205,l),
(407,209,l),
(424,154,ls),
(440,104,o),
(438,66,o),
(382,66,c),
(378,0,l),
(646,0,l),
(649,77,l),
(592,74,l),
(590,104,o),
(575,153,o),
(569,173,cs),
(384,718,l)
);
},
{
closed = 1;
nodes = (
(319,505,o),
(332,453,o),
(346,405,cs),
(385,280,l),
(217,280,l),
(268,410,l),
(293,472,o),
(309,519,o),
(315,542,c)
);
},
{
closed = 1;
nodes = (
(516,-265,o),
(567,-234,o),
(605,-188,c),
(572,-145,l),
(550,-164,o),
(528,-174,o),
(508,-174,cs),
(481,-174,o),
(466,-158,o),
(467,-134,cs),
(468,-78,o),
(535,-26,o),
(600,0,c),
(604,62,l),
(487,24,o),
(374,-62,o),
(369,-162,cs),
(365,-230,o),
(408,-265,o),
(469,-265,cs)
);
}
);
};
layerId = "6B2A2AD0-3CEC-4B3D-96BE-6A11A3496094";
shapes = (
{
ref = A;
},
{
pos = (323,0);
ref = ogonekcomb;
}
);
width = 667;
}
);
unicode = 260;
},
{
glyphname = Aring;
kernLeft = A;
kernRight = A;
layers = (
{
background = {
anchors = (
{
name = bottom;
pos = (282,0);
},
{
name = ogonek;
pos = (555,0);
},
{
name = top;
pos = (335,936);
}
);
shapes = (
{
closed = 1;
nodes = (
(319,719,l),
(93,158,ls),
(63,83,o),
(37,34,o),
(-13,33,c),
(-14,0,l),
(169,0,l),
(171,44,l),
(96,40,l),
(108,62,o),
(115,77,o),
(127,109,c),
(167,216,l),
(423,222,l),
(452,128,ls),
(463,91,o),
(475,35,o),
(400,33,c),
(399,0,l),
(616,0,l),
(618,44,l),
(553,40,l),
(556,70,o),
(542,122,o),
(532,150,cs),
(341,719,l)
);
},
{
closed = 1;
nodes = (
(321,539,o),
(334,499,o),
(347,459,cs),
(412,259,l),
(183,259,l),
(263,468,l),
(278,505,o),
(292,543,o),
(307,580,c)
);
},
{
closed = 1;
nodes = (
(386,719,o),
(442,762,o),
(440,834,cs),
(437,906,o),
(382,936,o),
(328,936,cs),
(271,936,o),
(216,891,o),
(218,822,cs),
(221,749,o),
(274,719,o),
(330,719,cs)
);
},
{
closed = 1;
nodes = (
(297,748,o),
(271,783,o),
(271,832,cs),
(271,874,o),
(293,905,o),
(324,907,cs),
(358,909,o),
(387,883,o),
(387,820,cs),
(387,779,o),
(361,750,o),
(334,749,cs)
);
}
);
};
layerId = UUID0;
shapes = (
{
ref = A;
},
{
pos = (172,2);
ref = ringcomb.case;
}
);
width = 631;
},
{
background = {
anchors = (
{
name = bottom;
pos = (300,0);
},
{
name = ogonek;
pos = (600,0);
},
{
name = top;
pos = (362,1006);
}
);
shapes = (
{
closed = 1;
nodes = (
(317,718,l),
(94,183,ls),
(68,123,o),
(47,69,o),
(-8,69,c),
(-12,0,l),
(202,0,l),
(207,80,l),
(133,77,l),
(146,100,o),
(162,140,o),
(169,158,c),
(188,205,l),
(407,209,l),
(424,154,ls),
(440,104,o),
(438,66,o),
(382,66,c),
(378,0,l),
(646,0,l),
(649,77,l),
(592,74,l),
(590,104,o),
(575,153,o),
(569,173,cs),
(384,718,l)
);
},
{
closed = 1;
nodes = (
(319,505,o),
(332,453,o),
(346,405,cs),
(385,280,l),
(217,280,l),
(268,410,l),
(293,472,o),
(309,519,o),
(315,542,c)
);
},
{
closed = 1;
nodes = (
(419,751,o),
(489,798,o),
(489,879,cs),
(489,966,o),
(418,1006,o),
(355,1006,cs),
(291,1006,o),
(222,954,o),
(222,877,cs),
(222,790,o),
(292,751,o),
(356,751,cs)
);
},
{
closed = 1;
nodes = (
(329,802,o),
(309,833,o),
(309,885,cs),
(309,917,o),
(321,956,o),
(355,956,cs),
(385,956,o),
(402,923,o),
(402,867,cs),
(402,824,o),
(382,802,o),
(359,802,cs)
);
}
);
};
layerId = "6B2A2AD0-3CEC-4B3D-96BE-6A11A3496094";
shapes = (
{
ref = A;
},
{
pos = (177,0);
ref = ringcomb.case;
}
);
width = 667;
}
);
unicode = 197;
},
{
glyphname = Atilde;
kernLeft = A;
kernRight = A;
layers = (
{
background = {
anchors = (
{
name = bottom;
pos = (282,0);
},
{
name = ogonek;
pos = (555,0);
},
{
name = top;
pos = (333,907);
}
);
shapes = (
{
closed = 1;
nodes = (
(319,719,l),
(93,158,ls),
(63,83,o),
(37,34,o),
(-13,33,c),
(-14,0,l),
(169,0,l),
(171,44,l),
(96,40,l),
(108,62,o),
(115,77,o),
(127,109,c),
(167,216,l),
(423,222,l),
(452,128,ls),
(463,91,o),
(475,35,o),
(400,33,c),
(399,0,l),
(616,0,l),
(618,44,l),
(553,40,l),
(556,70,o),
(542,122,o),
(532,150,cs),
(341,719,l)
);
},
{
closed = 1;
nodes = (
(321,539,o),
(334,499,o),
(347,459,cs),
(412,259,l),
(183,259,l),
(263,468,l),
(278,505,o),
(292,543,o),
(307,580,c)
);
},
{
closed = 1;
nodes = (
(302,850,o),
(332,784,o),
(401,784,cs),
(445,784,o),
(491,804,o),
(523,886,c),
(497,900,l),
(475,865,o),
(446,841,o),
(410,841,cs),
(356,841,o),
(333,909,o),
(254,907,cs),
(212,906,o),
(162,868,o),
(136,810,c),
(164,793,l),
(189,830,o),
(217,850,o),
(246,850,cs)
);
}
);
};
layerId = UUID0;
shapes = (
{
ref = A;
},
{
pos = (91,2);
ref = tildecomb.case;
}
);
width = 631;
},
{
background = {
anchors = (
{
name = bottom;
pos = (300,0);
},
{
name = ogonek;
pos = (600,0);
},
{
name = top;
pos = (359,949);
}
);
shapes = (
{
closed = 1;
nodes = (
(317,718,l),
(94,183,ls),
(68,123,o),
(47,69,o),
(-8,69,c),
(-12,0,l),
(202,0,l),
(207,80,l),
(133,77,l),
(146,100,o),
(162,140,o),
(169,158,c),
(188,205,l),
(407,209,l),
(424,154,ls),
(440,104,o),
(438,66,o),
(382,66,c),
(378,0,l),
(646,0,l),
(649,77,l),
(592,74,l),
(590,104,o),
(575,153,o),
(569,173,cs),
(384,718,l)
);
},
{
closed = 1;
nodes = (
(319,505,o),
(332,453,o),
(346,405,cs),
(385,280,l),
(217,280,l),
(268,410,l),
(293,472,o),
(309,519,o),
(315,542,c)
);
},
{
closed = 1;
nodes = (
(340,848,o),
(371,798,o),
(433,798,cs),
(474,798,o),
(530,819,o),
(566,922,c),
(514,949,l),
(495,911,o),
(454,887,o),
(428,887,cs),
(377,887,o),
(347,937,o),
(281,937,cs),
(233,937,o),
(175,905,o),
(145,831,c),
(196,799,l),
(223,839,o),
(260,848,o),
(285,848,cs)
);
}
);
};
layerId = "6B2A2AD0-3CEC-4B3D-96BE-6A11A3496094";
shapes = (
{
ref = A;
},
{
pos = (100,0);
ref = tildecomb.case;
}
);
width = 667;
}
);
unicode = 195;
},
{
glyphname = AE;
kernLeft = A;
kernRight = E;
layers = (
{
background = {
shapes = (
{
closed = 1;
nodes = (
(162,0,l),
(164,44,l),
(87,40,l),
(87,41,l),
(114,79,o),
(142,116,o),
(169,154,c),
(214,216,l),
(295,218,o),
(377,219,o),
(458,221,c),
(453,130,ls),
(450,69,o),
(439,37,o),
(379,36,c),
(377,0,l),
(889,0,l),
(905,195,l),
(871,195,l),
(865,77,o),
(808,36,o),
(721,37,cs),
(528,40,l),
(531,57,o),
(533,82,o),
(535,118,cs),
(547,345,l),
(571,346,o),
(596,347,o),
(621,347,cs),
(705,347,o),
(739,347,o),
(735,259,c),
(768,259,l),
(779,477,l),
(746,477,l),
(742,389,o),
(707,383,o),
(623,383,cs),
(549,383,l),
(558,544,ls),
(563,625,o),
(565,661,o),
(640,663,cs),
(726,665,ls),
(801,667,o),
(860,643,o),
(854,525,c),
(887,525,l),
(891,700,l),
(395,700,l),
(393,656,l),
(423,657,o),
(453,659,o),
(483,660,c),
(94,125,ls),
(65,85,o),
(30,33,o),
(-22,33,c),
(-24,0,l)
);
},
{
closed = 1;
nodes = (
(381,450,l),
(412,494,o),
(444,538,o),
(475,582,c),
(476,582,l),
(460,259,l),
(245,259,l)
);
}
);
};
layerId = UUID0;
shapes = (
{
closed = 1;
nodes = (
(162,0,l),
(164,44,l),
(87,40,l),
(87,41,l),
(114,79,o),
(142,116,o),
(169,154,c),
(214,216,l),
(295,218,o),
(377,219,o),
(458,221,c),
(453,130,ls),
(450,69,o),
(439,37,o),
(379,36,c),
(377,0,l),
(889,0,l),
(905,195,l),
(871,195,l),
(865,77,o),
(808,36,o),
(721,37,cs),
(528,40,l),
(531,57,o),
(533,82,o),
(535,118,cs),
(547,345,l),
(571,346,o),
(596,347,o),
(621,347,cs),
(705,347,o),
(739,347,o),
(735,259,c),
(768,259,l),
(779,477,l),
(746,477,l),
(742,389,o),
(707,383,o),
(623,383,cs),
(549,383,l),
(558,544,ls),
(563,625,o),
(565,661,o),
(640,663,cs),
(726,665,ls),
(801,667,o),
(860,643,o),
(854,525,c),
(887,525,l),
(891,700,l),
(395,700,l),
(393,656,l),
(423,657,o),
(453,659,o),
(483,660,c),
(94,125,ls),
(65,85,o),
(30,33,o),
(-22,33,c),
(-24,0,l)
);
},
{
closed = 1;
nodes = (
(381,450,l),
(412,494,o),
(444,538,o),
(475,582,c),
(476,582,l),
(460,259,l),
(245,259,l)
);
}
);
width = 955;
},
{
background = {
shapes = (
{
closed = 1;
nodes = (
(200,0,l),
(204,77,l),
(124,74,l),
(124,75,l),
(146,91,o),
(168,120,o),
(191,151,cs),
(229,202,l),
(292,203,o),
(363,206,o),
(424,207,c),
(422,153,ls),
(418,72,o),
(391,68,o),
(346,66,c),
(343,0,l),
(868,0,l),
(886,220,l),
(820,220,l),
(814,112,o),
(750,76,o),
(690,76,cs),
(556,76,l),
(560,93,o),
(563,128,o),
(565,164,cs),
(573,328,l),
(582,328,o),
(591,329,o),
(600,329,cs),
(654,330,o),
(698,325,o),
(693,241,c),
(759,241,l),
(772,484,l),
(695,484,l),
(695,459,o),
(694,425,o),
(695,397,c),
(577,397,l),
(585,547,ls),
(589,625,o),
(614,633,o),
(656,634,cs),
(692,635,ls),
(747,637,o),
(813,615,o),
(807,506,c),
(873,506,l),
(877,700,l),
(379,700,l),
(375,623,l),
(390,624,o),
(429,625,o),
(451,625,c),
(104,171,ls),
(68,124,o),
(26,66,o),
(-21,66,c),
(-24,0,l)
);
},
{
closed = 1;
nodes = (
(368,392,ls),
(411,449,o),
(419,460,o),
(444,501,c),
(445,501,l),
(428,276,l),
(281,276,l)
);
}
);
};
layerId = "6B2A2AD0-3CEC-4B3D-96BE-6A11A3496094";
shapes = (
{
closed = 1;
nodes = (
(200,0,l),
(204,77,l),
(124,74,l),
(124,75,l),
(146,91,o),
(168,120,o),
(191,151,cs),
(229,202,l),
(292,203,o),
(363,206,o),
(424,207,c),
(422,153,ls),
(418,72,o),
(391,68,o),
(346,66,c),
(343,0,l),
(868,0,l),
(886,220,l),
(820,220,l),
(814,112,o),
(750,76,o),
(690,76,cs),
(556,76,l),
(560,93,o),
(563,128,o),
(565,164,cs),
(573,328,l),
(582,328,o),
(591,329,o),
(600,329,cs),
(654,330,o),
(698,325,o),
(693,241,c),
(759,241,l),
(772,484,l),
(695,484,l),
(695,459,o),
(694,425,o),
(695,397,c),
(577,397,l),
(585,547,ls),
(589,625,o),
(614,633,o),
(656,634,cs),
(692,635,ls),
(747,637,o),
(813,615,o),
(807,506,c),
(873,506,l),
(877,700,l),
(379,700,l),
(375,623,l),
(390,624,o),
(429,625,o),
(451,625,c),
(104,171,ls),
(68,124,o),
(26,66,o),
(-21,66,c),
(-24,0,l)
);
},
{
closed = 1;
nodes = (
(368,392,ls),
(411,449,o),
(419,460,o),
(444,501,c),
(445,501,l),
(428,276,l),
(281,276,l)
);
}
);
width = 931;
}
);
unicode = 198;
},
{
glyphname = B;
kernLeft = I;
layers = (
{
background = {
shapes = (
{
closed = 1;
nodes = (
(220,702,o),
(150,700,o),
(77,700,c),
(74,656,l),
(98,657,o),
(123,659,o),
(147,660,c),
(144,643,o),
(141,617,o),
(140,581,cs),
(118,161,l),
(114,86,o),
(117,35,o),
(42,33,c),
(40,0,l),
(329,0,ls),
(464,0,o),
(566,73,o),
(572,196,cs),
(578,299,o),
(510,374,o),
(363,374,c),
(363,376,l),
(474,396,o),
(529,466,o),
(533,531,cs),
(541,649,o),
(455,702,o),
(300,702,cs)
);
},
{
closed = 1;
nodes = (
(405,347,o),
(484,308,o),
(478,190,cs),
(473,90,o),
(401,39,o),
(298,39,cs),
(285,39,o),
(223,38,o),
(192,41,c),
(195,58,o),
(197,83,o),
(199,119,cs),
(211,344,l),
(243,346,o),
(274,347,o),
(314,347,cs)
);
},
{
closed = 1;
nodes = (
(369,666,o),
(449,644,o),
(445,536,cs),
(442,462,o),
(400,390,o),
(286,385,cs),
(264,384,o),
(238,383,o),
(213,383,c),
(223,569,ls),
(227,642,o),
(238,666,o),
(303,666,cs)
);
}
);
};
layerId = UUID0;
shapes = (
{
closed = 1;
nodes = (
(220,702,o),
(150,700,o),
(77,700,c),
(74,656,l),
(98,657,o),
(123,659,o),
(147,660,c),
(144,643,o),
(141,617,o),
(140,581,cs),
(118,161,l),
(114,86,o),
(117,35,o),
(42,33,c),
(40,0,l),
(329,0,ls),
(464,0,o),
(566,73,o),
(572,196,cs),
(578,299,o),
(510,374,o),
(363,374,c),
(363,376,l),
(474,396,o),
(529,466,o),
(533,531,cs),
(541,649,o),
(455,702,o),
(300,702,cs)
);
},
{
closed = 1;
nodes = (
(405,347,o),
(484,308,o),
(478,190,cs),
(473,90,o),
(401,39,o),
(298,39,cs),
(285,39,o),
(223,38,o),
(192,41,c),
(195,58,o),
(197,83,o),
(199,119,cs),
(211,344,l),
(243,346,o),
(274,347,o),
(314,347,cs)
);
},
{
closed = 1;
nodes = (
(369,666,o),
(449,644,o),
(445,536,cs),
(442,462,o),
(400,390,o),
(286,385,cs),
(264,384,o),
(238,383,o),
(213,383,c),
(223,569,ls),
(227,642,o),
(238,666,o),
(303,666,cs)
);
}
);
width = 619;
},
{
background = {
shapes = (
{
closed = 1;
nodes = (
(255,701,o),
(164,701,o),
(72,700,c),
(68,623,l),
(82,624,o),
(122,625,o),
(143,626,c),
(140,609,o),
(136,572,o),
(134,536,cs),
(114,153,ls),
(110,72,o),
(83,68,o),
(39,66,c),
(35,0,l),
(373,0,ls),
(513,0,o),
(617,69,o),
(624,199,cs),
(628,282,o),
(573,357,o),
(442,378,c),
(442,379,l),
(537,404,o),
(583,462,o),
(590,520,cs),
(604,642,o),
(506,703,o),
(347,702,cs)
);
},
{
closed = 1;
nodes = (
(411,323,o),
(474,294,o),
(469,202,cs),
(465,128,o),
(427,76,o),
(346,72,cs),
(314,71,o),
(283,71,o),
(248,71,c),
(251,88,o),
(255,123,o),
(257,159,cs),
(265,322,l),
(291,323,o),
(313,323,o),
(346,323,cs)
);
},
{
closed = 1;
nodes = (
(391,633,o),
(445,607,o),
(440,528,cs),
(437,455,o),
(406,396,o),
(321,394,c),
(304,394,o),
(286,393,o),
(269,393,c),
(277,548,ls),
(281,625,o),
(307,631,o),
(340,632,cs)
);
}
);
};
layerId = "6B2A2AD0-3CEC-4B3D-96BE-6A11A3496094";
shapes = (
{
closed = 1;
nodes = (
(255,701,o),
(164,701,o),
(72,700,c),
(68,623,l),
(82,624,o),
(122,625,o),
(143,626,c),
(140,609,o),
(136,572,o),
(134,536,cs),
(114,153,ls),
(110,72,o),
(83,68,o),
(39,66,c),
(35,0,l),
(373,0,ls),
(513,0,o),
(617,69,o),
(624,199,cs),
(628,282,o),
(573,357,o),
(442,378,c),
(442,379,l),
(537,404,o),
(583,462,o),
(590,520,cs),
(604,642,o),
(506,703,o),
(347,702,cs)
);
},
{
closed = 1;
nodes = (
(411,323,o),
(474,294,o),
(469,202,cs),
(465,128,o),
(427,76,o),
(346,72,cs),
(314,71,o),
(283,71,o),
(248,71,c),
(251,88,o),
(255,123,o),
(257,159,cs),
(265,322,l),
(291,323,o),
(313,323,o),
(346,323,cs)
);
},
{
closed = 1;
nodes = (
(391,633,o),
(445,607,o),
(440,528,cs),
(437,455,o),
(406,396,o),
(321,394,c),
(304,394,o),
(286,393,o),
(269,393,c),
(277,548,ls),
(281,625,o),
(307,631,o),
(340,632,cs)
);
}
);
width = 659;
}
);
unicode = 66;
},
{
glyphname = C;
kernLeft = O;
kernRight = C;
layers = (
{
anchors = (
{
name = bottom;
pos = (389,0);
},
{
name = top;
pos = (429,702);
}
);
background = {
anchors = (
{
name = bottom;
pos = (389,0);
},
{
name = top;
pos = (429,702);
}
);
shapes = (
{
closed = 1;
nodes = (
(179,716,o),
(60,527,o),
(50,339,c),
(40,140,o),
(165,-16,o),
(366,-16,cs),
(447,-16,o),
(564,11,o),
(656,127,c),
(631,148,l),
(573,74,o),
(481,36,o),
(395,36,cs),
(247,36,o),
(134,165,o),
(144,354,c),
(154,550,o),
(274,675,o),
(416,675,cs),
(532,675,o),
(607,604,o),
(614,479,c),
(650,479,l),
(662,710,l),
(608,710,l),
(610,656,l),
(609,656,l),
(550,696,o),
(487,716,o),
(412,716,cs)
);
}
);
};
layerId = UUID0;
shapes = (
{
closed = 1;
nodes = (
(179,716,o),
(60,527,o),
(50,339,c),
(40,140,o),
(165,-16,o),
(366,-16,cs),
(447,-16,o),
(564,11,o),
(656,127,c),
(631,148,l),
(573,74,o),
(481,36,o),
(395,36,cs),
(247,36,o),
(134,165,o),
(144,354,c),
(154,550,o),
(274,675,o),
(416,675,cs),
(532,675,o),
(607,604,o),
(614,479,c),
(650,479,l),
(662,710,l),
(608,710,l),
(610,656,l),
(609,656,l),
(550,696,o),
(487,716,o),
(412,716,cs)
);
}
);
width = 686;
},
{
anchors = (
{
name = bottom;
pos = (394,0);
},
{
name = top;
pos = (423,700);
}
);
background = {
anchors = (
{
name = bottom;
pos = (394,0);
},
{
name = top;
pos = (423,700);
}
);
shapes = (
{
closed = 1;
nodes = (
(175,716,o),
(48,522,o),
(38,340,cs),
(28,141,o),
(156,-16,o),
(362,-16,cs),
(445,-16,o),
(567,9,o),
(671,144,c),
(632,184,l),
(564,96,o),
(471,59,o),
(391,60,cs),
(256,61,o),
(185,188,o),
(194,360,cs),
(202,504,o),
(277,649,o),
(417,648,cs),
(510,648,o),
(564,587,o),
(576,476,c),
(642,476,l),
(654,709,l),
(577,709,l),
(578,667,l),
(577,667,l),
(525,699,o),
(460,716,o),
(408,716,cs)
);
}
);
};
layerId = "6B2A2AD0-3CEC-4B3D-96BE-6A11A3496094";
shapes = (
{
closed = 1;
nodes = (
(175,716,o),
(48,522,o),
(38,340,cs),
(28,141,o),
(156,-16,o),
(362,-16,cs),
(445,-16,o),
(567,9,o),
(671,144,c),
(632,184,l),
(564,96,o),
(471,59,o),
(391,60,cs),
(256,61,o),
(185,188,o),
(194,360,cs),
(202,504,o),
(277,649,o),
(417,648,cs),
(510,648,o),
(564,587,o),
(576,476,c),
(642,476,l),
(654,709,l),
(577,709,l),
(578,667,l),
(577,667,l),
(525,699,o),
(460,716,o),
(408,716,cs)
);
}
);
width = 690;
}
);
unicode = 67;
},
{
glyphname = Cacute;
kernLeft = O;
kernRight = C;
layers = (
{
background = {
anchors = (
{
name = bottom;
pos = (389,0);
},
{
name = top;
pos = (429,702);
}
);
shapes = (
{
closed = 1;
nodes = (
(179,716,o),
(60,527,o),
(50,339,c),
(40,140,o),
(165,-16,o),
(366,-16,cs),
(447,-16,o),
(564,11,o),
(656,127,c),
(631,148,l),
(573,74,o),
(481,36,o),
(395,36,cs),
(247,36,o),
(134,165,o),
(144,354,c),
(154,550,o),
(274,675,o),
(416,675,cs),
(532,675,o),
(607,604,o),
(614,479,c),
(650,479,l),
(662,710,l),
(608,710,l),
(610,656,l),
(609,656,l),
(550,696,o),
(487,716,o),
(412,716,cs)
);
},
{
closed = 1;
nodes = (
(490,876,ls),
(525,913,o),
(511,937,o),
(503,945,cs),
(497,951,o),
(468,967,o),
(441,921,cs),
(363,789,l),
(387,769,l)
);
}
);
};
layerId = UUID0;
shapes = (
{
ref = C;
},
{
pos = (346,2);
ref = acutecomb.case;
}
);
width = 686;
},
{
background = {
anchors = (
{
name = bottom;
pos = (394,0);
},
{
name = top;
pos = (423,700);
}
);
shapes = (
{
closed = 1;
nodes = (
(175,716,o),
(48,522,o),
(38,340,cs),
(28,141,o),
(156,-16,o),
(362,-16,cs),
(445,-16,o),
(567,9,o),
(671,144,c),
(632,184,l),
(564,96,o),
(471,59,o),
(391,60,cs),
(256,61,o),
(185,188,o),
(194,360,cs),
(202,504,o),
(277,649,o),
(417,648,cs),
(510,648,o),
(564,587,o),
(576,476,c),
(642,476,l),
(654,709,l),
(577,709,l),
(578,667,l),
(577,667,l),
(525,699,o),
(460,716,o),
(408,716,cs)
);
},
{
closed = 1;
nodes = (
(493,871,ls),
(522,895,o),
(537,942,o),
(506,970,cs),
(477,996,o),
(433,980,o),
(411,946,cs),
(322,806,l),
(366,765,l)
);
}
);
};
layerId = "6B2A2AD0-3CEC-4B3D-96BE-6A11A3496094";
shapes = (
{
ref = C;
},
{
pos = (313,0);
ref = acutecomb.case;
}
);
width = 690;
}
);
unicode = 262;
},
{
glyphname = Ccaron;
kernLeft = O;
kernRight = C;
layers = (
{
background = {
anchors = (
{
name = bottom;
pos = (389,0);
},
{
name = top;
pos = (442,947);
}
);
shapes = (
{
closed = 1;
nodes = (
(179,716,o),
(60,527,o),
(50,339,c),
(40,140,o),
(165,-16,o),
(366,-16,cs),
(447,-16,o),
(564,11,o),
(656,127,c),
(631,148,l),
(573,74,o),
(481,36,o),
(395,36,cs),
(247,36,o),
(134,165,o),
(144,354,c),
(154,550,o),
(274,675,o),
(416,675,cs),
(532,675,o),
(607,604,o),
(614,479,c),
(650,479,l),
(662,710,l),
(608,710,l),
(610,656,l),
(609,656,l),
(550,696,o),
(487,716,o),
(412,716,cs)
);
},
{
closed = 1;
nodes = (
(626,921,l),
(611,947,l),
(434,850,l),
(267,945,l),
(248,916,l),
(431,773,l),
(433,773,l)
);
}
);
};
layerId = UUID0;
shapes = (
{
ref = C;
},
{
pos = (188,2);
ref = caroncomb.case;
}
);
width = 686;
},
{
background = {
anchors = (
{
name = bottom;
pos = (394,0);
},
{
name = top;
pos = (437,962);
}
);
shapes = (
{
closed = 1;
nodes = (
(175,716,o),
(48,522,o),
(38,340,cs),
(28,141,o),
(156,-16,o),
(362,-16,cs),
(445,-16,o),
(567,9,o),
(671,144,c),
(632,184,l),
(564,96,o),
(471,59,o),
(391,60,cs),
(256,61,o),
(185,188,o),
(194,360,cs),
(202,504,o),
(277,649,o),
(417,648,cs),
(510,648,o),
(564,587,o),
(576,476,c),
(642,476,l),
(654,709,l),
(577,709,l),
(578,667,l),
(577,667,l),
(525,699,o),
(460,716,o),
(408,716,cs)
);
},
{
closed = 1;
nodes = (
(641,922,l),
(621,962,l),
(430,875,l),
(250,962,l),
(222,921,l),
(409,770,l),
(429,770,l)
);
}
);
};
layerId = "6B2A2AD0-3CEC-4B3D-96BE-6A11A3496094";
shapes = (
{
ref = C;
},
{
pos = (177,0);
ref = caroncomb.case;
}
);
width = 690;
}
);
unicode = 268;
},
{
glyphname = Ccedilla;
kernLeft = O;
kernRight = C;
layers = (
{
background = {
anchors = (
{
name = bottom;
pos = (384,-251);
},
{
name = top;
pos = (429,702);
}
);
shapes = (
{
closed = 1;
nodes = (
(179,716,o),
(60,527,o),
(50,339,c),
(40,140,o),
(165,-16,o),
(366,-16,cs),
(447,-16,o),
(564,11,o),
(656,127,c),
(631,148,l),
(573,74,o),
(481,36,o),
(395,36,cs),
(247,36,o),
(134,165,o),
(144,354,c),
(154,550,o),
(274,675,o),
(416,675,cs),
(532,675,o),
(607,604,o),
(614,479,c),
(650,479,l),
(662,710,l),
(608,710,l),
(610,656,l),
(609,656,l),
(550,696,o),
(487,716,o),
(412,716,cs)
);
},
{
closed = 1;
nodes = (
(358,-241,o),
(492,-209,o),
(498,-128,cs),
(501,-90,o),
(481,-57,o),
(430,-57,cs),
(414,-57,o),
(382,-63,o),
(362,-75,c),
(394,8,l),
(336,8,l),
(302,-102,l),
(334,-119,l),
(347,-109,o),
(365,-104,o),
(381,-104,cs),
(403,-104,o),
(417,-115,o),
(416,-137,cs),
(414,-176,o),
(352,-206,o),
(284,-218,c),
(290,-251,l)
);
}
);
};
layerId = UUID0;
shapes = (
{
ref = C;
},
{
pos = (239,0);
ref = cedillacomb.case;
}
);
width = 686;
},
{
background = {
anchors = (
{
name = bottom;
pos = (378,-275);
},
{
name = top;
pos = (423,700);
}
);
shapes = (
{
closed = 1;
nodes = (
(175,716,o),
(48,522,o),
(38,340,cs),
(28,141,o),
(156,-16,o),
(362,-16,cs),
(445,-16,o),
(567,9,o),
(671,144,c),
(632,184,l),
(564,96,o),
(471,59,o),
(391,60,cs),
(256,61,o),
(185,188,o),
(194,360,cs),
(202,504,o),
(277,649,o),
(417,648,cs),
(510,648,o),
(564,587,o),
(576,476,c),
(642,476,l),
(654,709,l),
(577,709,l),
(578,667,l),
(577,667,l),
(525,699,o),
(460,716,o),
(408,716,cs)
);
},
{
closed = 1;
nodes = (
(346,-264,o),
(502,-219,o),
(507,-125,cs),
(509,-78,o),
(476,-53,o),
(435,-52,cs),
(417,-51,o),
(383,-59,o),
(365,-67,c),
(398,10,l),
(318,10,l),
(280,-121,l),
(321,-136,l),
(331,-128,o),
(349,-121,o),
(364,-121,cs),
(378,-121,o),
(390,-128,o),
(389,-146,cs),
(387,-187,o),
(296,-214,o),
(264,-220,c),
(269,-275,l)
);
}
);
};
layerId = "6B2A2AD0-3CEC-4B3D-96BE-6A11A3496094";
shapes = (
{
ref = C;
},
{
pos = (219,0);
ref = cedillacomb.case;
}
);
width = 690;
}
);
unicode = 199;
},
{
glyphname = Ccircumflex;
kernLeft = O;
kernRight = C;
layers = (
{
background = {
anchors = (
{
name = bottom;
pos = (389,0);
},
{
name = top;
pos = (429,702);
}
);
shapes = (
{
closed = 1;
nodes = (
(179,716,o),
(60,527,o),
(50,339,c),
(40,140,o),
(165,-16,o),
(366,-16,cs),
(447,-16,o),
(564,11,o),
(656,127,c),
(631,148,l),
(573,74,o),
(481,36,o),
(395,36,cs),
(247,36,o),
(134,165,o),
(144,354,c),
(154,550,o),
(274,675,o),
(416,675,cs),
(532,675,o),
(607,604,o),
(614,479,c),
(650,479,l),
(662,710,l),
(608,710,l),
(610,656,l),
(609,656,l),
(550,696,o),
(487,716,o),
(412,716,cs)
);
},
{
closed = 1;
nodes = (
(626,791,l),
(445,932,l),
(443,932,l),
(247,792,l),
(262,765,l),
(432,852,l),
(608,763,l)
);
}
);
};
layerId = UUID0;
shapes = (
{
ref = C;
},
{
pos = (202,2);
ref = circumflexcomb.case;
}
);
width = 686;
},
{
background = {
anchors = (
{
name = bottom;
pos = (394,0);
},
{
name = top;
pos = (423,700);
}
);
shapes = (
{
closed = 1;
nodes = (
(175,716,o),
(48,522,o),
(38,340,cs),
(28,141,o),
(156,-16,o),
(362,-16,cs),
(445,-16,o),
(567,9,o),
(671,144,c),
(632,184,l),
(564,96,o),
(471,59,o),
(391,60,cs),
(256,61,o),
(185,188,o),
(194,360,cs),
(202,504,o),
(277,649,o),
(417,648,cs),
(510,648,o),
(564,587,o),
(576,476,c),
(642,476,l),
(654,709,l),
(577,709,l),
(578,667,l),
(577,667,l),
(525,699,o),
(460,716,o),
(408,716,cs)
);
},
{
closed = 1;
nodes = (
(640,821,l),
(452,971,l),
(433,971,l),
(221,821,l),
(240,781,l),
(433,867,l),
(612,779,l)
);
}
);
};
layerId = "6B2A2AD0-3CEC-4B3D-96BE-6A11A3496094";
shapes = (
{
ref = C;
},
{
pos = (191,0);
ref = circumflexcomb.case;
}
);
width = 690;
}
);
unicode = 264;
},
{
glyphname = Cdotaccent;
layers = (
{
background = {
anchors = (
{
name = bottom;
pos = (394,0);
},
{
name = top;
pos = (436,953);
}
);
shapes = (
{
closed = 1;
nodes = (
(175,716,o),
(48,522,o),
(38,340,cs),
(28,141,o),
(156,-16,o),
(362,-16,cs),
(445,-16,o),
(567,9,o),
(671,144,c),
(632,184,l),
(564,96,o),
(471,59,o),
(391,60,cs),
(256,61,o),
(185,188,o),
(194,360,cs),
(202,504,o),
(277,649,o),
(417,648,cs),
(510,648,o),
(564,587,o),
(576,476,c),
(642,476,l),
(654,709,l),
(577,709,l),
(578,667,l),
(577,667,l),
(525,699,o),
(460,716,o),
(408,716,cs)
);
},
{
closed = 1;
nodes = (
(392,953,o),
(359,921,o),
(357,881,cs),
(355,842,o),
(381,809,o),
(421,809,cs),
(461,809,o),
(489,842,o),
(491,881,cs),
(493,921,o),
(466,953,o),
(428,953,cs)
);
}
);
};
layerId = "6B2A2AD0-3CEC-4B3D-96BE-6A11A3496094";
shapes = (
{
ref = C;
},
{
pos = (310,200);
ref = dotaccentcomb;
}
);
width = 690;
},
{
background = {
anchors = (
{
name = bottom;
pos = (389,0);
},
{
name = top;
pos = (440,915);
}
);
shapes = (
{
closed = 1;
nodes = (
(179,716,o),
(60,527,o),
(50,339,c),
(40,140,o),
(165,-16,o),
(366,-16,cs),
(447,-16,o),
(564,11,o),
(656,127,c),
(631,148,l),
(573,74,o),
(481,36,o),
(395,36,cs),
(247,36,o),
(134,165,o),
(144,354,c),
(154,550,o),
(274,675,o),
(416,675,cs),
(532,675,o),
(607,604,o),
(614,479,c),
(650,479,l),
(662,710,l),
(608,710,l),
(610,656,l),
(609,656,l),
(550,696,o),
(487,716,o),
(412,716,cs)
);
},
{
closed = 1;
nodes = (
(413,915,o),
(387,890,o),
(385,857,cs),
(384,824,o),
(406,799,o),
(435,799,cs),
(462,799,o),
(489,824,o),
(490,857,cs),
(492,890,o),
(471,915,o),
(442,915,cs)
);
}
);
};
layerId = UUID0;
shapes = (
{
ref = C;
},
{
pos = (338,190);
ref = dotaccentcomb;
}
);
width = 686;
}
);
unicode = 266;
},
{
glyphname = D;
kernLeft = I;
kernRight = D;
layers = (
{
anchors = (
{
name = center;
pos = (377,351);
},
{
name = top;
pos = (393,702);
}
);
background = {
anchors = (
{
name = center;
pos = (377,351);
},
{
name = top;
pos = (393,702);
}
);
shapes = (
{
closed = 1;
nodes = (
(77,700,l),
(74,656,l),
(99,657,o),
(123,659,o),
(148,660,c),
(145,640,o),
(143,615,o),
(141,588,cs),
(117,156,l),
(114,85,o),
(117,36,o),
(42,33,c),
(40,0,l),
(299,0,ls),
(564,0,o),
(695,181,o),
(695,376,cs),
(695,599,o),
(541,702,o),
(309,701,cs)
);
},
{
closed = 1;
nodes = (
(507,664,o),
(602,552,o),
(602,380,cs),
(602,188,o),
(479,38,o),
(298,38,cs),
(265,38,o),
(235,38,o),
(191,40,c),
(194,57,o),
(196,82,o),
(198,118,cs),
(221,551,l),
(225,629,o),
(227,664,o),
(303,664,cs)
);
}
);
};
layerId = UUID0;
shapes = (
{
closed = 1;
nodes = (
(77,700,l),
(74,656,l),
(99,657,o),
(123,659,o),
(148,660,c),
(145,640,o),
(143,615,o),
(141,588,cs),
(117,156,l),
(114,85,o),
(117,36,o),
(42,33,c),
(40,0,l),
(299,0,ls),
(564,0,o),
(695,181,o),
(695,376,cs),
(695,599,o),
(541,702,o),
(309,701,cs)
);
},
{
closed = 1;
nodes = (
(507,664,o),
(602,552,o),
(602,380,cs),
(602,188,o),
(479,38,o),
(298,38,cs),
(265,38,o),
(235,38,o),
(191,40,c),
(194,57,o),
(196,82,o),
(198,118,cs),
(221,551,l),
(225,629,o),
(227,664,o),
(303,664,cs)
);
}
);
width = 738;
},
{
anchors = (
{
name = center;
pos = (377,350);
},
{
name = top;
pos = (397,700);
}
);
background = {
anchors = (
{
name = center;
pos = (377,350);
},
{
name = top;
pos = (397,700);
}
);
shapes = (
{
closed = 1;
nodes = (
(72,700,l),
(68,623,l),
(82,624,o),
(122,625,o),
(143,626,c),
(140,609,o),
(136,572,o),
(134,536,cs),
(114,153,ls),
(110,72,o),
(83,68,o),
(39,66,c),
(35,0,l),
(319,0,ls),
(599,0,o),
(714,194,o),
(723,357,cs),
(731,523,o),
(625,702,o),
(361,701,cs)
);
},
{
closed = 1;
nodes = (
(494,630,o),
(577,540,o),
(566,336,cs),
(560,203,o),
(490,73,o),
(344,73,cs),
(320,73,o),
(268,76,o),
(249,74,c),
(252,91,o),
(255,128,o),
(257,164,cs),
(277,549,ls),
(281,626,o),
(306,636,o),
(355,634,cs)
);
}
);
};
layerId = "6B2A2AD0-3CEC-4B3D-96BE-6A11A3496094";
shapes = (
{
closed = 1;
nodes = (
(72,700,l),
(68,623,l),
(82,624,o),
(122,625,o),
(143,626,c),
(140,609,o),
(136,572,o),
(134,536,cs),
(114,153,ls),
(110,72,o),
(83,68,o),
(39,66,c),
(35,0,l),
(319,0,ls),
(599,0,o),
(714,194,o),
(723,357,cs),
(731,523,o),
(625,702,o),
(361,701,cs)
);
},
{
closed = 1;
nodes = (
(494,630,o),
(577,540,o),
(566,336,cs),
(560,203,o),
(490,73,o),
(344,73,cs),
(320,73,o),
(268,76,o),
(249,74,c),
(252,91,o),
(255,128,o),
(257,164,cs),
(277,549,ls),
(281,626,o),
(306,636,o),
(355,634,cs)
);
}
);
width = 755;
}
);
unicode = 68;
},
{
glyphname = Eth;
kernLeft = I;
kernRight = D;
layers = (
{
background = {
shapes = (
{
closed = 1;
nodes = (
(128,345,l),
(117,156,ls),
(114,85,o),
(117,36,o),
(42,33,c),
(40,0,l),
(299,0,ls),
(564,0,o),
(695,181,o),
(695,376,cs),
(695,599,o),
(541,702,o),
(309,701,cs),
(77,700,l),
(74,656,l),
(99,657,o),
(123,659,o),
(148,660,c),
(145,640,o),
(143,615,o),
(141,588,cs),
(128,362,l),
(211,362,l),
(221,551,ls),
(225,629,o),
(227,664,o),
(303,664,cs),
(507,664,o),
(602,552,o),
(602,380,cs),
(602,188,o),
(479,38,o),
(298,38,cs),
(265,38,o),
(235,38,o),
(191,40,c),
(194,57,o),
(196,82,o),
(198,118,cs),
(210,346,l)
);
},
{
closed = 1;
nodes = (
(340,332,l),
(342,378,l),
(26,378,l),
(24,328,l)
);
}
);
};
layerId = UUID0;
shapes = (
{
ref = D;
},
{
closed = 1;
nodes = (
(340,332,l),
(342,378,l),
(26,378,l),
(24,328,l)
);
}
);
width = 738;
},
{
background = {
shapes = (
{
closed = 1;
nodes = (
(124,320,l),
(115,153,ls),
(111,72,o),
(84,68,o),
(40,66,c),
(36,0,l),
(320,0,ls),
(600,0,o),
(715,194,o),
(724,357,cs),
(732,523,o),
(625,702,o),
(362,701,cs),
(73,700,l),
(69,623,l),
(83,624,o),
(123,625,o),
(144,626,c),
(141,609,o),
(137,572,o),
(135,536,cs),
(127,384,l),
(269,384,l),
(278,549,ls),
(282,626,o),
(307,636,o),
(356,634,cs),
(495,630,o),
(578,540,o),
(567,336,cs),
(561,203,o),
(491,73,o),
(345,73,cs),
(321,73,o),
(269,76,o),
(250,74,c),
(253,91,o),
(256,128,o),
(258,164,c),
(266,323,l)
);
},
{
closed = 1;
nodes = (
(367,309,l),
(372,400,l),
(29,400,l),
(24,302,l)
);
}
);
};
layerId = "6B2A2AD0-3CEC-4B3D-96BE-6A11A3496094";
shapes = (
{
ref = D;
},
{
closed = 1;
nodes = (
(367,309,l),
(372,400,l),
(29,400,l),
(24,302,l)
);
}
);
width = 755;
}
);
metricRight = D;
unicode = 208;
},
{
glyphname = Dcaron;
kernLeft = I;
kernRight = D;
layers = (
{
background = {
anchors = (
{
name = center;
pos = (377,351);
},
{
name = top;
pos = (406,947);
}
);
shapes = (
{
closed = 1;
nodes = (
(77,700,l),
(74,656,l),
(99,657,o),
(123,659,o),
(148,660,c),
(145,640,o),
(143,615,o),
(141,588,cs),
(117,156,l),
(114,85,o),
(117,36,o),
(42,33,c),
(40,0,l),
(299,0,ls),
(564,0,o),
(695,181,o),
(695,376,cs),
(695,599,o),
(541,702,o),
(309,701,cs)
);
},
{
closed = 1;
nodes = (
(507,664,o),
(602,552,o),
(602,380,cs),
(602,188,o),
(479,38,o),
(298,38,cs),
(265,38,o),
(235,38,o),
(191,40,c),
(194,57,o),
(196,82,o),
(198,118,cs),
(221,551,l),
(225,629,o),
(227,664,o),
(303,664,cs)
);
},
{
closed = 1;
nodes = (
(590,921,l),
(575,947,l),
(398,850,l),
(231,945,l),
(212,916,l),
(395,773,l),
(397,773,l)
);
}
);
};
layerId = UUID0;
shapes = (
{
ref = D;
},
{
pos = (152,2);
ref = caroncomb.case;
}
);
width = 738;
},
{
background = {
anchors = (
{
name = center;
pos = (377,350);
},
{
name = top;
pos = (411,962);
}
);
shapes = (
{
closed = 1;
nodes = (
(72,700,l),
(68,623,l),
(82,624,o),
(122,625,o),
(143,626,c),
(140,609,o),
(136,572,o),
(134,536,cs),
(114,153,ls),
(110,72,o),
(83,68,o),
(39,66,c),
(35,0,l),
(319,0,ls),
(599,0,o),
(714,194,o),
(723,357,cs),
(731,523,o),
(625,702,o),
(361,701,cs)
);
},
{
closed = 1;
nodes = (
(494,630,o),
(577,540,o),
(566,336,cs),
(560,203,o),
(490,73,o),
(344,73,cs),
(320,73,o),
(268,76,o),
(249,74,c),
(252,91,o),
(255,128,o),
(257,164,cs),
(277,549,ls),
(281,626,o),
(306,636,o),
(355,634,cs)
);
},
{
closed = 1;
nodes = (
(615,922,l),
(595,962,l),
(404,875,l),
(224,962,l),
(196,921,l),
(383,770,l),
(403,770,l)
);
}
);
};
layerId = "6B2A2AD0-3CEC-4B3D-96BE-6A11A3496094";
shapes = (
{
ref = D;
},
{
pos = (151,0);
ref = caroncomb.case;
}
);
width = 755;
}
);
unicode = 270;
},
{
glyphname = Dcroat;
kernLeft = I;
kernRight = D;
layers = (
{
background = {
shapes = (
{
closed = 1;
nodes = (
(299,0,ls),
(564,0,o),
(695,181,o),
(695,376,cs),
(695,599,o),
(541,702,o),
(309,701,cs),
(77,700,l),
(74,656,l),
(99,657,o),
(123,659,o),
(148,660,c),
(145,640,o),
(143,615,o),
(141,588,cs),
(129,378,l),
(26,378,l),
(24,328,l),
(127,329,l),
(117,156,ls),
(114,85,o),
(117,36,o),
(42,33,c),
(40,0,l)
);
},
{
closed = 1;
nodes = (
(265,38,o),
(235,38,o),
(191,40,c),
(194,57,o),
(196,82,o),
(198,118,cs),
(209,330,l),
(340,332,l),
(342,378,l),
(212,378,l),
(221,551,ls),
(225,629,o),
(227,664,o),
(303,664,cs),
(507,664,o),
(602,552,o),
(602,380,cs),
(602,188,o),
(479,38,o),
(298,38,cs)
);
}
);
};
layerId = UUID0;
shapes = (
{
ref = Eth;
}
);
width = 738;
},
{
background = {
shapes = (
{
closed = 1;
nodes = (
(320,0,ls),
(600,0,o),
(715,194,o),
(724,357,cs),
(732,523,o),
(625,702,o),
(362,701,cs),
(73,700,l),
(69,623,l),
(83,624,o),
(123,625,o),
(144,626,c),
(141,609,o),
(137,572,o),
(135,536,cs),
(128,400,l),
(29,400,l),
(24,302,l),
(123,304,l),
(115,153,ls),
(111,72,o),
(84,68,o),
(40,66,c),
(36,0,l)
);
},
{
closed = 1;
nodes = (
(321,73,o),
(269,76,o),
(250,74,c),
(253,91,o),
(256,128,o),
(258,164,c),
(265,307,l),
(367,309,l),
(372,400,l),
(270,400,l),
(278,549,ls),
(282,626,o),
(307,636,o),
(356,634,cs),
(495,630,o),
(578,540,o),
(567,336,cs),
(561,203,o),
(491,73,o),
(345,73,cs)
);
}
);
};
layerId = "6B2A2AD0-3CEC-4B3D-96BE-6A11A3496094";
shapes = (
{
ref = Eth;
}
);
width = 755;
}
);
unicode = 272;
},
{
glyphname = E;
kernLeft = I;
kernRight = E;
layers = (
{
anchors = (
{
name = bottom;
pos = (320,0);
},
{
name = ogonek;
pos = (544,5);
},
{
name = top;
pos = (363,702);
},
{
name = topleft;
pos = (33,700);
}
);
background = {
anchors = (
{
name = bottom;
pos = (320,0);
},
{
name = ogonek;
pos = (544,5);
},
{
name = top;
pos = (363,702);
},
{
name = topleft;
pos = (33,700);
}
);
shapes = (
{
closed = 1;
nodes = (
(78,700,l),
(76,656,l),
(100,657,o),
(125,659,o),
(149,660,c),
(146,640,o),
(143,615,o),
(142,588,cs),
(118,156,ls),
(114,85,o),
(118,36,o),
(43,33,c),
(41,0,l),
(553,0,l),
(569,195,l),
(535,195,l),
(529,76,o),
(470,41,o),
(383,40,cs),
(192,37,l),
(195,54,o),
(197,79,o),
(199,115,cs),
(211,344,l),
(284,347,ls),
(370,351,o),
(403,347,o),
(399,259,c),
(432,259,l),
(443,477,l),
(410,477,l),
(406,389,o),
(369,382,o),
(285,383,cs),
(213,384,l),
(222,544,ls),
(227,625,o),
(229,661,o),
(304,663,cs),
(390,665,ls),
(465,667,o),
(524,643,o),
(518,525,c),
(551,525,l),
(555,700,l)
);
}
);
};
layerId = UUID0;
shapes = (
{
closed = 1;
nodes = (
(78,700,l),
(76,656,l),
(100,657,o),
(125,659,o),
(149,660,c),
(146,640,o),
(143,615,o),
(142,588,cs),
(118,156,ls),
(114,85,o),
(118,36,o),
(43,33,c),
(41,0,l),
(553,0,l),
(569,195,l),
(535,195,l),
(529,76,o),
(470,41,o),
(383,40,cs),
(192,37,l),
(195,54,o),
(197,79,o),
(199,115,cs),
(211,344,l),
(284,347,ls),
(370,351,o),
(403,347,o),
(399,259,c),
(432,259,l),
(443,477,l),
(410,477,l),
(406,389,o),
(369,382,o),
(285,383,cs),
(213,384,l),
(222,544,ls),
(227,625,o),
(229,661,o),
(304,663,cs),
(390,665,ls),
(465,667,o),
(524,643,o),
(518,525,c),
(551,525,l),
(555,700,l)
);
}
);
width = 619;
},
{
anchors = (
{
name = bottom;
pos = (334,0);
},
{
name = ogonek;
pos = (561,5);
},
{
name = top;
pos = (343,700);
},
{
name = topleft;
pos = (33,700);
}
);
background = {
anchors = (
{
name = bottom;
pos = (334,0);
},
{
name = ogonek;
pos = (561,5);
},
{
name = top;
pos = (343,700);
},
{
name = topleft;
pos = (33,700);
}
);
shapes = (
{
closed = 1;
nodes = (
(72,700,l),
(68,623,l),
(82,624,o),
(122,625,o),
(143,626,c),
(140,609,o),
(136,572,o),
(134,536,cs),
(114,153,ls),
(110,72,o),
(83,68,o),
(39,66,c),
(35,0,l),
(561,0,l),
(578,220,l),
(512,220,l),
(506,112,o),
(442,76,o),
(383,76,cs),
(249,76,l),
(252,93,o),
(255,128,o),
(257,164,cs),
(266,328,l),
(292,329,ls),
(346,331,o),
(390,325,o),
(386,241,c),
(452,241,l),
(464,484,l),
(387,484,l),
(387,459,o),
(387,425,o),
(387,397,c),
(270,397,l),
(277,547,ls),
(281,625,o),
(307,633,o),
(349,634,cs),
(385,635,ls),
(439,637,o),
(505,615,o),
(500,506,c),
(565,506,l),
(570,700,l)
);
}
);
};
layerId = "6B2A2AD0-3CEC-4B3D-96BE-6A11A3496094";
shapes = (
{
closed = 1;
nodes = (
(72,700,l),
(68,623,l),
(82,624,o),
(122,625,o),
(143,626,c),
(140,609,o),
(136,572,o),
(134,536,cs),
(114,153,ls),
(110,72,o),
(83,68,o),
(39,66,c),
(35,0,l),
(561,0,l),
(578,220,l),
(512,220,l),
(506,112,o),
(442,76,o),
(383,76,cs),
(249,76,l),
(252,93,o),
(255,128,o),
(257,164,cs),
(266,328,l),
(292,329,ls),
(346,331,o),
(390,325,o),
(386,241,c),
(452,241,l),
(464,484,l),
(387,484,l),
(387,459,o),
(387,425,o),
(387,397,c),
(270,397,l),
(277,547,ls),
(281,625,o),
(307,633,o),
(349,634,cs),
(385,635,ls),
(439,637,o),
(505,615,o),
(500,506,c),
(565,506,l),
(570,700,l)
);
}
);
width = 623;
}
);
unicode = 69;
},
{
glyphname = Eacute;
kernLeft = I;
kernRight = E;
layers = (
{
background = {
anchors = (
{
name = bottom;
pos = (320,0);
},
{
name = ogonek;
pos = (544,5);
},
{
name = top;
pos = (363,702);
},
{
name = topleft;
pos = (33,700);
}
);
shapes = (
{
closed = 1;
nodes = (
(78,700,l),
(76,656,l),
(100,657,o),
(125,659,o),
(149,660,c),
(146,640,o),
(143,615,o),
(142,588,cs),
(118,156,ls),
(114,85,o),
(118,36,o),
(43,33,c),
(41,0,l),
(553,0,l),
(569,195,l),
(535,195,l),
(529,76,o),
(470,41,o),
(383,40,cs),
(192,37,l),
(195,54,o),
(197,79,o),
(199,115,cs),
(211,344,l),
(284,347,ls),
(370,351,o),
(403,347,o),
(399,259,c),
(432,259,l),
(443,477,l),
(410,477,l),
(406,389,o),
(369,382,o),
(285,383,cs),
(213,384,l),
(222,544,ls),
(227,625,o),
(229,661,o),
(304,663,cs),
(390,665,ls),
(465,667,o),
(524,643,o),
(518,525,c),
(551,525,l),
(555,700,l)
);
},
{
closed = 1;
nodes = (
(492,855,ls),
(536,883,o),
(524,909,o),
(517,917,cs),
(512,923,o),
(490,943,o),
(452,908,cs),
(325,790,l),
(346,762,l)
);
}
);
};
layerId = UUID0;
shapes = (
{
ref = E;
},
{
pos = (280,2);
ref = acutecomb.case;
}
);
width = 619;
},
{
background = {
anchors = (
{
name = bottom;
pos = (334,0);
},
{
name = ogonek;
pos = (561,5);
},
{
name = top;
pos = (343,700);
},
{
name = topleft;
pos = (33,700);
}
);
shapes = (
{
closed = 1;
nodes = (
(72,700,l),
(68,623,l),
(82,624,o),
(122,625,o),
(143,626,c),
(140,609,o),
(136,572,o),
(134,536,cs),
(114,153,ls),
(110,72,o),
(83,68,o),
(39,66,c),
(35,0,l),
(561,0,l),
(578,220,l),
(512,220,l),
(506,112,o),
(442,76,o),
(383,76,cs),
(249,76,l),
(252,93,o),
(255,128,o),
(257,164,cs),
(266,328,l),
(292,329,ls),
(346,331,o),
(390,325,o),
(386,241,c),
(452,241,l),
(464,484,l),
(387,484,l),
(387,459,o),
(387,425,o),
(387,397,c),
(270,397,l),
(277,547,ls),
(281,625,o),
(307,633,o),
(349,634,cs),
(385,635,ls),
(439,637,o),
(505,615,o),
(500,506,c),
(565,506,l),
(570,700,l)
);
},
{
closed = 1;
nodes = (
(462,854,l),
(495,873,o),
(520,909,o),
(497,943,cs),
(475,976,o),
(429,964,o),
(400,936,cs),
(278,818,l),
(312,770,l)
);
}
);
};
layerId = "6B2A2AD0-3CEC-4B3D-96BE-6A11A3496094";
shapes = (
{
ref = E;
},
{
pos = (233,0);
ref = acutecomb.case;
}
);
width = 623;
}
);
unicode = 201;
},
{
glyphname = Ebreve;
layers = (
{
background = {
anchors = (
{
name = bottom;
pos = (320,0);
},
{
name = ogonek;
pos = (544,5);
},
{
name = top;
pos = (363,702);
},
{
name = topleft;
pos = (33,700);
}
);
shapes = (
{
closed = 1;
nodes = (
(78,700,l),
(76,656,l),
(100,657,o),
(125,659,o),
(149,660,c),
(146,640,o),
(143,615,o),
(142,588,cs),
(118,156,ls),
(114,85,o),
(118,36,o),
(43,33,c),
(41,0,l),
(553,0,l),
(569,195,l),
(535,195,l),
(529,76,o),
(470,41,o),
(383,40,cs),
(192,37,l),
(195,54,o),
(197,79,o),
(199,115,cs),
(211,344,l),
(284,347,ls),
(370,351,o),
(403,347,o),
(399,259,c),
(432,259,l),
(443,477,l),
(410,477,l),
(406,389,o),
(369,382,o),
(285,383,cs),
(213,384,l),
(222,544,ls),
(227,625,o),
(229,661,o),
(304,663,cs),
(390,665,ls),
(465,667,o),
(524,643,o),
(518,525,c),
(551,525,l),
(555,700,l)
);
},
{
closed = 1;
nodes = (
(437,811,o),
(494,847,o),
(530,914,c),
(504,926,l),
(481,898,o),
(431,872,o),
(381,872,cs),
(330,872,o),
(283,898,o),
(264,926,c),
(237,914,l),
(263,847,o),
(315,811,o),
(376,811,cs)
);
}
);
};
layerId = UUID0;
shapes = (
{
ref = E;
},
{
pos = (197,2);
ref = brevecomb.case;
}
);
width = 619;
},
{
background = {
anchors = (
{
name = bottom;
pos = (334,0);
},
{
name = ogonek;
pos = (561,5);
},
{
name = top;
pos = (343,700);
},
{
name = topleft;
pos = (33,700);
}
);
shapes = (
{
closed = 1;
nodes = (
(72,700,l),
(68,623,l),
(82,624,o),
(122,625,o),
(143,626,c),
(140,609,o),
(136,572,o),
(134,536,cs),
(114,153,ls),
(110,72,o),
(83,68,o),
(39,66,c),
(35,0,l),
(561,0,l),
(578,220,l),
(512,220,l),
(506,112,o),
(442,76,o),
(383,76,cs),
(249,76,l),
(252,93,o),
(255,128,o),
(257,164,cs),
(266,328,l),
(292,329,ls),
(346,331,o),
(390,325,o),
(386,241,c),
(452,241,l),
(464,484,l),
(387,484,l),
(387,459,o),
(387,425,o),
(387,397,c),
(270,397,l),
(277,547,ls),
(281,625,o),
(307,633,o),
(349,634,cs),
(385,635,ls),
(439,637,o),
(505,615,o),
(500,506,c),
(565,506,l),
(570,700,l)
);
},
{
closed = 1;
nodes = (
(415,787,o),
(493,814,o),
(532,894,c),
(478,934,l),
(450,905,o),
(414,879,o),
(356,879,cs),
(298,879,o),
(265,905,o),
(242,934,c),
(182,894,l),
(210,814,o),
(284,787,o),
(350,787,cs)
);
}
);
};
layerId = "6B2A2AD0-3CEC-4B3D-96BE-6A11A3496094";
shapes = (
{
ref = E;
},
{
pos = (136,0);
ref = brevecomb.case;
}
);
width = 623;
}
);
unicode = 276;
},
{
glyphname = Ecaron;
kernLeft = I;
kernRight = E;
layers = (
{
background = {
anchors = (
{
name = bottom;
pos = (320,0);
},
{
name = ogonek;
pos = (544,5);
},
{
name = top;
pos = (376,947);
},
{
name = topleft;
pos = (33,700);
}
);
shapes = (
{
closed = 1;
nodes = (
(78,700,l),
(76,656,l),
(100,657,o),
(125,659,o),
(149,660,c),
(146,640,o),
(143,615,o),
(142,588,cs),
(118,156,ls),
(114,85,o),
(118,36,o),
(43,33,c),
(41,0,l),
(553,0,l),
(569,195,l),
(535,195,l),
(529,76,o),
(470,41,o),
(383,40,cs),
(192,37,l),
(195,54,o),
(197,79,o),
(199,115,cs),
(211,344,l),
(284,347,ls),
(370,351,o),
(403,347,o),
(399,259,c),
(432,259,l),
(443,477,l),
(410,477,l),
(406,389,o),
(369,382,o),
(285,383,cs),
(213,384,l),
(222,544,ls),
(227,625,o),
(229,661,o),
(304,663,cs),
(390,665,ls),
(465,667,o),
(524,643,o),
(518,525,c),
(551,525,l),
(555,700,l)
);
},
{
closed = 1;
nodes = (
(560,921,l),
(545,947,l),
(368,850,l),
(201,945,l),
(182,916,l),
(365,773,l),
(367,773,l)
);
}
);
};
layerId = UUID0;
shapes = (
{
ref = E;
},
{
pos = (122,2);
ref = caroncomb.case;
}
);
width = 619;
},
{
background = {
anchors = (
{
name = bottom;
pos = (334,0);
},
{
name = ogonek;
pos = (561,5);
},
{
name = top;
pos = (357,962);
},
{
name = topleft;
pos = (33,700);
}
);
shapes = (
{
closed = 1;
nodes = (
(72,700,l),
(68,623,l),
(82,624,o),
(122,625,o),
(143,626,c),
(140,609,o),
(136,572,o),
(134,536,cs),
(114,153,ls),
(110,72,o),
(83,68,o),
(39,66,c),
(35,0,l),
(561,0,l),
(578,220,l),
(512,220,l),
(506,112,o),
(442,76,o),
(383,76,cs),
(249,76,l),
(252,93,o),
(255,128,o),
(257,164,cs),
(266,328,l),
(292,329,ls),
(346,331,o),
(390,325,o),
(386,241,c),
(452,241,l),
(464,484,l),
(387,484,l),
(387,459,o),
(387,425,o),
(387,397,c),
(270,397,l),
(277,547,ls),
(281,625,o),
(307,633,o),
(349,634,cs),
(385,635,ls),
(439,637,o),
(505,615,o),
(500,506,c),
(565,506,l),
(570,700,l)
);
},
{
closed = 1;
nodes = (
(561,922,l),
(541,962,l),
(350,875,l),
(170,962,l),
(142,921,l),
(329,770,l),
(349,770,l)
);
}
);
};
layerId = "6B2A2AD0-3CEC-4B3D-96BE-6A11A3496094";
shapes = (
{
ref = E;
},
{
pos = (97,0);
ref = caroncomb.case;
}
);
width = 623;
}
);
unicode = 282;
},
{
glyphname = Ecircumflex;
kernLeft = I;
kernRight = E;
layers = (
{
background = {
anchors = (
{
name = bottom;
pos = (320,0);
},
{
name = ogonek;
pos = (544,5);
},
{
name = top;
pos = (363,702);
},
{
name = topleft;
pos = (33,700);
}
);
shapes = (
{
closed = 1;
nodes = (
(78,700,l),
(76,656,l),
(100,657,o),
(125,659,o),
(149,660,c),
(146,640,o),
(143,615,o),
(142,588,cs),
(118,156,ls),
(114,85,o),
(118,36,o),
(43,33,c),
(41,0,l),
(553,0,l),
(569,195,l),
(535,195,l),
(529,76,o),
(470,41,o),
(383,40,cs),
(192,37,l),
(195,54,o),
(197,79,o),
(199,115,cs),
(211,344,l),
(284,347,ls),
(370,351,o),
(403,347,o),
(399,259,c),
(432,259,l),
(443,477,l),
(410,477,l),
(406,389,o),
(369,382,o),
(285,383,cs),
(213,384,l),
(222,544,ls),
(227,625,o),
(229,661,o),
(304,663,cs),
(390,665,ls),
(465,667,o),
(524,643,o),
(518,525,c),
(551,525,l),
(555,700,l)
);
},
{
closed = 1;
nodes = (
(560,791,l),
(379,932,l),
(377,932,l),
(181,792,l),
(196,765,l),
(366,852,l),
(542,763,l)
);
}
);
};
layerId = UUID0;
shapes = (
{
ref = E;
},
{
pos = (136,2);
ref = circumflexcomb.case;
}
);
width = 619;
},
{
background = {
anchors = (
{
name = bottom;
pos = (334,0);
},
{
name = ogonek;
pos = (561,5);
},
{
name = top;
pos = (343,700);
},
{
name = topleft;
pos = (33,700);
}
);
shapes = (
{
closed = 1;
nodes = (
(72,700,l),
(68,623,l),
(82,624,o),
(122,625,o),
(143,626,c),
(140,609,o),
(136,572,o),
(134,536,cs),
(114,153,ls),
(110,72,o),
(83,68,o),
(39,66,c),
(35,0,l),
(561,0,l),
(578,220,l),
(512,220,l),
(506,112,o),
(442,76,o),
(383,76,cs),
(249,76,l),
(252,93,o),
(255,128,o),
(257,164,cs),
(266,328,l),
(292,329,ls),
(346,331,o),
(390,325,o),
(386,241,c),
(452,241,l),
(464,484,l),
(387,484,l),
(387,459,o),
(387,425,o),
(387,397,c),
(270,397,l),
(277,547,ls),
(281,625,o),
(307,633,o),
(349,634,cs),
(385,635,ls),
(439,637,o),
(505,615,o),
(500,506,c),
(565,506,l),
(570,700,l)
);
},
{
closed = 1;
nodes = (
(560,821,l),
(372,971,l),
(353,971,l),
(141,821,l),
(160,781,l),
(353,867,l),
(532,779,l)
);
}
);
};
layerId = "6B2A2AD0-3CEC-4B3D-96BE-6A11A3496094";
shapes = (
{
ref = E;
},
{
pos = (111,0);
ref = circumflexcomb.case;
}
);
width = 623;
}
);
unicode = 202;
},
{
glyphname = Ecircumflexacute;
layers = (
{
background = {
anchors = (
{
name = bottom;
pos = (320,0);
},
{
name = ogonek;
pos = (544,5);
},
{
name = top;
pos = (363,702);
},
{
name = topleft;
pos = (33,700);
}
);
shapes = (
{
closed = 1;
nodes = (
(78,700,l),
(76,656,l),
(100,657,o),
(125,659,o),
(149,660,c),
(146,640,o),
(143,615,o),
(142,588,cs),
(118,156,ls),
(114,85,o),
(118,36,o),
(43,33,c),
(41,0,l),
(553,0,l),
(569,195,l),
(535,195,l),
(529,76,o),
(470,41,o),
(383,40,cs),
(192,37,l),
(195,54,o),
(197,79,o),
(199,115,cs),
(211,344,l),
(284,347,ls),
(370,351,o),
(403,347,o),
(399,259,c),
(432,259,l),
(443,477,l),
(410,477,l),
(406,389,o),
(369,382,o),
(285,383,cs),
(213,384,l),
(222,544,ls),
(227,625,o),
(229,661,o),
(304,663,cs),
(390,665,ls),
(465,667,o),
(524,643,o),
(518,525,c),
(551,525,l),
(555,700,l)
);
},
{
closed = 1;
nodes = (
(503,778,l),
(376,878,l),
(374,878,l),
(237,779,l),
(251,754,l),
(367,814,l),
(487,753,l)
);
},
{
closed = 1;
nodes = (
(599,922,ls),
(628,952,o),
(616,972,o),
(610,979,cs),
(605,984,o),
(581,997,o),
(559,959,cs),
(494,850,l),
(514,833,l)
);
}
);
};
layerId = UUID0;
shapes = (
{
ref = E;
},
{
pos = (204,202);
ref = circumflexcomb_acutecomb.case;
}
);
width = 619;
},
{
background = {
anchors = (
{
name = bottom;
pos = (334,0);
},
{
name = ogonek;
pos = (561,5);
},
{
name = top;
pos = (343,700);
},
{
name = topleft;
pos = (33,700);
}
);
shapes = (
{
closed = 1;
nodes = (
(72,700,l),
(68,623,l),
(82,624,o),
(122,625,o),
(143,626,c),
(140,609,o),
(136,572,o),
(134,536,cs),
(114,153,ls),
(110,72,o),
(83,68,o),
(39,66,c),
(35,0,l),
(561,0,l),
(578,220,l),
(512,220,l),
(506,112,o),
(442,76,o),
(383,76,cs),
(249,76,l),
(252,93,o),
(255,128,o),
(257,164,cs),
(266,328,l),
(292,329,ls),
(346,331,o),
(390,325,o),
(386,241,c),
(452,241,l),
(464,484,l),
(387,484,l),
(387,459,o),
(387,425,o),
(387,397,c),
(270,397,l),
(277,547,ls),
(281,625,o),
(307,633,o),
(349,634,cs),
(385,635,ls),
(439,637,o),
(505,615,o),
(500,506,c),
(565,506,l),
(570,700,l)
);
},
{
closed = 1;
nodes = (
(500,812,l),
(356,913,l),
(343,913,l),
(184,807,l),
(212,761,l),
(343,820,l),
(465,760,l)
);
},
{
closed = 1;
nodes = (
(599,967,ls),
(622,986,o),
(635,1025,o),
(609,1048,cs),
(585,1070,o),
(549,1057,o),
(531,1028,cs),
(457,913,l),
(494,879,l)
);
}
);
};
layerId = "6B2A2AD0-3CEC-4B3D-96BE-6A11A3496094";
shapes = (
{
ref = E;
},
{
pos = (172,203);
ref = circumflexcomb_acutecomb.case;
}
);
width = 623;
}
);
unicode = 7870;
},
{
glyphname = Ecircumflexdotbelow;
layers = (
{
background = {
anchors = (
{
name = bottom;
pos = (309,-187);
},
{
name = ogonek;
pos = (544,5);
},
{
name = top;
pos = (363,702);
},
{
name = topleft;
pos = (33,700);
}
);
shapes = (
{
closed = 1;
nodes = (
(78,700,l),
(76,656,l),
(100,657,o),
(125,659,o),
(149,660,c),
(146,640,o),
(143,615,o),
(142,588,cs),
(118,156,ls),
(114,85,o),
(118,36,o),
(43,33,c),
(41,0,l),
(553,0,l),
(569,195,l),
(535,195,l),
(529,76,o),
(470,41,o),
(383,40,cs),
(192,37,l),
(195,54,o),
(197,79,o),
(199,115,cs),
(211,344,l),
(284,347,ls),
(370,351,o),
(403,347,o),
(399,259,c),
(432,259,l),
(443,477,l),
(410,477,l),
(406,389,o),
(369,382,o),
(285,383,cs),
(213,384,l),
(222,544,ls),
(227,625,o),
(229,661,o),
(304,663,cs),
(390,665,ls),
(465,667,o),
(524,643,o),
(518,525,c),
(551,525,l),
(555,700,l)
);
},
{
closed = 1;
nodes = (
(291,-82,o),
(267,-105,o),
(266,-134,cs),
(265,-164,o),
(285,-186,o),
(310,-186,cs),
(335,-186,o),
(359,-164,o),
(360,-134,cs),
(361,-105,o),
(343,-82,o),
(317,-82,cs)
);
},
{
closed = 1;
nodes = (
(560,791,l),
(379,932,l),
(377,932,l),
(181,792,l),
(196,765,l),
(366,852,l),
(542,763,l)
);
}
);
};
layerId = UUID0;
shapes = (
{
ref = E;
},
{
pos = (221,0);
ref = dotbelowcomb;
},
{
pos = (136,2);
ref = circumflexcomb.case;
}
);
width = 619;
},
{
background = {
anchors = (
{
name = bottom;
pos = (324,-198);
},
{
name = ogonek;
pos = (561,5);
},
{
name = top;
pos = (343,700);
},
{
name = topleft;
pos = (33,700);
}
);
shapes = (
{
closed = 1;
nodes = (
(72,700,l),
(68,623,l),
(82,624,o),
(122,625,o),
(143,626,c),
(140,609,o),
(136,572,o),
(134,536,cs),
(114,153,ls),
(110,72,o),
(83,68,o),
(39,66,c),
(35,0,l),
(561,0,l),
(578,220,l),
(512,220,l),
(506,112,o),
(442,76,o),
(383,76,cs),
(249,76,l),
(252,93,o),
(255,128,o),
(257,164,cs),
(266,328,l),
(292,329,ls),
(346,331,o),
(390,325,o),
(386,241,c),
(452,241,l),
(464,484,l),
(387,484,l),
(387,459,o),
(387,425,o),
(387,397,c),
(270,397,l),
(277,547,ls),
(281,625,o),
(307,633,o),
(349,634,cs),
(385,635,ls),
(439,637,o),
(505,615,o),
(500,506,c),
(565,506,l),
(570,700,l)
);
},
{
closed = 1;
nodes = (
(299,-69,o),
(269,-98,o),
(267,-134,cs),
(265,-169,o),
(289,-198,o),
(325,-198,cs),
(361,-198,o),
(385,-169,o),
(387,-134,cs),
(389,-98,o),
(365,-69,o),
(331,-69,cs)
);
},
{
closed = 1;
nodes = (
(560,821,l),
(372,971,l),
(353,971,l),
(141,821,l),
(160,781,l),
(353,867,l),
(532,779,l)
);
}
);
};
layerId = "6B2A2AD0-3CEC-4B3D-96BE-6A11A3496094";
shapes = (
{
ref = E;
},
{
pos = (235,0);
ref = dotbelowcomb;
},
{
pos = (111,0);
ref = circumflexcomb.case;
}
);
width = 623;
}
);
unicode = 7878;
},
{
glyphname = Ecircumflexgrave;
layers = (
{
background = {
anchors = (
{
name = bottom;
pos = (320,0);
},
{
name = ogonek;
pos = (544,5);
},
{
name = top;
pos = (363,702);
},
{
name = topleft;
pos = (33,700);
}
);
shapes = (
{
closed = 1;
nodes = (
(78,700,l),
(76,656,l),
(100,657,o),
(125,659,o),
(149,660,c),
(146,640,o),
(143,615,o),
(142,588,cs),
(118,156,ls),
(114,85,o),
(118,36,o),
(43,33,c),
(41,0,l),
(553,0,l),
(569,195,l),
(535,195,l),
(529,76,o),
(470,41,o),
(383,40,cs),
(192,37,l),
(195,54,o),
(197,79,o),
(199,115,cs),
(211,344,l),
(284,347,ls),
(370,351,o),
(403,347,o),
(399,259,c),
(432,259,l),
(443,477,l),
(410,477,l),
(406,389,o),
(369,382,o),
(285,383,cs),
(213,384,l),
(222,544,ls),
(227,625,o),
(229,661,o),
(304,663,cs),
(390,665,ls),
(465,667,o),
(524,643,o),
(518,525,c),
(551,525,l),
(555,700,l)
);
},
{
closed = 1;
nodes = (
(503,778,l),
(376,878,l),
(374,878,l),
(237,779,l),
(251,754,l),
(367,814,l),
(487,753,l)
);
},
{
closed = 1;
nodes = (
(500,881,l),
(429,1001,ls),
(405,1042,o),
(378,1028,o),
(373,1022,cs),
(366,1015,o),
(353,993,o),
(385,960,cs),
(478,862,l)
);
}
);
};
layerId = UUID0;
shapes = (
{
ref = E;
},
{
pos = (112,190);
ref = circumflexcomb_gravecomb.case;
}
);
width = 619;
},
{
background = {
anchors = (
{
name = bottom;
pos = (334,0);
},
{
name = ogonek;
pos = (561,5);
},
{
name = top;
pos = (343,700);
},
{
name = topleft;
pos = (33,700);
}
);
shapes = (
{
closed = 1;
nodes = (
(72,700,l),
(68,623,l),
(82,624,o),
(122,625,o),
(143,626,c),
(140,609,o),
(136,572,o),
(134,536,cs),
(114,153,ls),
(110,72,o),
(83,68,o),
(39,66,c),
(35,0,l),
(561,0,l),
(578,220,l),
(512,220,l),
(506,112,o),
(442,76,o),
(383,76,cs),
(249,76,l),
(252,93,o),
(255,128,o),
(257,164,cs),
(266,328,l),
(292,329,ls),
(346,331,o),
(390,325,o),
(386,241,c),
(452,241,l),
(464,484,l),
(387,484,l),
(387,459,o),
(387,425,o),
(387,397,c),
(270,397,l),
(277,547,ls),
(281,625,o),
(307,633,o),
(349,634,cs),
(385,635,ls),
(439,637,o),
(505,615,o),
(500,506,c),
(565,506,l),
(570,700,l)
);
},
{
closed = 1;
nodes = (
(500,812,l),
(356,913,l),
(343,913,l),
(184,807,l),
(212,761,l),
(343,820,l),
(465,760,l)
);
},
{
closed = 1;
nodes = (
(501,922,l),
(436,1037,ls),
(421,1065,o),
(390,1078,o),
(362,1057,cs),
(335,1033,o),
(346,998,o),
(367,976,cs),
(461,888,l)
);
}
);
};
layerId = "6B2A2AD0-3CEC-4B3D-96BE-6A11A3496094";
shapes = (
{
ref = E;
},
{
pos = (111,200);
ref = circumflexcomb_gravecomb.case;
}
);
width = 623;
}
);
unicode = 7872;
},
{
glyphname = Ecircumflexhookabove;
layers = (
{
background = {
anchors = (
{
name = bottom;
pos = (320,0);
},
{
name = ogonek;
pos = (544,5);
},
{
name = top;
pos = (363,702);
},
{
name = topleft;
pos = (33,700);
}
);
shapes = (
{
closed = 1;
nodes = (
(78,700,l),
(76,656,l),
(100,657,o),
(125,659,o),
(149,660,c),
(146,640,o),
(143,615,o),
(142,588,cs),
(118,156,ls),
(114,85,o),
(118,36,o),
(43,33,c),
(41,0,l),
(553,0,l),
(569,195,l),
(535,195,l),
(529,76,o),
(470,41,o),
(383,40,cs),
(192,37,l),
(195,54,o),
(197,79,o),
(199,115,cs),
(211,344,l),
(284,347,ls),
(370,351,o),
(403,347,o),
(399,259,c),
(432,259,l),
(443,477,l),
(410,477,l),
(406,389,o),
(369,382,o),
(285,383,cs),
(213,384,l),
(222,544,ls),
(227,625,o),
(229,661,o),
(304,663,cs),
(390,665,ls),
(465,667,o),
(524,643,o),
(518,525,c),
(551,525,l),
(555,700,l)
);
},
{
closed = 1;
nodes = (
(503,778,l),
(376,878,l),
(374,878,l),
(237,779,l),
(251,754,l),
(367,814,l),
(487,753,l)
);
},
{
closed = 1;
nodes = (
(489,857,l),
(490,868,o),
(504,877,o),
(521,889,cs),
(546,907,o),
(564,924,o),
(566,958,cs),
(568,998,o),
(531,1039,o),
(461,1039,cs),
(394,1039,o),
(356,1003,o),
(353,969,cs),
(351,942,o),
(368,931,o),
(384,931,cs),
(400,931,o),
(416,941,o),
(416,957,cs),
(416,963,o),
(414,969,o),
(411,973,c),
(414,987,o),
(436,1003,o),
(460,1003,cs),
(493,1003,o),
(512,978,o),
(510,951,cs),
(509,937,o),
(502,921,o),
(489,910,cs),
(471,895,o),
(449,881,o),
(448,857,c)
);
}
);
};
layerId = UUID0;
shapes = (
{
ref = E;
},
{
pos = (214,190);
ref = circumflexcomb_hookabovecomb.case;
}
);
width = 619;
},
{
background = {
anchors = (
{
name = bottom;
pos = (334,0);
},
{
name = ogonek;
pos = (561,5);
},
{
name = top;
pos = (343,700);
},
{
name = topleft;
pos = (33,700);
}
);
shapes = (
{
closed = 1;
nodes = (
(72,700,l),
(68,623,l),
(82,624,o),
(122,625,o),
(143,626,c),
(140,609,o),
(136,572,o),
(134,536,cs),
(114,153,ls),
(110,72,o),
(83,68,o),
(39,66,c),
(35,0,l),
(561,0,l),
(578,220,l),
(512,220,l),
(506,112,o),
(442,76,o),
(383,76,cs),
(249,76,l),
(252,93,o),
(255,128,o),
(257,164,cs),
(266,328,l),
(292,329,ls),
(346,331,o),
(390,325,o),
(386,241,c),
(452,241,l),
(464,484,l),
(387,484,l),
(387,459,o),
(387,425,o),
(387,397,c),
(270,397,l),
(277,547,ls),
(281,625,o),
(307,633,o),
(349,634,cs),
(385,635,ls),
(439,637,o),
(505,615,o),
(500,506,c),
(565,506,l),
(570,700,l)
);
},
{
closed = 1;
nodes = (
(500,812,l),
(356,913,l),
(343,913,l),
(184,807,l),
(212,761,l),
(343,820,l),
(465,760,l)
);
},
{
closed = 1;
nodes = (
(522,875,l),
(522,886,o),
(534,899,o),
(550,911,cs),
(569,926,o),
(590,940,o),
(592,974,cs),
(595,1027,o),
(554,1061,o),
(479,1061,cs),
(412,1061,o),
(372,1015,o),
(369,973,cs),
(367,946,o),
(387,925,o),
(416,925,cs),
(438,925,o),
(449,940,o),
(450,954,cs),
(451,967,o),
(442,979,o),
(423,979,c),
(425,988,o),
(440,1005,o),
(476,1005,cs),
(503,1005,o),
(523,992,o),
(521,965,cs),
(520,949,o),
(512,938,o),
(504,928,cs),
(489,910,o),
(465,901,o),
(464,875,c)
);
}
);
};
layerId = "6B2A2AD0-3CEC-4B3D-96BE-6A11A3496094";
shapes = (
{
ref = E;
},
{
pos = (177,200);
ref = circumflexcomb_hookabovecomb.case;
}
);
width = 623;
}
);
unicode = 7874;
},
{
glyphname = Ecircumflextilde;
layers = (
{
background = {
anchors = (
{
name = bottom;
pos = (320,0);
},
{
name = ogonek;
pos = (544,5);
},
{
name = top;
pos = (363,702);
},
{
name = topleft;
pos = (33,700);
}
);
shapes = (
{
closed = 1;
nodes = (
(78,700,l),
(76,656,l),
(100,657,o),
(125,659,o),
(149,660,c),
(146,640,o),
(143,615,o),
(142,588,cs),
(118,156,ls),
(114,85,o),
(118,36,o),
(43,33,c),
(41,0,l),
(553,0,l),
(569,195,l),
(535,195,l),
(529,76,o),
(470,41,o),
(383,40,cs),
(192,37,l),
(195,54,o),
(197,79,o),
(199,115,cs),
(211,344,l),
(284,347,ls),
(370,351,o),
(403,347,o),
(399,259,c),
(432,259,l),
(443,477,l),
(410,477,l),
(406,389,o),
(369,382,o),
(285,383,cs),
(213,384,l),
(222,544,ls),
(227,625,o),
(229,661,o),
(304,663,cs),
(390,665,ls),
(465,667,o),
(524,643,o),
(518,525,c),
(551,525,l),
(555,700,l)
);
},
{
closed = 1;
nodes = (
(503,778,l),
(376,878,l),
(374,878,l),
(237,779,l),
(251,754,l),
(367,814,l),
(487,753,l)
);
},
{
closed = 1;
nodes = (
(277,917,o),
(302,931,o),
(321,931,cs),
(360,931,o),
(380,887,o),
(431,887,cs),
(460,887,o),
(496,908,o),
(516,962,c),
(496,972,l),
(478,945,o),
(459,929,o),
(434,930,cs),
(397,931,o),
(380,974,o),
(328,973,cs),
(297,972,o),
(256,943,o),
(240,904,c),
(261,894,l)
);
}
);
};
layerId = UUID0;
shapes = (
{
ref = E;
},
{
pos = (205,190);
ref = circumflexcomb_tildecomb.case;
}
);
width = 619;
},
{
background = {
anchors = (
{
name = bottom;
pos = (334,0);
},
{
name = ogonek;
pos = (561,5);
},
{
name = top;
pos = (343,700);
},
{
name = topleft;
pos = (33,700);
}
);
shapes = (
{
closed = 1;
nodes = (
(72,700,l),
(68,623,l),
(82,624,o),
(122,625,o),
(143,626,c),
(140,609,o),
(136,572,o),
(134,536,cs),
(114,153,ls),
(110,72,o),
(83,68,o),
(39,66,c),
(35,0,l),
(561,0,l),
(578,220,l),
(512,220,l),
(506,112,o),
(442,76,o),
(383,76,cs),
(249,76,l),
(252,93,o),
(255,128,o),
(257,164,cs),
(266,328,l),
(292,329,ls),
(346,331,o),
(390,325,o),
(386,241,c),
(452,241,l),
(464,484,l),
(387,484,l),
(387,459,o),
(387,425,o),
(387,397,c),
(270,397,l),
(277,547,ls),
(281,625,o),
(307,633,o),
(349,634,cs),
(385,635,ls),
(439,637,o),
(505,615,o),
(500,506,c),
(565,506,l),
(570,700,l)
);
},
{
closed = 1;
nodes = (
(500,812,l),
(356,913,l),
(343,913,l),
(184,807,l),
(212,761,l),
(343,820,l),
(465,760,l)
);
},
{
closed = 1;
nodes = (
(275,939,o),
(298,947,o),
(311,947,cs),
(343,947,o),
(366,915,o),
(410,915,cs),
(443,915,o),
(484,940,o),
(507,1009,c),
(463,1033,l),
(449,1007,o),
(430,990,o),
(410,990,cs),
(370,990,o),
(360,1022,o),
(309,1022,cs),
(273,1022,o),
(232,990,o),
(214,941,c),
(258,913,l)
);
}
);
};
layerId = "6B2A2AD0-3CEC-4B3D-96BE-6A11A3496094";
shapes = (
{
ref = E;
},
{
pos = (173,200);
ref = circumflexcomb_tildecomb.case;
}
);
width = 623;
}
);
unicode = 7876;
},
{
glyphname = Edieresis;
kernLeft = I;
kernRight = E;
layers = (
{
background = {
anchors = (
{
name = bottom;
pos = (320,0);
},
{
name = ogonek;
pos = (544,5);
},
{
name = top;
pos = (373,899);
},
{
name = topleft;
pos = (33,700);
}
);
shapes = (
{
closed = 1;
nodes = (
(78,700,l),
(76,656,l),
(100,657,o),
(125,659,o),
(149,660,c),
(146,640,o),
(143,615,o),
(142,588,cs),
(118,156,ls),
(114,85,o),
(118,36,o),
(43,33,c),
(41,0,l),
(553,0,l),
(569,195,l),
(535,195,l),
(529,76,o),
(470,41,o),
(383,40,cs),
(192,37,l),
(195,54,o),
(197,79,o),
(199,115,cs),
(211,344,l),
(284,347,ls),
(370,351,o),
(403,347,o),
(399,259,c),
(432,259,l),
(443,477,l),
(410,477,l),
(406,389,o),
(369,382,o),
(285,383,cs),
(213,384,l),
(222,544,ls),
(227,625,o),
(229,661,o),
(304,663,cs),
(390,665,ls),
(465,667,o),
(524,643,o),
(518,525,c),
(551,525,l),
(555,700,l)
);
},
{
closed = 1;
nodes = (
(312,780,o),
(337,806,o),
(338,839,cs),
(340,873,o),
(321,899,o),
(294,899,cs),
(266,899,o),
(241,873,o),
(240,839,cs),
(239,806,o),
(259,780,o),
(287,780,cs)
);
},
{
closed = 1;
nodes = (
(474,780,o),
(499,806,o),
(500,839,cs),
(501,873,o),
(483,899,o),
(455,899,cs),
(428,899,o),
(403,873,o),
(402,839,cs),
(401,806,o),
(421,780,o),
(448,780,cs)
);
}
);
};
layerId = UUID0;
shapes = (
{
ref = E;
},
{
pos = (194,2);
ref = dieresiscomb.case;
}
);
width = 619;
},
{
background = {
anchors = (
{
name = bottom;
pos = (334,0);
},
{
name = ogonek;
pos = (561,5);
},
{
name = top;
pos = (356,949);
},
{
name = topleft;
pos = (33,700);
}
);
shapes = (
{
closed = 1;
nodes = (
(72,700,l),
(68,623,l),
(82,624,o),
(122,625,o),
(143,626,c),
(140,609,o),
(136,572,o),
(134,536,cs),
(114,153,ls),
(110,72,o),
(83,68,o),
(39,66,c),
(35,0,l),
(561,0,l),
(578,220,l),
(512,220,l),
(506,112,o),
(442,76,o),
(383,76,cs),
(249,76,l),
(252,93,o),
(255,128,o),
(257,164,cs),
(266,328,l),
(292,329,ls),
(346,331,o),
(390,325,o),
(386,241,c),
(452,241,l),
(464,484,l),
(387,484,l),
(387,459,o),
(387,425,o),
(387,397,c),
(270,397,l),
(277,547,ls),
(281,625,o),
(307,633,o),
(349,634,cs),
(385,635,ls),
(439,637,o),
(505,615,o),
(500,506,c),
(565,506,l),
(570,700,l)
);
},
{
closed = 1;
nodes = (
(300,797,o),
(330,835,o),
(330,878,cs),
(330,917,o),
(306,949,o),
(271,949,cs),
(234,949,o),
(201,912,o),
(201,868,cs),
(201,828,o),
(227,797,o),
(261,797,cs)
);
},
{
closed = 1;
nodes = (
(474,797,o),
(504,834,o),
(504,878,cs),
(504,917,o),
(481,949,o),
(445,949,cs),
(408,949,o),
(376,912,o),
(376,868,cs),
(376,828,o),
(401,797,o),
(436,797,cs)
);
}
);
};
layerId = "6B2A2AD0-3CEC-4B3D-96BE-6A11A3496094";
shapes = (
{
ref = E;
},
{
pos = (156,0);
ref = dieresiscomb.case;
}
);
width = 623;
}
);
unicode = 203;
},
{
glyphname = Edotaccent;
kernLeft = I;
kernRight = E;
layers = (
{
background = {
anchors = (
{
name = bottom;
pos = (320,0);
},
{
name = ogonek;
pos = (544,5);
},
{
name = top;
pos = (363,702);
},
{
name = topleft;
pos = (33,700);
}
);
shapes = (
{
closed = 1;
nodes = (
(78,700,l),
(76,656,l),
(100,657,o),
(125,659,o),
(149,660,c),
(146,640,o),
(143,615,o),
(142,588,cs),
(118,156,ls),
(114,85,o),
(118,36,o),
(43,33,c),
(41,0,l),
(553,0,l),
(569,195,l),
(535,195,l),
(529,76,o),
(470,41,o),
(383,40,cs),
(192,37,l),
(195,54,o),
(197,79,o),
(199,115,cs),
(211,344,l),
(284,347,ls),
(370,351,o),
(403,347,o),
(399,259,c),
(432,259,l),
(443,477,l),
(410,477,l),
(406,389,o),
(369,382,o),
(285,383,cs),
(213,384,l),
(222,544,ls),
(227,625,o),
(229,661,o),
(304,663,cs),
(390,665,ls),
(465,667,o),
(524,643,o),
(518,525,c),
(551,525,l),
(555,700,l)
);
},
{
closed = 1;
nodes = (
(347,915,o),
(321,890,o),
(319,857,cs),
(318,824,o),
(340,799,o),
(369,799,cs),
(396,799,o),
(423,824,o),
(424,857,cs),
(426,890,o),
(405,915,o),
(376,915,cs)
);
}
);
};
layerId = UUID0;
shapes = (
{
ref = E;
},
{
pos = (272,190);
ref = dotaccentcomb;
}
);
width = 619;
},
{
background = {
anchors = (
{
name = bottom;
pos = (334,0);
},
{
name = ogonek;
pos = (561,5);
},
{
name = top;
pos = (343,700);
},
{
name = topleft;
pos = (33,700);
}
);
shapes = (
{
closed = 1;
nodes = (
(72,700,l),
(68,623,l),
(82,624,o),
(122,625,o),
(143,626,c),
(140,609,o),
(136,572,o),
(134,536,cs),
(114,153,ls),
(110,72,o),
(83,68,o),
(39,66,c),
(35,0,l),
(561,0,l),
(578,220,l),
(512,220,l),
(506,112,o),
(442,76,o),
(383,76,cs),
(249,76,l),
(252,93,o),
(255,128,o),
(257,164,cs),
(266,328,l),
(292,329,ls),
(346,331,o),
(390,325,o),
(386,241,c),
(452,241,l),
(464,484,l),
(387,484,l),
(387,459,o),
(387,425,o),
(387,397,c),
(270,397,l),
(277,547,ls),
(281,625,o),
(307,633,o),
(349,634,cs),
(385,635,ls),
(439,637,o),
(505,615,o),
(500,506,c),
(565,506,l),
(570,700,l)
);
},
{
closed = 1;
nodes = (
(312,953,o),
(279,921,o),
(277,881,cs),
(275,842,o),
(301,809,o),
(341,809,cs),
(381,809,o),
(409,842,o),
(411,881,cs),
(413,921,o),
(386,953,o),
(348,953,cs)
);
}
);
};
layerId = "6B2A2AD0-3CEC-4B3D-96BE-6A11A3496094";
shapes = (
{
ref = E;
},
{
pos = (230,200);
ref = dotaccentcomb;
}
);
width = 623;
}
);
unicode = 278;
},
{
glyphname = Edotbelow;
layers = (
{
background = {
anchors = (
{
name = bottom;
pos = (309,-187);
},
{
name = ogonek;
pos = (544,5);
},
{
name = top;
pos = (363,702);
},
{
name = topleft;
pos = (33,700);
}
);
shapes = (
{
closed = 1;
nodes = (
(78,700,l),
(76,656,l),
(100,657,o),
(125,659,o),
(149,660,c),
(146,640,o),
(143,615,o),
(142,588,cs),
(118,156,ls),
(114,85,o),
(118,36,o),
(43,33,c),
(41,0,l),
(553,0,l),
(569,195,l),
(535,195,l),
(529,76,o),
(470,41,o),
(383,40,cs),
(192,37,l),
(195,54,o),
(197,79,o),
(199,115,cs),
(211,344,l),
(284,347,ls),
(370,351,o),
(403,347,o),
(399,259,c),
(432,259,l),
(443,477,l),
(410,477,l),
(406,389,o),
(369,382,o),
(285,383,cs),
(213,384,l),
(222,544,ls),
(227,625,o),
(229,661,o),
(304,663,cs),
(390,665,ls),
(465,667,o),
(524,643,o),
(518,525,c),
(551,525,l),
(555,700,l)
);
},
{
closed = 1;
nodes = (
(291,-82,o),
(267,-105,o),
(266,-134,cs),
(265,-164,o),
(285,-186,o),
(310,-186,cs),
(335,-186,o),
(359,-164,o),
(360,-134,cs),
(361,-105,o),
(343,-82,o),
(317,-82,cs)
);
}
);
};
layerId = UUID0;
shapes = (
{
ref = E;
},
{
pos = (221,0);
ref = dotbelowcomb;
}
);
width = 619;
},
{
background = {
anchors = (
{
name = bottom;
pos = (324,-198);
},
{
name = ogonek;
pos = (561,5);
},
{
name = top;
pos = (343,700);
},
{
name = topleft;
pos = (33,700);
}
);
shapes = (
{
closed = 1;
nodes = (
(72,700,l),
(68,623,l),
(82,624,o),
(122,625,o),
(143,626,c),
(140,609,o),
(136,572,o),
(134,536,cs),
(114,153,ls),
(110,72,o),
(83,68,o),
(39,66,c),
(35,0,l),
(561,0,l),
(578,220,l),
(512,220,l),
(506,112,o),
(442,76,o),
(383,76,cs),
(249,76,l),
(252,93,o),
(255,128,o),
(257,164,cs),
(266,328,l),
(292,329,ls),
(346,331,o),
(390,325,o),
(386,241,c),
(452,241,l),
(464,484,l),
(387,484,l),
(387,459,o),
(387,425,o),
(387,397,c),
(270,397,l),
(277,547,ls),
(281,625,o),
(307,633,o),
(349,634,cs),
(385,635,ls),
(439,637,o),
(505,615,o),
(500,506,c),
(565,506,l),
(570,700,l)
);
},
{
closed = 1;
nodes = (
(299,-69,o),
(269,-98,o),
(267,-134,cs),
(265,-169,o),
(289,-198,o),
(325,-198,cs),
(361,-198,o),
(385,-169,o),
(387,-134,cs),
(389,-98,o),
(365,-69,o),
(331,-69,cs)
);
}
);
};
layerId = "6B2A2AD0-3CEC-4B3D-96BE-6A11A3496094";
shapes = (
{
ref = E;
},
{
pos = (235,0);
ref = dotbelowcomb;
}
);
width = 623;
}
);
unicode = 7864;
},
{
glyphname = Egrave;
kernLeft = I;
kernRight = E;
layers = (
{
background = {
anchors = (
{
name = bottom;
pos = (320,0);
},
{
name = ogonek;
pos = (544,5);
},
{
name = top;
pos = (335,928);
},
{
name = topleft;
pos = (33,700);
}
);
shapes = (
{
closed = 1;
nodes = (
(78,700,l),
(76,656,l),
(100,657,o),
(125,659,o),
(149,660,c),
(146,640,o),
(143,615,o),
(142,588,cs),
(118,156,ls),
(114,85,o),
(118,36,o),
(43,33,c),
(41,0,l),
(553,0,l),
(569,195,l),
(535,195,l),
(529,76,o),
(470,41,o),
(383,40,cs),
(192,37,l),
(195,54,o),
(197,79,o),
(199,115,cs),
(211,344,l),
(284,347,ls),
(370,351,o),
(403,347,o),
(399,259,c),
(432,259,l),
(443,477,l),
(410,477,l),
(406,389,o),
(369,382,o),
(285,383,cs),
(213,384,l),
(222,544,ls),
(227,625,o),
(229,661,o),
(304,663,cs),
(390,665,ls),
(465,667,o),
(524,643,o),
(518,525,c),
(551,525,l),
(555,700,l)
);
},
{
closed = 1;
nodes = (
(430,790,l),
(303,908,ls),
(265,943,o),
(243,923,o),
(238,917,cs),
(231,909,o),
(219,883,o),
(263,855,cs),
(409,762,l)
);
}
);
};
layerId = UUID0;
shapes = (
{
ref = E;
},
{
pos = (186,2);
ref = gravecomb.case;
}
);
width = 619;
},
{
background = {
anchors = (
{
name = bottom;
pos = (334,0);
},
{
name = ogonek;
pos = (561,5);
},
{
name = top;
pos = (327,963);
},
{
name = topleft;
pos = (33,700);
}
);
shapes = (
{
closed = 1;
nodes = (
(72,700,l),
(68,623,l),
(82,624,o),
(122,625,o),
(143,626,c),
(140,609,o),
(136,572,o),
(134,536,cs),
(114,153,ls),
(110,72,o),
(83,68,o),
(39,66,c),
(35,0,l),
(561,0,l),
(578,220,l),
(512,220,l),
(506,112,o),
(442,76,o),
(383,76,cs),
(249,76,l),
(252,93,o),
(255,128,o),
(257,164,cs),
(266,328,l),
(292,329,ls),
(346,331,o),
(390,325,o),
(386,241,c),
(452,241,l),
(464,484,l),
(387,484,l),
(387,459,o),
(387,425,o),
(387,397,c),
(270,397,l),
(277,547,ls),
(281,625,o),
(307,633,o),
(349,634,cs),
(385,635,ls),
(439,637,o),
(505,615,o),
(500,506,c),
(565,506,l),
(570,700,l)
);
},
{
closed = 1;
nodes = (
(431,819,l),
(322,936,ls),
(295,964,o),
(251,977,o),
(225,943,cs),
(198,910,o),
(221,873,o),
(251,854,c),
(392,770,l)
);
}
);
};
layerId = "6B2A2AD0-3CEC-4B3D-96BE-6A11A3496094";
shapes = (
{
ref = E;
},
{
pos = (168,0);
ref = gravecomb.case;
}
);
width = 623;
}
);
unicode = 200;
},
{
glyphname = Ehookabove;
layers = (
{
background = {
anchors = (
{
name = bottom;
pos = (320,0);
},
{
name = ogonek;
pos = (544,5);
},
{
name = top;
pos = (373,946);
},
{
name = topleft;
pos = (33,700);
}
);
shapes = (
{
closed = 1;
nodes = (
(78,700,l),
(76,656,l),
(100,657,o),
(125,659,o),
(149,660,c),
(146,640,o),
(143,615,o),
(142,588,cs),
(118,156,ls),
(114,85,o),
(118,36,o),
(43,33,c),
(41,0,l),
(553,0,l),
(569,195,l),
(535,195,l),
(529,76,o),
(470,41,o),
(383,40,cs),
(192,37,l),
(195,54,o),
(197,79,o),
(199,115,cs),
(211,344,l),
(284,347,ls),
(370,351,o),
(403,347,o),
(399,259,c),
(432,259,l),
(443,477,l),
(410,477,l),
(406,389,o),
(369,382,o),
(285,383,cs),
(213,384,l),
(222,544,ls),
(227,625,o),
(229,661,o),
(304,663,cs),
(390,665,ls),
(465,667,o),
(524,643,o),
(518,525,c),
(551,525,l),
(555,700,l)
);
},
{
closed = 1;
nodes = (
(377,756,l),
(378,767,o),
(392,776,o),
(409,788,cs),
(434,806,o),
(452,823,o),
(454,857,cs),
(456,897,o),
(419,938,o),
(349,938,cs),
(282,938,o),
(244,902,o),
(241,868,cs),
(239,841,o),
(256,830,o),
(272,830,cs),
(288,830,o),
(304,840,o),
(304,856,cs),
(304,862,o),
(302,868,o),
(299,872,c),
(302,886,o),
(324,902,o),
(348,902,cs),
(381,902,o),
(400,877,o),
(398,850,cs),
(397,836,o),
(390,820,o),
(377,809,cs),
(359,794,o),
(337,780,o),
(336,756,c)
);
}
);
};
layerId = UUID0;
shapes = (
{
ref = E;
},
{
pos = (196,190);
ref = hookabovecomb;
}
);
width = 619;
},
{
background = {
anchors = (
{
name = bottom;
pos = (334,0);
},
{
name = ogonek;
pos = (561,5);
},
{
name = top;
pos = (362,956);
},
{
name = topleft;
pos = (33,700);
}
);
shapes = (
{
closed = 1;
nodes = (
(72,700,l),
(68,623,l),
(82,624,o),
(122,625,o),
(143,626,c),
(140,609,o),
(136,572,o),
(134,536,cs),
(114,153,ls),
(110,72,o),
(83,68,o),
(39,66,c),
(35,0,l),
(561,0,l),
(578,220,l),
(512,220,l),
(506,112,o),
(442,76,o),
(383,76,cs),
(249,76,l),
(252,93,o),
(255,128,o),
(257,164,cs),
(266,328,l),
(292,329,ls),
(346,331,o),
(390,325,o),
(386,241,c),
(452,241,l),
(464,484,l),
(387,484,l),
(387,459,o),
(387,425,o),
(387,397,c),
(270,397,l),
(277,547,ls),
(281,625,o),
(307,633,o),
(349,634,cs),
(385,635,ls),
(439,637,o),
(505,615,o),
(500,506,c),
(565,506,l),
(570,700,l)
);
},
{
closed = 1;
nodes = (
(401,759,l),
(401,771,o),
(413,785,o),
(430,798,cs),
(450,814,o),
(473,828,o),
(475,864,cs),
(478,921,o),
(434,957,o),
(355,957,cs),
(284,957,o),
(241,908,o),
(238,863,cs),
(236,835,o),
(257,812,o),
(288,812,cs),
(311,812,o),
(323,828,o),
(324,843,cs),
(325,857,o),
(316,870,o),
(296,870,c),
(298,879,o),
(314,897,o),
(352,897,cs),
(380,897,o),
(402,883,o),
(400,855,cs),
(399,838,o),
(390,826,o),
(381,816,cs),
(364,798,o),
(340,787,o),
(339,759,c)
);
}
);
};
layerId = "6B2A2AD0-3CEC-4B3D-96BE-6A11A3496094";
shapes = (
{
ref = E;
},
{
pos = (155,200);
ref = hookabovecomb;
}
);
width = 623;
}
);
unicode = 7866;
},
{
glyphname = Emacron;
kernLeft = I;
kernRight = E;
layers = (
{
background = {
anchors = (
{
name = bottom;
pos = (320,0);
},
{
name = ogonek;
pos = (544,5);
},
{
name = top;
pos = (363,702);
},
{
name = topleft;
pos = (33,700);
}
);
shapes = (
{
closed = 1;
nodes = (
(78,700,l),
(76,656,l),
(100,657,o),
(125,659,o),
(149,660,c),
(146,640,o),
(143,615,o),
(142,588,cs),
(118,156,ls),
(114,85,o),
(118,36,o),
(43,33,c),
(41,0,l),
(553,0,l),
(569,195,l),
(535,195,l),
(529,76,o),
(470,41,o),
(383,40,cs),
(192,37,l),
(195,54,o),
(197,79,o),
(199,115,cs),
(211,344,l),
(284,347,ls),
(370,351,o),
(403,347,o),
(399,259,c),
(432,259,l),
(443,477,l),
(410,477,l),
(406,389,o),
(369,382,o),
(285,383,cs),
(213,384,l),
(222,544,ls),
(227,625,o),
(229,661,o),
(304,663,cs),
(390,665,ls),
(465,667,o),
(524,643,o),
(518,525,c),
(551,525,l),
(555,700,l)
);
},
{
closed = 1;
nodes = (
(503,839,l),
(506,891,l),
(241,891,l),
(238,835,l)
);
}
);
};
layerId = UUID0;
shapes = (
{
ref = E;
},
{
pos = (193,190);
ref = macroncomb;
}
);
width = 619;
},
{
background = {
anchors = (
{
name = bottom;
pos = (334,0);
},
{
name = ogonek;
pos = (561,5);
},
{
name = top;
pos = (343,700);
},
{
name = topleft;
pos = (33,700);
}
);
shapes = (
{
closed = 1;
nodes = (
(72,700,l),
(68,623,l),
(82,624,o),
(122,625,o),
(143,626,c),
(140,609,o),
(136,572,o),
(134,536,cs),
(114,153,ls),
(110,72,o),
(83,68,o),
(39,66,c),
(35,0,l),
(561,0,l),
(578,220,l),
(512,220,l),
(506,112,o),
(442,76,o),
(383,76,cs),
(249,76,l),
(252,93,o),
(255,128,o),
(257,164,cs),
(266,328,l),
(292,329,ls),
(346,331,o),
(390,325,o),
(386,241,c),
(452,241,l),
(464,484,l),
(387,484,l),
(387,459,o),
(387,425,o),
(387,397,c),
(270,397,l),
(277,547,ls),
(281,625,o),
(307,633,o),
(349,634,cs),
(385,635,ls),
(439,637,o),
(505,615,o),
(500,506,c),
(565,506,l),
(570,700,l)
);
},
{
closed = 1;
nodes = (
(483,832,l),
(487,922,l),
(203,922,l),
(199,829,l)
);
}
);
};
layerId = "6B2A2AD0-3CEC-4B3D-96BE-6A11A3496094";
shapes = (
{
ref = E;
},
{
pos = (154,200);
ref = macroncomb;
}
);
width = 623;
}
);
unicode = 274;
},
{
glyphname = Eogonek;
kernLeft = I;
kernRight = E;
layers = (
{
background = {
anchors = (
{
name = bottom;
pos = (320,0);
},
{
name = ogonek;
pos = (544,5);
},
{
name = top;
pos = (363,702);
},
{
name = topleft;
pos = (33,700);
}
);
shapes = (
{
closed = 1;
nodes = (
(78,700,l),
(76,656,l),
(100,657,o),
(125,659,o),
(149,660,c),
(146,640,o),
(143,615,o),
(142,588,cs),
(118,156,ls),
(114,85,o),
(118,36,o),
(43,33,c),
(41,0,l),
(553,0,l),
(569,195,l),
(535,195,l),
(529,76,o),
(470,41,o),
(383,40,cs),
(192,37,l),
(195,54,o),
(197,79,o),
(199,115,cs),
(211,344,l),
(284,347,ls),
(370,351,o),
(403,347,o),
(399,259,c),
(432,259,l),
(443,477,l),
(410,477,l),
(406,389,o),
(369,382,o),
(285,383,cs),
(213,384,l),
(222,544,ls),
(227,625,o),
(229,661,o),
(304,663,cs),
(390,665,ls),
(465,667,o),
(524,643,o),
(518,525,c),
(551,525,l),
(555,700,l)
);
},
{
closed = 1;
nodes = (
(470,-279,o),
(517,-247,o),
(545,-216,c),
(531,-199,l),
(506,-221,o),
(479,-231,o),
(455,-231,cs),
(416,-231,o),
(395,-203,o),
(395,-161,cs),
(395,-90,o),
(466,-25,o),
(544,5,c),
(546,31,l),
(442,-2,o),
(337,-79,o),
(332,-177,cs),
(329,-237,o),
(363,-279,o),
(422,-279,cs)
);
}
);
};
layerId = UUID0;
shapes = (
{
ref = E;
},
{
pos = (286,-22);
ref = ogonekcomb;
}
);
width = 619;
},
{
background = {
anchors = (
{
name = bottom;
pos = (334,0);
},
{
name = ogonek;
pos = (561,5);
},
{
name = top;
pos = (343,700);
},
{
name = topleft;
pos = (33,700);
}
);
shapes = (
{
closed = 1;
nodes = (
(72,700,l),
(68,623,l),
(82,624,o),
(122,625,o),
(143,626,c),
(140,609,o),
(136,572,o),
(134,536,cs),
(114,153,ls),
(110,72,o),
(83,68,o),
(39,66,c),
(35,0,l),
(561,0,l),
(578,220,l),
(512,220,l),
(506,112,o),
(442,76,o),
(383,76,cs),
(249,76,l),
(252,93,o),
(255,128,o),
(257,164,cs),
(266,328,l),
(292,329,ls),
(346,331,o),
(390,325,o),
(386,241,c),
(452,241,l),
(464,484,l),
(387,484,l),
(387,459,o),
(387,425,o),
(387,397,c),
(270,397,l),
(277,547,ls),
(281,625,o),
(307,633,o),
(349,634,cs),
(385,635,ls),
(439,637,o),
(505,615,o),
(500,506,c),
(565,506,l),
(570,700,l)
);
},
{
closed = 1;
nodes = (
(477,-260,o),
(528,-229,o),
(566,-183,c),
(533,-140,l),
(511,-159,o),
(489,-169,o),
(469,-169,cs),
(442,-169,o),
(427,-153,o),
(428,-129,cs),
(429,-73,o),
(496,-21,o),
(561,5,c),
(565,67,l),
(448,29,o),
(335,-57,o),
(330,-157,cs),
(326,-225,o),
(369,-260,o),
(430,-260,cs)
);
}
);
};
layerId = "6B2A2AD0-3CEC-4B3D-96BE-6A11A3496094";
shapes = (
{
ref = E;
},
{
pos = (284,5);
ref = ogonekcomb;
}
);
width = 623;
}
);
unicode = 280;
},
{
glyphname = Etilde;
layers = (
{
background = {
anchors = (
{
name = bottom;
pos = (320,0);
},
{
name = ogonek;
pos = (544,5);
},
{
name = top;
pos = (375,911);
},
{
name = topleft;
pos = (33,700);
}
);
shapes = (
{
closed = 1;
nodes = (
(78,700,l),
(76,656,l),
(100,657,o),
(125,659,o),
(149,660,c),
(146,640,o),
(143,615,o),
(142,588,cs),
(118,156,ls),
(114,85,o),
(118,36,o),
(43,33,c),
(41,0,l),
(553,0,l),
(569,195,l),
(535,195,l),
(529,76,o),
(470,41,o),
(383,40,cs),
(192,37,l),
(195,54,o),
(197,79,o),
(199,115,cs),
(211,344,l),
(284,347,ls),
(370,351,o),
(403,347,o),
(399,259,c),
(432,259,l),
(443,477,l),
(410,477,l),
(406,389,o),
(369,382,o),
(285,383,cs),
(213,384,l),
(222,544,ls),
(227,625,o),
(229,661,o),
(304,663,cs),
(390,665,ls),
(465,667,o),
(524,643,o),
(518,525,c),
(551,525,l),
(555,700,l)
);
},
{
closed = 1;
nodes = (
(250,844,o),
(280,860,o),
(303,860,cs),
(350,860,o),
(374,807,o),
(436,807,cs),
(471,807,o),
(514,832,o),
(539,898,c),
(515,910,l),
(493,877,o),
(470,858,o),
(439,859,cs),
(395,860,o),
(374,913,o),
(311,911,cs),
(274,910,o),
(224,875,o),
(205,828,c),
(230,815,l)
);
}
);
};
layerId = UUID0;
shapes = (
{
ref = E;
},
{
pos = (132,2);
ref = tildecomb.case;
}
);
width = 619;
},
{
background = {
anchors = (
{
name = bottom;
pos = (334,0);
},
{
name = ogonek;
pos = (561,5);
},
{
name = top;
pos = (356,951);
},
{
name = topleft;
pos = (33,700);
}
);
shapes = (
{
closed = 1;
nodes = (
(72,700,l),
(68,623,l),
(82,624,o),
(122,625,o),
(143,626,c),
(140,609,o),
(136,572,o),
(134,536,cs),
(114,153,ls),
(110,72,o),
(83,68,o),
(39,66,c),
(35,0,l),
(561,0,l),
(578,220,l),
(512,220,l),
(506,112,o),
(442,76,o),
(383,76,cs),
(249,76,l),
(252,93,o),
(255,128,o),
(257,164,cs),
(266,328,l),
(292,329,ls),
(346,331,o),
(390,325,o),
(386,241,c),
(452,241,l),
(464,484,l),
(387,484,l),
(387,459,o),
(387,425,o),
(387,397,c),
(270,397,l),
(277,547,ls),
(281,625,o),
(307,633,o),
(349,634,cs),
(385,635,ls),
(439,637,o),
(505,615,o),
(500,506,c),
(565,506,l),
(570,700,l)
);
},
{
closed = 1;
nodes = (
(248,838,o),
(276,847,o),
(292,847,cs),
(331,847,o),
(359,809,o),
(412,809,cs),
(452,809,o),
(502,839,o),
(529,923,c),
(476,951,l),
(459,920,o),
(436,900,o),
(412,900,cs),
(364,900,o),
(352,938,o),
(290,938,cs),
(246,938,o),
(196,900,o),
(175,840,c),
(228,806,l)
);
}
);
};
layerId = "6B2A2AD0-3CEC-4B3D-96BE-6A11A3496094";
shapes = (
{
ref = E;
},
{
pos = (97,0);
ref = tildecomb.case;
}
);
width = 623;
}
);
unicode = 7868;
},
{
glyphname = Ezhcaron;
layers = (
{
background = {
anchors = (
{
name = bottom;
pos = (303,0);
},
{
name = top;
pos = (354,962);
}
);
shapes = (
{
closed = 1;
nodes = (
(467,-16,o),
(604,56,o),
(621,196,cs),
(633,301,o),
(573,414,o),
(422,416,c),
(620,625,l),
(628,700,l),
(121,700,l),
(104,487,l),
(170,487,l),
(177,595,o),
(225,637,o),
(299,635,cs),
(489,630,l),
(455,606,o),
(421,572,o),
(385,531,cs),
(262,393,l),
(259,358,l),
(326,358,ls),
(436,358,o),
(474,284,o),
(464,202,cs),
(450,89,o),
(362,65,o),
(290,65,cs),
(188,65,o),
(120,118,o),
(64,189,c),
(13,144,l),
(85,35,o),
(204,-16,o),
(322,-16,cs)
);
},
{
closed = 1;
nodes = (
(558,922,l),
(538,962,l),
(347,875,l),
(167,962,l),
(139,921,l),
(326,770,l),
(346,770,l)
);
}
);
};
layerId = "6B2A2AD0-3CEC-4B3D-96BE-6A11A3496094";
shapes = (
{
ref = Ezh;
},
{
pos = (94,0);
ref = caroncomb.case;
}
);
width = 631;
},
{
background = {
anchors = (
{
name = bottom;
pos = (277,0);
},
{
name = top;
pos = (326,945);
}
);
shapes = (
{
closed = 1;
nodes = (
(417,-16,o),
(544,57,o),
(559,201,cs),
(570,318,o),
(502,410,o),
(352,418,c),
(580,665,l),
(581,700,l),
(113,700,l),
(96,493,l),
(130,493,l),
(134,607,o),
(181,658,o),
(260,659,cs),
(491,663,l),
(449,639,o),
(425,615,o),
(394,583,c),
(246,419,l),
(242,377,l),
(267,378,l),
(409,372,o),
(472,317,o),
(460,205,cs),
(448,89,o),
(368,31,o),
(265,31,cs),
(163,31,o),
(93,88,o),
(51,146,c),
(23,125,l),
(72,45,o),
(158,-16,o),
(282,-16,cs)
);
},
{
closed = 1;
nodes = (
(510,919,l),
(495,945,l),
(318,848,l),
(151,943,l),
(132,914,l),
(315,771,l),
(317,771,l)
);
}
);
};
layerId = UUID0;
shapes = (
{
ref = Ezh;
},
{
pos = (72,0);
ref = caroncomb.case;
}
);
width = 579;
}
);
unicode = 494;
},
{
glyphname = F;
kernLeft = I;
layers = (
{
background = {
shapes = (
{
closed = 1;
nodes = (
(78,700,l),
(76,656,l),
(100,657,o),
(125,659,o),
(149,660,c),
(146,640,o),
(143,615,o),
(142,588,cs),
(118,156,ls),
(115,85,o),
(118,36,o),
(43,33,c),
(41,0,l),
(292,0,l),
(294,44,l),
(260,43,o),
(226,41,o),
(192,40,c),
(195,57,o),
(198,83,o),
(199,119,cs),
(210,328,l),
(236,330,o),
(262,331,o),
(288,331,cs),
(359,331,o),
(388,325,o),
(384,243,c),
(417,243,l),
(428,462,l),
(395,462,l),
(391,380,o),
(361,369,o),
(290,368,cs),
(212,368,l),
(222,552,ls),
(225,622,o),
(229,661,o),
(297,663,cs),
(370,665,ls),
(445,667,o),
(507,643,o),
(501,525,c),
(534,525,l),
(538,700,l)
);
}
);
};
layerId = UUID0;
shapes = (
{
closed = 1;
nodes = (
(78,700,l),
(76,656,l),
(100,657,o),
(125,659,o),
(149,660,c),
(146,640,o),
(143,615,o),
(142,588,cs),
(118,156,ls),
(115,85,o),
(118,36,o),
(43,33,c),
(41,0,l),
(292,0,l),
(294,44,l),
(260,43,o),
(226,41,o),
(192,40,c),
(195,57,o),
(198,83,o),
(199,119,cs),
(210,328,l),
(236,330,o),
(262,331,o),
(288,331,cs),
(359,331,o),
(388,325,o),
(384,243,c),
(417,243,l),
(428,462,l),
(395,462,l),
(391,380,o),
(361,369,o),
(290,368,cs),
(212,368,l),
(222,552,ls),
(225,622,o),
(229,661,o),
(297,663,cs),
(370,665,ls),
(445,667,o),
(507,643,o),
(501,525,c),
(534,525,l),
(538,700,l)
);
}
);
width = 541;
},
{
background = {
shapes = (
{
closed = 1;
nodes = (
(72,700,l),
(68,623,l),
(82,624,o),
(122,625,o),
(143,626,c),
(140,609,o),
(136,572,o),
(134,536,cs),
(114,153,ls),
(110,72,o),
(83,68,o),
(39,66,c),
(35,0,l),
(333,0,l),
(337,77,l),
(323,77,o),
(270,76,o),
(249,74,c),
(252,91,o),
(255,128,o),
(257,164,cs),
(265,304,l),
(269,304,o),
(273,304,o),
(277,304,cs),
(331,306,o),
(375,300,o),
(370,216,c),
(436,216,l),
(449,459,l),
(372,459,l),
(372,435,o),
(371,400,o),
(372,373,c),
(268,373,l),
(277,547,ls),
(281,625,o),
(307,633,o),
(349,634,cs),
(385,635,ls),
(439,637,o),
(505,615,o),
(500,506,c),
(565,506,l),
(570,700,l)
);
}
);
};
layerId = "6B2A2AD0-3CEC-4B3D-96BE-6A11A3496094";
shapes = (
{
closed = 1;
nodes = (
(72,700,l),
(68,623,l),
(82,624,o),
(122,625,o),
(143,626,c),
(140,609,o),
(136,572,o),
(134,536,cs),
(114,153,ls),
(110,72,o),
(83,68,o),
(39,66,c),
(35,0,l),
(333,0,l),
(337,77,l),
(323,77,o),
(270,76,o),
(249,74,c),
(252,91,o),
(255,128,o),
(257,164,cs),
(265,304,l),
(269,304,o),
(273,304,o),
(277,304,cs),
(331,306,o),
(375,300,o),
(370,216,c),
(436,216,l),
(449,459,l),
(372,459,l),
(372,435,o),
(371,400,o),
(372,373,c),
(268,373,l),
(277,547,ls),
(281,625,o),
(307,633,o),
(349,634,cs),
(385,635,ls),
(439,637,o),
(505,615,o),
(500,506,c),
(565,506,l),
(570,700,l)
);
}
);
width = 566;
}
);
unicode = 70;
},
{
glyphname = G;
kernLeft = O;
kernRight = G;
layers = (
{
anchors = (
{
name = bottom;
pos = (358,0);
},
{
name = top;
pos = (430,702);
}
);
background = {
anchors = (
{
name = bottom;
pos = (358,0);
},
{
name = top;
pos = (430,702);
}
);
shapes = (
{
closed = 1;
nodes = (
(410,-16,o),
(472,-6,o),
(514,10,cs),
(563,29,o),
(601,36,o),
(623,36,cs),
(647,36,l),
(655,188,ls),
(657,215,o),
(658,307,o),
(733,307,c),
(735,340,l),
(512,340,l),
(510,296,l),
(533,297,o),
(557,299,o),
(580,300,c),
(578,266,o),
(577,233,o),
(575,199,c),
(569,82,l),
(515,47,o),
(448,32,o),
(395,32,cs),
(237,32,o),
(134,169,o),
(144,358,cs),
(154,544,o),
(275,676,o),
(417,676,cs),
(533,676,o),
(620,605,o),
(622,480,c),
(658,480,l),
(670,709,l),
(615,709,l),
(617,662,l),
(562,695,o),
(485,716,o),
(413,716,cs),
(180,716,o),
(60,523,o),
(50,335,cs),
(38,116,o),
(165,-16,o),
(366,-16,cs)
);
}
);
};
layerId = UUID0;
shapes = (
{
closed = 1;
nodes = (
(410,-16,o),
(472,-6,o),
(514,10,cs),
(563,29,o),
(601,36,o),
(623,36,cs),
(647,36,l),
(655,188,ls),
(657,215,o),
(658,307,o),
(733,307,c),
(735,340,l),
(512,340,l),
(510,296,l),
(533,297,o),
(557,299,o),
(580,300,c),
(578,266,o),
(577,233,o),
(575,199,c),
(569,82,l),
(515,47,o),
(448,32,o),
(395,32,cs),
(237,32,o),
(134,169,o),
(144,358,cs),
(154,544,o),
(275,676,o),
(417,676,cs),
(533,676,o),
(620,605,o),
(622,480,c),
(658,480,l),
(670,709,l),
(615,709,l),
(617,662,l),
(562,695,o),
(485,716,o),
(413,716,cs),
(180,716,o),
(60,523,o),
(50,335,cs),
(38,116,o),
(165,-16,o),
(366,-16,cs)
);
}
);
width = 753;
},
{
anchors = (
{
name = bottom;
pos = (368,0);
},
{
name = top;
pos = (427,700);
}
);
background = {
anchors = (
{
name = bottom;
pos = (368,0);
},
{
name = top;
pos = (427,700);
}
);
shapes = (
{
closed = 1;
nodes = (
(427,-16,o),
(479,-1,o),
(525,12,cs),
(563,24,o),
(598,34,o),
(633,34,cs),
(658,34,l),
(666,194,ls),
(670,270,o),
(692,279,o),
(737,281,c),
(740,347,l),
(477,347,l),
(473,270,l),
(487,271,o),
(527,271,o),
(548,273,c),
(545,256,o),
(542,219,o),
(540,183,cs),
(535,90,l),
(497,72,o),
(428,63,o),
(390,63,cs),
(253,63,o),
(185,188,o),
(194,360,cs),
(202,504,o),
(276,644,o),
(416,644,cs),
(509,643,o),
(580,587,o),
(592,476,c),
(658,476,l),
(670,709,l),
(593,709,l),
(593,667,l),
(542,699,o),
(458,716,o),
(406,716,cs),
(173,716,o),
(48,522,o),
(39,340,cs),
(28,141,o),
(144,-16,o),
(361,-16,cs)
);
}
);
};
layerId = "6B2A2AD0-3CEC-4B3D-96BE-6A11A3496094";
shapes = (
{
closed = 1;
nodes = (
(427,-16,o),
(479,-1,o),
(525,12,cs),
(563,24,o),
(598,34,o),
(633,34,cs),
(658,34,l),
(666,194,ls),
(670,270,o),
(692,279,o),
(737,281,c),
(740,347,l),
(477,347,l),
(473,270,l),
(487,271,o),
(527,271,o),
(548,273,c),
(545,256,o),
(542,219,o),
(540,183,cs),
(535,90,l),
(497,72,o),
(428,63,o),
(390,63,cs),
(253,63,o),
(185,188,o),
(194,360,cs),
(202,504,o),
(276,644,o),
(416,644,cs),
(509,643,o),
(580,587,o),
(592,476,c),
(658,476,l),
(670,709,l),
(593,709,l),
(593,667,l),
(542,699,o),
(458,716,o),
(406,716,cs),
(173,716,o),
(48,522,o),
(39,340,cs),
(28,141,o),
(144,-16,o),
(361,-16,cs)
);
}
);
width = 756;
}
);
unicode = 71;
},
{
glyphname = Gbreve;
kernLeft = O;
kernRight = G;
layers = (
{
background = {
anchors = (
{
name = bottom;
pos = (358,0);
},
{
name = top;
pos = (430,702);
}
);
shapes = (
{
closed = 1;
nodes = (
(410,-16,o),
(472,-6,o),
(514,10,cs),
(563,29,o),
(601,36,o),
(623,36,cs),
(647,36,l),
(655,188,ls),
(657,215,o),
(658,307,o),
(733,307,c),
(735,340,l),
(512,340,l),
(510,296,l),
(533,297,o),
(557,299,o),
(580,300,c),
(578,266,o),
(577,233,o),
(575,199,c),
(569,82,l),
(515,47,o),
(448,32,o),
(395,32,cs),
(237,32,o),
(134,169,o),
(144,358,cs),
(154,544,o),
(275,676,o),
(417,676,cs),
(533,676,o),
(620,605,o),
(622,480,c),
(658,480,l),
(670,709,l),
(615,709,l),
(617,662,l),
(562,695,o),
(485,716,o),
(413,716,cs),
(180,716,o),
(60,523,o),
(50,335,cs),
(38,116,o),
(165,-16,o),
(366,-16,cs)
);
},
{
closed = 1;
nodes = (
(504,811,o),
(561,847,o),
(597,914,c),
(571,926,l),
(548,898,o),
(498,872,o),
(448,872,cs),
(397,872,o),
(350,898,o),
(331,926,c),
(304,914,l),
(330,847,o),
(382,811,o),
(443,811,cs)
);
}
);
};
layerId = UUID0;
shapes = (
{
ref = G;
},
{
pos = (264,2);
ref = brevecomb.case;
}
);
width = 753;
},
{
background = {
anchors = (
{
name = bottom;
pos = (368,0);
},
{
name = top;
pos = (427,700);
}
);
shapes = (
{
closed = 1;
nodes = (
(427,-16,o),
(479,-1,o),
(525,12,cs),
(563,24,o),
(598,34,o),
(633,34,cs),
(658,34,l),
(666,194,ls),
(670,270,o),
(692,279,o),
(737,281,c),
(740,347,l),
(477,347,l),
(473,270,l),
(487,271,o),
(527,271,o),
(548,273,c),
(545,256,o),
(542,219,o),
(540,183,cs),
(535,90,l),
(497,72,o),
(428,63,o),
(390,63,cs),
(253,63,o),
(185,188,o),
(194,360,cs),
(202,504,o),
(276,644,o),
(416,644,cs),
(509,643,o),
(580,587,o),
(592,476,c),
(658,476,l),
(670,709,l),
(593,709,l),
(593,667,l),
(542,699,o),
(458,716,o),
(406,716,cs),
(173,716,o),
(48,522,o),
(39,340,cs),
(28,141,o),
(144,-16,o),
(361,-16,cs)
);
},
{
closed = 1;
nodes = (
(499,787,o),
(577,814,o),
(616,894,c),
(562,934,l),
(534,905,o),
(498,879,o),
(440,879,cs),
(382,879,o),
(349,905,o),
(326,934,c),
(266,894,l),
(294,814,o),
(368,787,o),
(434,787,cs)
);
}
);
};
layerId = "6B2A2AD0-3CEC-4B3D-96BE-6A11A3496094";
shapes = (
{
ref = G;
},
{
pos = (220,0);
ref = brevecomb.case;
}
);
width = 756;
}
);
unicode = 286;
},
{
glyphname = Gcaron;
layers = (
{
background = {
anchors = (
{
name = bottom;
pos = (368,0);
},
{
name = top;
pos = (441,962);
}
);
shapes = (
{
closed = 1;
nodes = (
(427,-16,o),
(479,-1,o),
(525,12,cs),
(563,24,o),
(598,34,o),
(633,34,cs),
(658,34,l),
(666,194,ls),
(670,270,o),
(692,279,o),
(737,281,c),
(740,347,l),
(477,347,l),
(473,270,l),
(487,271,o),
(527,271,o),
(548,273,c),
(545,256,o),
(542,219,o),
(540,183,cs),
(535,90,l),
(497,72,o),
(428,63,o),
(390,63,cs),
(253,63,o),
(185,188,o),
(194,360,cs),
(202,504,o),
(276,644,o),
(416,644,cs),
(509,643,o),
(580,587,o),
(592,476,c),
(658,476,l),
(670,709,l),
(593,709,l),
(593,667,l),
(542,699,o),
(458,716,o),
(406,716,cs),
(173,716,o),
(48,522,o),
(39,340,cs),
(28,141,o),
(144,-16,o),
(361,-16,cs)
);
},
{
closed = 1;
nodes = (
(645,922,l),
(625,962,l),
(434,875,l),
(254,962,l),
(226,921,l),
(413,770,l),
(433,770,l)
);
}
);
};
layerId = "6B2A2AD0-3CEC-4B3D-96BE-6A11A3496094";
shapes = (
{
ref = G;
},
{
pos = (181,0);
ref = caroncomb.case;
}
);
width = 756;
},
{
background = {
anchors = (
{
name = bottom;
pos = (358,0);
},
{
name = top;
pos = (443,947);
}
);
shapes = (
{
closed = 1;
nodes = (
(410,-16,o),
(472,-6,o),
(514,10,cs),
(563,29,o),
(601,36,o),
(623,36,cs),
(647,36,l),
(655,188,ls),
(657,215,o),
(658,307,o),
(733,307,c),
(735,340,l),
(512,340,l),
(510,296,l),
(533,297,o),
(557,299,o),
(580,300,c),
(578,266,o),
(577,233,o),
(575,199,c),
(569,82,l),
(515,47,o),
(448,32,o),
(395,32,cs),
(237,32,o),
(134,169,o),
(144,358,cs),
(154,544,o),
(275,676,o),
(417,676,cs),
(533,676,o),
(620,605,o),
(622,480,c),
(658,480,l),
(670,709,l),
(615,709,l),
(617,662,l),
(562,695,o),
(485,716,o),
(413,716,cs),
(180,716,o),
(60,523,o),
(50,335,cs),
(38,116,o),
(165,-16,o),
(366,-16,cs)
);
},
{
closed = 1;
nodes = (
(627,921,l),
(612,947,l),
(435,850,l),
(268,945,l),
(249,916,l),
(432,773,l),
(434,773,l)
);
}
);
};
layerId = UUID0;
shapes = (
{
ref = G;
},
{
pos = (189,2);
ref = caroncomb.case;
}
);
width = 753;
}
);
unicode = 486;
},
{
glyphname = Gcircumflex;
kernLeft = O;
kernRight = G;
layers = (
{
background = {
anchors = (
{
name = bottom;
pos = (358,0);
},
{
name = top;
pos = (430,702);
}
);
shapes = (
{
closed = 1;
nodes = (
(410,-16,o),
(472,-6,o),
(514,10,cs),
(563,29,o),
(601,36,o),
(623,36,cs),
(647,36,l),
(655,188,ls),
(657,215,o),
(658,307,o),
(733,307,c),
(735,340,l),
(512,340,l),
(510,296,l),
(533,297,o),
(557,299,o),
(580,300,c),
(578,266,o),
(577,233,o),
(575,199,c),
(569,82,l),
(515,47,o),
(448,32,o),
(395,32,cs),
(237,32,o),
(134,169,o),
(144,358,cs),
(154,544,o),
(275,676,o),
(417,676,cs),
(533,676,o),
(620,605,o),
(622,480,c),
(658,480,l),
(670,709,l),
(615,709,l),
(617,662,l),
(562,695,o),
(485,716,o),
(413,716,cs),
(180,716,o),
(60,523,o),
(50,335,cs),
(38,116,o),
(165,-16,o),
(366,-16,cs)
);
},
{
closed = 1;
nodes = (
(627,791,l),
(446,932,l),
(444,932,l),
(248,792,l),
(263,765,l),
(433,852,l),
(609,763,l)
);
}
);
};
layerId = UUID0;
shapes = (
{
ref = G;
},
{
pos = (203,2);
ref = circumflexcomb.case;
}
);
width = 753;
},
{
background = {
anchors = (
{
name = bottom;
pos = (368,0);
},
{
name = top;
pos = (427,700);
}
);
shapes = (
{
closed = 1;
nodes = (
(427,-16,o),
(479,-1,o),
(525,12,cs),
(563,24,o),
(598,34,o),
(633,34,cs),
(658,34,l),
(666,194,ls),
(670,270,o),
(692,279,o),
(737,281,c),
(740,347,l),
(477,347,l),
(473,270,l),
(487,271,o),
(527,271,o),
(548,273,c),
(545,256,o),
(542,219,o),
(540,183,cs),
(535,90,l),
(497,72,o),
(428,63,o),
(390,63,cs),
(253,63,o),
(185,188,o),
(194,360,cs),
(202,504,o),
(276,644,o),
(416,644,cs),
(509,643,o),
(580,587,o),
(592,476,c),
(658,476,l),
(670,709,l),
(593,709,l),
(593,667,l),
(542,699,o),
(458,716,o),
(406,716,cs),
(173,716,o),
(48,522,o),
(39,340,cs),
(28,141,o),
(144,-16,o),
(361,-16,cs)
);
},
{
closed = 1;
nodes = (
(644,821,l),
(456,971,l),
(437,971,l),
(225,821,l),
(244,781,l),
(437,867,l),
(616,779,l)
);
}
);
};
layerId = "6B2A2AD0-3CEC-4B3D-96BE-6A11A3496094";
shapes = (
{
ref = G;
},
{
pos = (195,0);
ref = circumflexcomb.case;
}
);
width = 756;
}
);
unicode = 284;
},
{
glyphname = Gcommaaccent;
kernLeft = O;
kernRight = G;
layers = (
{
background = {
anchors = (
{
name = bottom;
pos = (358,0);
},
{
name = top;
pos = (430,702);
}
);
shapes = (
{
closed = 1;
nodes = (
(410,-16,o),
(472,-6,o),
(514,10,cs),
(563,29,o),
(601,36,o),
(623,36,cs),
(647,36,l),
(655,188,ls),
(657,215,o),
(658,307,o),
(733,307,c),
(735,340,l),
(512,340,l),
(510,296,l),
(533,297,o),
(557,299,o),
(580,300,c),
(578,266,o),
(577,233,o),
(575,199,c),
(569,82,l),
(515,47,o),
(448,32,o),
(395,32,cs),
(237,32,o),
(134,169,o),
(144,358,cs),
(154,544,o),
(275,676,o),
(417,676,cs),
(533,676,o),
(620,605,o),
(622,480,c),
(658,480,l),
(670,709,l),
(615,709,l),
(617,662,l),
(562,695,o),
(485,716,o),
(413,716,cs),
(180,716,o),
(60,523,o),
(50,335,cs),
(38,116,o),
(165,-16,o),
(366,-16,cs)
);
},
{
closed = 1;
nodes = (
(327,-212,o),
(363,-159,o),
(367,-108,cs),
(369,-90,o),
(366,-73,o),
(360,-56,c),
(289,-72,l),
(296,-128,o),
(301,-160,o),
(250,-240,c),
(275,-259,l)
);
}
);
};
layerId = UUID0;
shapes = (
{
ref = G;
},
{
pos = (203,0);
ref = commaaccentcomb;
}
);
width = 753;
},
{
background = {
anchors = (
{
name = bottom;
pos = (368,0);
},
{
name = top;
pos = (427,700);
}
);
shapes = (
{
closed = 1;
nodes = (
(427,-16,o),
(479,-1,o),
(525,12,cs),
(563,24,o),
(598,34,o),
(633,34,cs),
(658,34,l),
(666,194,ls),
(670,270,o),
(692,279,o),
(737,281,c),
(740,347,l),
(477,347,l),
(473,270,l),
(487,271,o),
(527,271,o),
(548,273,c),
(545,256,o),
(542,219,o),
(540,183,cs),
(535,90,l),
(497,72,o),
(428,63,o),
(390,63,cs),
(253,63,o),
(185,188,o),
(194,360,cs),
(202,504,o),
(276,644,o),
(416,644,cs),
(509,643,o),
(580,587,o),
(592,476,c),
(658,476,l),
(670,709,l),
(593,709,l),
(593,667,l),
(542,699,o),
(458,716,o),
(406,716,cs),
(173,716,o),
(48,522,o),
(39,340,cs),
(28,141,o),
(144,-16,o),
(361,-16,cs)
);
},
{
closed = 1;
nodes = (
(350,-240,o),
(407,-167,o),
(410,-108,c),
(412,-84,o),
(407,-59,o),
(395,-36,c),
(287,-60,l),
(295,-129,o),
(294,-165,o),
(236,-253,c),
(288,-294,l)
);
}
);
};
layerId = "6B2A2AD0-3CEC-4B3D-96BE-6A11A3496094";
shapes = (
{
ref = G;
},
{
pos = (201,0);
ref = commaaccentcomb;
}
);
width = 756;
}
);
unicode = 290;
},
{
glyphname = Gdotaccent;
layers = (
{
background = {
anchors = (
{
name = bottom;
pos = (358,0);
},
{
name = top;
pos = (441,915);
}
);
shapes = (
{
closed = 1;
nodes = (
(410,-16,o),
(472,-6,o),
(514,10,cs),
(563,29,o),
(601,36,o),
(623,36,cs),
(647,36,l),
(655,188,ls),
(657,215,o),
(658,307,o),
(733,307,c),
(735,340,l),
(512,340,l),
(510,296,l),
(533,297,o),
(557,299,o),
(580,300,c),
(578,266,o),
(577,233,o),
(575,199,c),
(569,82,l),
(515,47,o),
(448,32,o),
(395,32,cs),
(237,32,o),
(134,169,o),
(144,358,cs),
(154,544,o),
(275,676,o),
(417,676,cs),
(533,676,o),
(620,605,o),
(622,480,c),
(658,480,l),
(670,709,l),
(615,709,l),
(617,662,l),
(562,695,o),
(485,716,o),
(413,716,cs),
(180,716,o),
(60,523,o),
(50,335,cs),
(38,116,o),
(165,-16,o),
(366,-16,cs)
);
},
{
closed = 1;
nodes = (
(414,915,o),
(388,890,o),
(386,857,cs),
(385,824,o),
(407,799,o),
(436,799,cs),
(463,799,o),
(490,824,o),
(491,857,cs),
(493,890,o),
(472,915,o),
(443,915,cs)
);
}
);
};
layerId = UUID0;
shapes = (
{
ref = G;
},
{
pos = (339,190);
ref = dotaccentcomb;
}
);
width = 753;
},
{
background = {
anchors = (
{
name = bottom;
pos = (368,0);
},
{
name = top;
pos = (440,953);
}
);
shapes = (
{
closed = 1;
nodes = (
(427,-16,o),
(479,-1,o),
(525,12,cs),
(563,24,o),
(598,34,o),
(633,34,cs),
(658,34,l),
(666,194,ls),
(670,270,o),
(692,279,o),
(737,281,c),
(740,347,l),
(477,347,l),
(473,270,l),
(487,271,o),
(527,271,o),
(548,273,c),
(545,256,o),
(542,219,o),
(540,183,cs),
(535,90,l),
(497,72,o),
(428,63,o),
(390,63,cs),
(253,63,o),
(185,188,o),
(194,360,cs),
(202,504,o),
(276,644,o),
(416,644,cs),
(509,643,o),
(580,587,o),
(592,476,c),
(658,476,l),
(670,709,l),
(593,709,l),
(593,667,l),
(542,699,o),
(458,716,o),
(406,716,cs),
(173,716,o),
(48,522,o),
(39,340,cs),
(28,141,o),
(144,-16,o),
(361,-16,cs)
);
},
{
closed = 1;
nodes = (
(396,953,o),
(363,921,o),
(361,881,cs),
(359,842,o),
(385,809,o),
(425,809,cs),
(465,809,o),
(493,842,o),
(495,881,cs),
(497,921,o),
(470,953,o),
(432,953,cs)
);
}
);
};
layerId = "6B2A2AD0-3CEC-4B3D-96BE-6A11A3496094";
shapes = (
{
ref = G;
},
{
pos = (314,200);
ref = dotaccentcomb;
}
);
width = 756;
}
);
unicode = 288;
},
{
glyphname = Gstroke;
layers = (
{
background = {
shapes = (
{
closed = 1;
nodes = (
(448,228,l),
(446,185,l),
(751,189,l),
(753,228,l)
);
},
{
ref = G;
}
);
};
layerId = "6B2A2AD0-3CEC-4B3D-96BE-6A11A3496094";
shapes = (
{
closed = 1;
nodes = (
(448,228,l),
(446,185,l),
(751,189,l),
(753,228,l)
);
},
{
ref = G;
}
);
width = 756;
},
{
background = {
shapes = (
{
closed = 1;
nodes = (
(464,228,l),
(462,185,l),
(746,189,l),
(748,228,l)
);
},
{
ref = G;
}
);
};
layerId = UUID0;
shapes = (
{
closed = 1;
nodes = (
(464,228,l),
(462,185,l),
(746,189,l),
(748,228,l)
);
},
{
ref = G;
}
);
width = 753;
}
);
metricLeft = G;
unicode = 484;
},
{
glyphname = H;
kernLeft = I;
kernRight = I;
layers = (
{
anchors = (
{
name = bottom;
pos = (372,0);
},
{
name = center;
pos = (395,351);
},
{
name = top;
pos = (410,702);
}
);
background = {
anchors = (
{
name = bottom;
pos = (372,0);
},
{
name = center;
pos = (395,351);
},
{
name = top;
pos = (410,702);
}
);
shapes = (
{
closed = 1;
nodes = (
(519,700,l),
(517,656,l),
(541,657,o),
(565,659,o),
(589,660,c),
(586,640,o),
(583,615,o),
(582,588,cs),
(571,378,l),
(212,378,l),
(222,556,ls),
(226,627,o),
(232,664,o),
(297,667,c),
(299,700,l),
(78,700,l),
(76,656,l),
(100,657,o),
(124,659,o),
(148,660,c),
(145,640,o),
(143,615,o),
(141,588,cs),
(118,156,ls),
(114,85,o),
(118,36,o),
(43,33,c),
(41,0,l),
(262,0,l),
(264,44,l),
(240,43,o),
(216,41,o),
(192,40,c),
(195,57,o),
(197,83,o),
(199,119,cs),
(210,334,l),
(569,338,l),
(559,156,l),
(556,85,o),
(559,36,o),
(484,33,c),
(482,0,l),
(703,0,l),
(705,44,l),
(681,43,o),
(657,41,o),
(633,40,c),
(636,57,o),
(638,83,o),
(640,119,cs),
(663,557,ls),
(667,628,o),
(673,664,o),
(738,667,c),
(740,700,l)
);
}
);
};
layerId = UUID0;
shapes = (
{
closed = 1;
nodes = (
(519,700,l),
(517,656,l),
(541,657,o),
(565,659,o),
(589,660,c),
(586,640,o),
(583,615,o),
(582,588,cs),
(571,378,l),
(212,378,l),
(222,556,ls),
(226,627,o),
(232,664,o),
(297,667,c),
(299,700,l),
(78,700,l),
(76,656,l),
(100,657,o),
(124,659,o),
(148,660,c),
(145,640,o),
(143,615,o),
(141,588,cs),
(118,156,ls),
(114,85,o),
(118,36,o),
(43,33,c),
(41,0,l),
(262,0,l),
(264,44,l),
(240,43,o),
(216,41,o),
(192,40,c),
(195,57,o),
(197,83,o),
(199,119,cs),
(210,334,l),
(569,338,l),
(559,156,l),
(556,85,o),
(559,36,o),
(484,33,c),
(482,0,l),
(703,0,l),
(705,44,l),
(681,43,o),
(657,41,o),
(633,40,c),
(636,57,o),
(638,83,o),
(640,119,cs),
(663,557,ls),
(667,628,o),
(673,664,o),
(738,667,c),
(740,700,l)
);
}
);
width = 773;
},
{
anchors = (
{
name = bottom;
pos = (387,0);
},
{
name = center;
pos = (401,350);
},
{
name = top;
pos = (429,700);
}
);
background = {
anchors = (
{
name = bottom;
pos = (387,0);
},
{
name = center;
pos = (401,350);
},
{
name = top;
pos = (429,700);
}
);
shapes = (
{
closed = 1;
nodes = (
(489,700,l),
(485,623,l),
(500,624,o),
(539,625,o),
(561,626,c),
(557,609,o),
(554,572,o),
(552,536,cs),
(544,391,l),
(269,391,l),
(277,547,ls),
(281,628,o),
(308,632,o),
(353,634,c),
(356,700,l),
(72,700,l),
(68,623,l),
(82,624,o),
(122,625,o),
(143,626,c),
(140,609,o),
(136,572,o),
(134,536,cs),
(114,153,ls),
(110,72,o),
(83,68,o),
(39,66,c),
(35,0,l),
(320,0,l),
(324,77,l),
(310,77,o),
(270,76,o),
(249,74,c),
(252,91,o),
(255,128,o),
(257,164,cs),
(265,312,l),
(541,315,l),
(532,153,ls),
(528,72,o),
(501,68,o),
(456,66,c),
(453,0,l),
(737,0,l),
(741,77,l),
(727,77,o),
(688,76,o),
(666,74,c),
(669,91,o),
(673,128,o),
(675,164,cs),
(695,547,ls),
(699,628,o),
(726,632,o),
(771,634,c),
(774,700,l)
);
}
);
};
layerId = "6B2A2AD0-3CEC-4B3D-96BE-6A11A3496094";
shapes = (
{
closed = 1;
nodes = (
(489,700,l),
(485,623,l),
(500,624,o),
(539,625,o),
(561,626,c),
(557,609,o),
(554,572,o),
(552,536,cs),
(544,391,l),
(269,391,l),
(277,547,ls),
(281,628,o),
(308,632,o),
(353,634,c),
(356,700,l),
(72,700,l),
(68,623,l),
(82,624,o),
(122,625,o),
(143,626,c),
(140,609,o),
(136,572,o),
(134,536,cs),
(114,153,ls),
(110,72,o),
(83,68,o),
(39,66,c),
(35,0,l),
(320,0,l),
(324,77,l),
(310,77,o),
(270,76,o),
(249,74,c),
(252,91,o),
(255,128,o),
(257,164,cs),
(265,312,l),
(541,315,l),
(532,153,ls),
(528,72,o),
(501,68,o),
(456,66,c),
(453,0,l),
(737,0,l),
(741,77,l),
(727,77,o),
(688,76,o),
(666,74,c),
(669,91,o),
(673,128,o),
(675,164,cs),
(695,547,ls),
(699,628,o),
(726,632,o),
(771,634,c),
(774,700,l)
);
}
);
width = 802;
}
);
unicode = 72;
},
{
glyphname = Hbar;
layers = (
{
background = {
anchors = (
{
name = bottom;
pos = (372,0);
},
{
name = center;
pos = (395,351);
},
{
name = top;
pos = (410,702);
}
);
shapes = (
{
closed = 1;
nodes = (
(48,558,l),
(46,515,l),
(751,519,l),
(753,558,l)
);
},
{
closed = 1;
nodes = (
(519,700,l),
(517,656,l),
(541,657,o),
(565,659,o),
(589,660,c),
(586,640,o),
(583,615,o),
(582,588,cs),
(571,378,l),
(212,378,l),
(222,556,ls),
(226,627,o),
(232,664,o),
(297,667,c),
(299,700,l),
(78,700,l),
(76,656,l),
(100,657,o),
(124,659,o),
(148,660,c),
(145,640,o),
(143,615,o),
(141,588,cs),
(118,156,ls),
(114,85,o),
(118,36,o),
(43,33,c),
(41,0,l),
(262,0,l),
(264,44,l),
(240,43,o),
(216,41,o),
(192,40,c),
(195,57,o),
(197,83,o),
(199,119,cs),
(210,334,l),
(569,338,l),
(559,156,l),
(556,85,o),
(559,36,o),
(484,33,c),
(482,0,l),
(703,0,l),
(705,44,l),
(681,43,o),
(657,41,o),
(633,40,c),
(636,57,o),
(638,83,o),
(640,119,cs),
(663,557,ls),
(667,628,o),
(673,664,o),
(738,667,c),
(740,700,l)
);
}
);
};
layerId = UUID0;
shapes = (
{
ref = H;
},
{
closed = 1;
nodes = (
(48,558,l),
(46,515,l),
(751,519,l),
(753,558,l)
);
}
);
width = 773;
},
{
background = {
anchors = (
{
name = bottom;
pos = (387,0);
},
{
name = center;
pos = (401,350);
},
{
name = top;
pos = (429,700);
}
);
shapes = (
{
closed = 1;
nodes = (
(52,538,l),
(50,485,l),
(755,489,l),
(757,538,l)
);
},
{
closed = 1;
nodes = (
(489,700,l),
(485,623,l),
(500,624,o),
(539,625,o),
(561,626,c),
(557,609,o),
(554,572,o),
(552,536,cs),
(544,391,l),
(269,391,l),
(277,547,ls),
(281,628,o),
(308,632,o),
(353,634,c),
(356,700,l),
(72,700,l),
(68,623,l),
(82,624,o),
(122,625,o),
(143,626,c),
(140,609,o),
(136,572,o),
(134,536,cs),
(114,153,ls),
(110,72,o),
(83,68,o),
(39,66,c),
(35,0,l),
(320,0,l),
(324,77,l),
(310,77,o),
(270,76,o),
(249,74,c),
(252,91,o),
(255,128,o),
(257,164,cs),
(265,312,l),
(541,315,l),
(532,153,ls),
(528,72,o),
(501,68,o),
(456,66,c),
(453,0,l),
(737,0,l),
(741,77,l),
(727,77,o),
(688,76,o),
(666,74,c),
(669,91,o),
(673,128,o),
(675,164,cs),
(695,547,ls),
(699,628,o),
(726,632,o),
(771,634,c),
(774,700,l)
);
}
);
};
layerId = "6B2A2AD0-3CEC-4B3D-96BE-6A11A3496094";
shapes = (
{
ref = H;
},
{
closed = 1;
nodes = (
(52,538,l),
(50,485,l),
(755,489,l),
(757,538,l)
);
}
);
width = 802;
}
);
unicode = 294;
},
{
glyphname = Hcaron;
layers = (
{
background = {
anchors = (
{
name = bottom;
pos = (387,0);
},
{
name = center;
pos = (401,350);
},
{
name = top;
pos = (443,962);
}
);
shapes = (
{
closed = 1;
nodes = (
(489,700,l),
(485,623,l),
(500,624,o),
(539,625,o),
(561,626,c),
(557,609,o),
(554,572,o),
(552,536,cs),
(544,391,l),
(269,391,l),
(277,547,ls),
(281,628,o),
(308,632,o),
(353,634,c),
(356,700,l),
(72,700,l),
(68,623,l),
(82,624,o),
(122,625,o),
(143,626,c),
(140,609,o),
(136,572,o),
(134,536,cs),
(114,153,ls),
(110,72,o),
(83,68,o),
(39,66,c),
(35,0,l),
(320,0,l),
(324,77,l),
(310,77,o),
(270,76,o),
(249,74,c),
(252,91,o),
(255,128,o),
(257,164,cs),
(265,312,l),
(541,315,l),
(532,153,ls),
(528,72,o),
(501,68,o),
(456,66,c),
(453,0,l),
(737,0,l),
(741,77,l),
(727,77,o),
(688,76,o),
(666,74,c),
(669,91,o),
(673,128,o),
(675,164,cs),
(695,547,ls),
(699,628,o),
(726,632,o),
(771,634,c),
(774,700,l)
);
},
{
closed = 1;
nodes = (
(647,922,l),
(627,962,l),
(436,875,l),
(256,962,l),
(228,921,l),
(415,770,l),
(435,770,l)
);
}
);
};
layerId = "6B2A2AD0-3CEC-4B3D-96BE-6A11A3496094";
shapes = (
{
ref = H;
},
{
pos = (183,0);
ref = caroncomb.case;
}
);
width = 802;
},
{
background = {
anchors = (
{
name = bottom;
pos = (372,0);
},
{
name = center;
pos = (395,351);
},
{
name = top;
pos = (423,947);
}
);
shapes = (
{
closed = 1;
nodes = (
(519,700,l),
(517,656,l),
(541,657,o),
(565,659,o),
(589,660,c),
(586,640,o),
(583,615,o),
(582,588,cs),
(571,378,l),
(212,378,l),
(222,556,ls),
(226,627,o),
(232,664,o),
(297,667,c),
(299,700,l),
(78,700,l),
(76,656,l),
(100,657,o),
(124,659,o),
(148,660,c),
(145,640,o),
(143,615,o),
(141,588,cs),
(118,156,ls),
(114,85,o),
(118,36,o),
(43,33,c),
(41,0,l),
(262,0,l),
(264,44,l),
(240,43,o),
(216,41,o),
(192,40,c),
(195,57,o),
(197,83,o),
(199,119,cs),
(210,334,l),
(569,338,l),
(559,156,l),
(556,85,o),
(559,36,o),
(484,33,c),
(482,0,l),
(703,0,l),
(705,44,l),
(681,43,o),
(657,41,o),
(633,40,c),
(636,57,o),
(638,83,o),
(640,119,cs),
(663,557,ls),
(667,628,o),
(673,664,o),
(738,667,c),
(740,700,l)
);
},
{
closed = 1;
nodes = (
(607,921,l),
(592,947,l),
(415,850,l),
(248,945,l),
(229,916,l),
(412,773,l),
(414,773,l)
);
}
);
};
layerId = UUID0;
shapes = (
{
ref = H;
},
{
pos = (169,2);
ref = caroncomb.case;
}
);
width = 773;
}
);
unicode = 542;
},
{
glyphname = Hcircumflex;
kernLeft = I;
kernRight = I;
layers = (
{
background = {
anchors = (
{
name = bottom;
pos = (372,0);
},
{
name = center;
pos = (395,351);
},
{
name = top;
pos = (410,702);
}
);
shapes = (
{
closed = 1;
nodes = (
(519,700,l),
(517,656,l),
(541,657,o),
(565,659,o),
(589,660,c),
(586,640,o),
(583,615,o),
(582,588,cs),
(571,378,l),
(212,378,l),
(222,556,ls),
(226,627,o),
(232,664,o),
(297,667,c),
(299,700,l),
(78,700,l),
(76,656,l),
(100,657,o),
(124,659,o),
(148,660,c),
(145,640,o),
(143,615,o),
(141,588,cs),
(118,156,ls),
(114,85,o),
(118,36,o),
(43,33,c),
(41,0,l),
(262,0,l),
(264,44,l),
(240,43,o),
(216,41,o),
(192,40,c),
(195,57,o),
(197,83,o),
(199,119,cs),
(210,334,l),
(569,338,l),
(559,156,l),
(556,85,o),
(559,36,o),
(484,33,c),
(482,0,l),
(703,0,l),
(705,44,l),
(681,43,o),
(657,41,o),
(633,40,c),
(636,57,o),
(638,83,o),
(640,119,cs),
(663,557,ls),
(667,628,o),
(673,664,o),
(738,667,c),
(740,700,l)
);
},
{
closed = 1;
nodes = (
(607,791,l),
(426,932,l),
(424,932,l),
(228,792,l),
(243,765,l),
(413,852,l),
(589,763,l)
);
}
);
};
layerId = UUID0;
shapes = (
{
ref = H;
},
{
pos = (183,2);
ref = circumflexcomb.case;
}
);
width = 773;
},
{
background = {
anchors = (
{
name = bottom;
pos = (387,0);
},
{
name = center;
pos = (401,350);
},
{
name = top;
pos = (429,700);
}
);
shapes = (
{
closed = 1;
nodes = (
(489,700,l),
(485,623,l),
(500,624,o),
(539,625,o),
(561,626,c),
(557,609,o),
(554,572,o),
(552,536,cs),
(544,391,l),
(269,391,l),
(277,547,ls),
(281,628,o),
(308,632,o),
(353,634,c),
(356,700,l),
(72,700,l),
(68,623,l),
(82,624,o),
(122,625,o),
(143,626,c),
(140,609,o),
(136,572,o),
(134,536,cs),
(114,153,ls),
(110,72,o),
(83,68,o),
(39,66,c),
(35,0,l),
(320,0,l),
(324,77,l),
(310,77,o),
(270,76,o),
(249,74,c),
(252,91,o),
(255,128,o),
(257,164,cs),
(265,312,l),
(541,315,l),
(532,153,ls),
(528,72,o),
(501,68,o),
(456,66,c),
(453,0,l),
(737,0,l),
(741,77,l),
(727,77,o),
(688,76,o),
(666,74,c),
(669,91,o),
(673,128,o),
(675,164,cs),
(695,547,ls),
(699,628,o),
(726,632,o),
(771,634,c),
(774,700,l)
);
},
{
closed = 1;
nodes = (
(646,821,l),
(458,971,l),
(439,971,l),
(227,821,l),
(246,781,l),
(439,867,l),
(618,779,l)
);
}
);
};
layerId = "6B2A2AD0-3CEC-4B3D-96BE-6A11A3496094";
shapes = (
{
ref = H;
},
{
pos = (197,0);
ref = circumflexcomb.case;
}
);
width = 802;
}
);
unicode = 292;
},
{
glyphname = I;
kernLeft = I;
kernRight = I;
layers = (
{
anchors = (
{
name = bottom;
pos = (153,0);
},
{
name = ogonek;
pos = (262,0);
},
{
name = top;
pos = (197,702);
},
{
name = topleft;
pos = (33,700);
}
);
background = {
anchors = (
{
name = bottom;
pos = (153,0);
},
{
name = ogonek;
pos = (262,0);
},
{
name = top;
pos = (197,702);
},
{
name = topleft;
pos = (33,700);
}
);
shapes = (
{
closed = 1;
nodes = (
(78,700,l),
(76,656,l),
(100,657,o),
(124,659,o),
(148,660,c),
(145,640,o),
(142,615,o),
(141,588,cs),
(118,156,l),
(115,85,o),
(118,36,o),
(43,33,c),
(41,0,l),
(262,0,l),
(264,44,l),
(240,43,o),
(216,41,o),
(192,40,c),
(195,57,o),
(198,83,o),
(199,119,cs),
(222,554,ls),
(225,625,o),
(227,664,o),
(297,667,c),
(299,700,l)
);
}
);
};
layerId = UUID0;
shapes = (
{
closed = 1;
nodes = (
(78,700,l),
(76,656,l),
(100,657,o),
(124,659,o),
(148,660,c),
(145,640,o),
(142,615,o),
(141,588,cs),
(118,156,l),
(115,85,o),
(118,36,o),
(43,33,c),
(41,0,l),
(262,0,l),
(264,44,l),
(240,43,o),
(216,41,o),
(192,40,c),
(195,57,o),
(198,83,o),
(199,119,cs),
(222,554,ls),
(225,625,o),
(227,664,o),
(297,667,c),
(299,700,l)
);
}
);
width = 333;
},
{
anchors = (
{
name = bottom;
pos = (179,0);
},
{
name = ogonek;
pos = (318,0);
},
{
name = top;
pos = (226,700);
},
{
name = topleft;
pos = (33,700);
}
);
background = {
anchors = (
{
name = bottom;
pos = (179,0);
},
{
name = ogonek;
pos = (318,0);
},
{
name = top;
pos = (226,700);
},
{
name = topleft;
pos = (33,700);
}
);
shapes = (
{
closed = 1;
nodes = (
(72,700,l),
(68,623,l),
(82,624,o),
(122,625,o),
(143,626,c),
(140,609,o),
(136,572,o),
(134,536,cs),
(114,153,ls),
(110,72,o),
(83,68,o),
(39,66,c),
(35,0,l),
(320,0,l),
(324,77,l),
(310,77,o),
(270,76,o),
(249,74,c),
(252,91,o),
(255,128,o),
(257,164,cs),
(277,547,ls),
(281,628,o),
(308,632,o),
(353,634,c),
(356,700,l)
);
}
);
};
layerId = "6B2A2AD0-3CEC-4B3D-96BE-6A11A3496094";
shapes = (
{
closed = 1;
nodes = (
(72,700,l),
(68,623,l),
(82,624,o),
(122,625,o),
(143,626,c),
(140,609,o),
(136,572,o),
(134,536,cs),
(114,153,ls),
(110,72,o),
(83,68,o),
(39,66,c),
(35,0,l),
(320,0,l),
(324,77,l),
(310,77,o),
(270,76,o),
(249,74,c),
(252,91,o),
(255,128,o),
(257,164,cs),
(277,547,ls),
(281,628,o),
(308,632,o),
(353,634,c),
(356,700,l)
);
}
);
width = 384;
}
);
unicode = 73;
},
{
glyphname = Iacute;
kernLeft = I;
kernRight = I;
layers = (
{
background = {
anchors = (
{
name = bottom;
pos = (153,0);
},
{
name = ogonek;
pos = (262,0);
},
{
name = top;
pos = (197,702);
},
{
name = topleft;
pos = (33,700);
}
);
shapes = (
{
closed = 1;
nodes = (
(78,700,l),
(76,656,l),
(100,657,o),
(124,659,o),
(148,660,c),
(145,640,o),
(142,615,o),
(141,588,cs),
(118,156,l),
(115,85,o),
(118,36,o),
(43,33,c),
(41,0,l),
(262,0,l),
(264,44,l),
(240,43,o),
(216,41,o),
(192,40,c),
(195,57,o),
(198,83,o),
(199,119,cs),
(222,554,ls),
(225,625,o),
(227,664,o),
(297,667,c),
(299,700,l)
);
},
{
closed = 1;
nodes = (
(326,855,ls),
(370,883,o),
(358,909,o),
(351,917,cs),
(346,923,o),
(324,943,o),
(286,908,cs),
(159,790,l),
(180,762,l)
);
}
);
};
layerId = UUID0;
shapes = (
{
ref = I;
},
{
pos = (114,2);
ref = acutecomb.case;
}
);
width = 333;
},
{
background = {
anchors = (
{
name = bottom;
pos = (179,0);
},
{
name = ogonek;
pos = (318,0);
},
{
name = top;
pos = (226,700);
},
{
name = topleft;
pos = (33,700);
}
);
shapes = (
{
closed = 1;
nodes = (
(72,700,l),
(68,623,l),
(82,624,o),
(122,625,o),
(143,626,c),
(140,609,o),
(136,572,o),
(134,536,cs),
(114,153,ls),
(110,72,o),
(83,68,o),
(39,66,c),
(35,0,l),
(320,0,l),
(324,77,l),
(310,77,o),
(270,76,o),
(249,74,c),
(252,91,o),
(255,128,o),
(257,164,cs),
(277,547,ls),
(281,628,o),
(308,632,o),
(353,634,c),
(356,700,l)
);
},
{
closed = 1;
nodes = (
(345,854,l),
(378,873,o),
(403,909,o),
(380,943,cs),
(358,976,o),
(312,964,o),
(283,936,cs),
(161,818,l),
(195,770,l)
);
}
);
};
layerId = "6B2A2AD0-3CEC-4B3D-96BE-6A11A3496094";
shapes = (
{
ref = I;
},
{
pos = (116,0);
ref = acutecomb.case;
}
);
width = 384;
}
);
unicode = 205;
},
{
glyphname = Ibreve;
layers = (
{
background = {
anchors = (
{
name = bottom;
pos = (179,0);
},
{
name = ogonek;
pos = (318,0);
},
{
name = top;
pos = (226,700);
},
{
name = topleft;
pos = (33,700);
}
);
shapes = (
{
closed = 1;
nodes = (
(72,700,l),
(68,623,l),
(82,624,o),
(122,625,o),
(143,626,c),
(140,609,o),
(136,572,o),
(134,536,cs),
(114,153,ls),
(110,72,o),
(83,68,o),
(39,66,c),
(35,0,l),
(320,0,l),
(324,77,l),
(310,77,o),
(270,76,o),
(249,74,c),
(252,91,o),
(255,128,o),
(257,164,cs),
(277,547,ls),
(281,628,o),
(308,632,o),
(353,634,c),
(356,700,l)
);
},
{
closed = 1;
nodes = (
(298,787,o),
(376,814,o),
(415,894,c),
(361,934,l),
(333,905,o),
(297,879,o),
(239,879,cs),
(181,879,o),
(148,905,o),
(125,934,c),
(65,894,l),
(93,814,o),
(167,787,o),
(233,787,cs)
);
}
);
};
layerId = "6B2A2AD0-3CEC-4B3D-96BE-6A11A3496094";
shapes = (
{
ref = I;
},
{
pos = (19,0);
ref = brevecomb.case;
}
);
width = 384;
},
{
background = {
anchors = (
{
name = bottom;
pos = (153,0);
},
{
name = ogonek;
pos = (262,0);
},
{
name = top;
pos = (197,702);
},
{
name = topleft;
pos = (33,700);
}
);
shapes = (
{
closed = 1;
nodes = (
(78,700,l),
(76,656,l),
(100,657,o),
(124,659,o),
(148,660,c),
(145,640,o),
(142,615,o),
(141,588,cs),
(118,156,l),
(115,85,o),
(118,36,o),
(43,33,c),
(41,0,l),
(262,0,l),
(264,44,l),
(240,43,o),
(216,41,o),
(192,40,c),
(195,57,o),
(198,83,o),
(199,119,cs),
(222,554,ls),
(225,625,o),
(227,664,o),
(297,667,c),
(299,700,l)
);
},
{
closed = 1;
nodes = (
(271,811,o),
(328,847,o),
(364,914,c),
(338,926,l),
(315,898,o),
(265,872,o),
(215,872,cs),
(164,872,o),
(117,898,o),
(98,926,c),
(71,914,l),
(97,847,o),
(149,811,o),
(210,811,cs)
);
}
);
};
layerId = UUID0;
shapes = (
{
ref = I;
},
{
pos = (31,2);
ref = brevecomb.case;
}
);
width = 333;
}
);
unicode = 300;
},
{
glyphname = Icircumflex;
kernLeft = I;
kernRight = I;
layers = (
{
background = {
anchors = (
{
name = bottom;
pos = (153,0);
},
{
name = ogonek;
pos = (262,0);
},
{
name = top;
pos = (197,702);
},
{
name = topleft;
pos = (33,700);
}
);
shapes = (
{
closed = 1;
nodes = (
(78,700,l),
(76,656,l),
(100,657,o),
(124,659,o),
(148,660,c),
(145,640,o),
(142,615,o),
(141,588,cs),
(118,156,l),
(115,85,o),
(118,36,o),
(43,33,c),
(41,0,l),
(262,0,l),
(264,44,l),
(240,43,o),
(216,41,o),
(192,40,c),
(195,57,o),
(198,83,o),
(199,119,cs),
(222,554,ls),
(225,625,o),
(227,664,o),
(297,667,c),
(299,700,l)
);
},
{
closed = 1;
nodes = (
(368,793,l),
(214,934,l),
(213,934,l),
(46,794,l),
(62,774,l),
(205,854,l),
(349,766,l)
);
}
);
};
layerId = UUID0;
shapes = (
{
ref = I;
},
{
pos = (-32,2);
ref = circumflexcomb.case.i;
}
);
width = 333;
},
{
background = {
anchors = (
{
name = bottom;
pos = (179,0);
},
{
name = ogonek;
pos = (318,0);
},
{
name = top;
pos = (226,700);
},
{
name = topleft;
pos = (33,700);
}
);
shapes = (
{
closed = 1;
nodes = (
(72,700,l),
(68,623,l),
(82,624,o),
(122,625,o),
(143,626,c),
(140,609,o),
(136,572,o),
(134,536,cs),
(114,153,ls),
(110,72,o),
(83,68,o),
(39,66,c),
(35,0,l),
(320,0,l),
(324,77,l),
(310,77,o),
(270,76,o),
(249,74,c),
(252,91,o),
(255,128,o),
(257,164,cs),
(277,547,ls),
(281,628,o),
(308,632,o),
(353,634,c),
(356,700,l)
);
},
{
closed = 1;
nodes = (
(395,814,l),
(244,971,l),
(229,971,l),
(54,818,l),
(90,771,l),
(229,867,l),
(352,768,l)
);
}
);
};
layerId = "6B2A2AD0-3CEC-4B3D-96BE-6A11A3496094";
shapes = (
{
ref = I;
},
{
pos = (-26,0);
ref = circumflexcomb.case.i;
}
);
width = 384;
}
);
unicode = 206;
},
{
glyphname = Idieresis;
kernLeft = I;
kernRight = I;
layers = (
{
background = {
anchors = (
{
name = bottom;
pos = (153,0);
},
{
name = ogonek;
pos = (262,0);
},
{
name = top;
pos = (207,899);
},
{
name = topleft;
pos = (33,700);
}
);
shapes = (
{
closed = 1;
nodes = (
(78,700,l),
(76,656,l),
(100,657,o),
(124,659,o),
(148,660,c),
(145,640,o),
(142,615,o),
(141,588,cs),
(118,156,l),
(115,85,o),
(118,36,o),
(43,33,c),
(41,0,l),
(262,0,l),
(264,44,l),
(240,43,o),
(216,41,o),
(192,40,c),
(195,57,o),
(198,83,o),
(199,119,cs),
(222,554,ls),
(225,625,o),
(227,664,o),
(297,667,c),
(299,700,l)
);
},
{
closed = 1;
nodes = (
(146,780,o),
(171,806,o),
(172,839,cs),
(174,873,o),
(155,899,o),
(128,899,cs),
(100,899,o),
(75,873,o),
(74,839,cs),
(73,806,o),
(93,780,o),
(121,780,cs)
);
},
{
closed = 1;
nodes = (
(308,780,o),
(333,806,o),
(334,839,cs),
(335,873,o),
(317,899,o),
(289,899,cs),
(262,899,o),
(237,873,o),
(236,839,cs),
(235,806,o),
(255,780,o),
(282,780,cs)
);
}
);
};
layerId = UUID0;
shapes = (
{
ref = I;
},
{
pos = (28,2);
ref = dieresiscomb.case;
}
);
width = 333;
},
{
background = {
anchors = (
{
name = bottom;
pos = (179,0);
},
{
name = ogonek;
pos = (318,0);
},
{
name = top;
pos = (239,949);
},
{
name = topleft;
pos = (33,700);
}
);
shapes = (
{
closed = 1;
nodes = (
(72,700,l),
(68,623,l),
(82,624,o),
(122,625,o),
(143,626,c),
(140,609,o),
(136,572,o),
(134,536,cs),
(114,153,ls),
(110,72,o),
(83,68,o),
(39,66,c),
(35,0,l),
(320,0,l),
(324,77,l),
(310,77,o),
(270,76,o),
(249,74,c),
(252,91,o),
(255,128,o),
(257,164,cs),
(277,547,ls),
(281,628,o),
(308,632,o),
(353,634,c),
(356,700,l)
);
},
{
closed = 1;
nodes = (
(183,797,o),
(213,835,o),
(213,878,cs),
(213,917,o),
(189,949,o),
(154,949,cs),
(117,949,o),
(84,912,o),
(84,868,cs),
(84,828,o),
(110,797,o),
(144,797,cs)
);
},
{
closed = 1;
nodes = (
(357,797,o),
(387,834,o),
(387,878,cs),
(387,917,o),
(364,949,o),
(328,949,cs),
(291,949,o),
(259,912,o),
(259,868,cs),
(259,828,o),
(284,797,o),
(319,797,cs)
);
}
);
};
layerId = "6B2A2AD0-3CEC-4B3D-96BE-6A11A3496094";
shapes = (
{
ref = I;
},
{
pos = (39,0);
ref = dieresiscomb.case;
}
);
width = 384;
}
);
unicode = 207;
},
{
glyphname = Idotaccent;
kernLeft = I;
kernRight = I;
layers = (
{
background = {
anchors = (
{
name = bottom;
pos = (153,0);
},
{
name = ogonek;
pos = (262,0);
},
{
name = top;
pos = (197,702);
},
{
name = topleft;
pos = (33,700);
}
);
shapes = (
{
closed = 1;
nodes = (
(78,700,l),
(76,656,l),
(100,657,o),
(124,659,o),
(148,660,c),
(145,640,o),
(142,615,o),
(141,588,cs),
(118,156,l),
(115,85,o),
(118,36,o),
(43,33,c),
(41,0,l),
(262,0,l),
(264,44,l),
(240,43,o),
(216,41,o),
(192,40,c),
(195,57,o),
(198,83,o),
(199,119,cs),
(222,554,ls),
(225,625,o),
(227,664,o),
(297,667,c),
(299,700,l)
);
},
{
closed = 1;
nodes = (
(181,915,o),
(155,890,o),
(153,857,cs),
(152,824,o),
(174,799,o),
(203,799,cs),
(230,799,o),
(257,824,o),
(258,857,cs),
(260,890,o),
(239,915,o),
(210,915,cs)
);
}
);
};
layerId = UUID0;
shapes = (
{
ref = I;
},
{
pos = (106,190);
ref = dotaccentcomb;
}
);
width = 333;
},
{
background = {
anchors = (
{
name = bottom;
pos = (179,0);
},
{
name = ogonek;
pos = (318,0);
},
{
name = top;
pos = (226,700);
},
{
name = topleft;
pos = (33,700);
}
);
shapes = (
{
closed = 1;
nodes = (
(72,700,l),
(68,623,l),
(82,624,o),
(122,625,o),
(143,626,c),
(140,609,o),
(136,572,o),
(134,536,cs),
(114,153,ls),
(110,72,o),
(83,68,o),
(39,66,c),
(35,0,l),
(320,0,l),
(324,77,l),
(310,77,o),
(270,76,o),
(249,74,c),
(252,91,o),
(255,128,o),
(257,164,cs),
(277,547,ls),
(281,628,o),
(308,632,o),
(353,634,c),
(356,700,l)
);
},
{
closed = 1;
nodes = (
(195,953,o),
(162,921,o),
(160,881,cs),
(158,842,o),
(184,809,o),
(224,809,cs),
(264,809,o),
(292,842,o),
(294,881,cs),
(296,921,o),
(269,953,o),
(231,953,cs)
);
}
);
};
layerId = "6B2A2AD0-3CEC-4B3D-96BE-6A11A3496094";
shapes = (
{
ref = I;
},
{
pos = (113,200);
ref = dotaccentcomb;
}
);
width = 384;
}
);
unicode = 304;
},
{
glyphname = Idotbelow;
layers = (
{
background = {
anchors = (
{
name = bottom;
pos = (142,-187);
},
{
name = ogonek;
pos = (262,0);
},
{
name = top;
pos = (197,702);
},
{
name = topleft;
pos = (33,700);
}
);
shapes = (
{
closed = 1;
nodes = (
(78,700,l),
(76,656,l),
(100,657,o),
(124,659,o),
(148,660,c),
(145,640,o),
(142,615,o),
(141,588,cs),
(118,156,l),
(115,85,o),
(118,36,o),
(43,33,c),
(41,0,l),
(262,0,l),
(264,44,l),
(240,43,o),
(216,41,o),
(192,40,c),
(195,57,o),
(198,83,o),
(199,119,cs),
(222,554,ls),
(225,625,o),
(227,664,o),
(297,667,c),
(299,700,l)
);
},
{
closed = 1;
nodes = (
(124,-82,o),
(100,-105,o),
(99,-134,cs),
(98,-164,o),
(118,-186,o),
(143,-186,cs),
(168,-186,o),
(192,-164,o),
(193,-134,cs),
(194,-105,o),
(176,-82,o),
(150,-82,cs)
);
}
);
};
layerId = UUID0;
shapes = (
{
ref = I;
},
{
pos = (54,0);
ref = dotbelowcomb;
}
);
width = 333;
},
{
background = {
anchors = (
{
name = bottom;
pos = (169,-198);
},
{
name = ogonek;
pos = (318,0);
},
{
name = top;
pos = (226,700);
},
{
name = topleft;
pos = (33,700);
}
);
shapes = (
{
closed = 1;
nodes = (
(72,700,l),
(68,623,l),
(82,624,o),
(122,625,o),
(143,626,c),
(140,609,o),
(136,572,o),
(134,536,cs),
(114,153,ls),
(110,72,o),
(83,68,o),
(39,66,c),
(35,0,l),
(320,0,l),
(324,77,l),
(310,77,o),
(270,76,o),
(249,74,c),
(252,91,o),
(255,128,o),
(257,164,cs),
(277,547,ls),
(281,628,o),
(308,632,o),
(353,634,c),
(356,700,l)
);
},
{
closed = 1;
nodes = (
(144,-69,o),
(114,-98,o),
(112,-134,cs),
(110,-169,o),
(134,-198,o),
(170,-198,cs),
(206,-198,o),
(230,-169,o),
(232,-134,cs),
(234,-98,o),
(210,-69,o),
(176,-69,cs)
);
}
);
};
layerId = "6B2A2AD0-3CEC-4B3D-96BE-6A11A3496094";
shapes = (
{
ref = I;
},
{
pos = (80,0);
ref = dotbelowcomb;
}
);
width = 384;
}
);
unicode = 7882;
},
{
glyphname = Igrave;
kernLeft = I;
kernRight = I;
layers = (
{
background = {
anchors = (
{
name = bottom;
pos = (153,0);
},
{
name = ogonek;
pos = (262,0);
},
{
name = top;
pos = (169,928);
},
{
name = topleft;
pos = (33,700);
}
);
shapes = (
{
closed = 1;
nodes = (
(78,700,l),
(76,656,l),
(100,657,o),
(124,659,o),
(148,660,c),
(145,640,o),
(142,615,o),
(141,588,cs),
(118,156,l),
(115,85,o),
(118,36,o),
(43,33,c),
(41,0,l),
(262,0,l),
(264,44,l),
(240,43,o),
(216,41,o),
(192,40,c),
(195,57,o),
(198,83,o),
(199,119,cs),
(222,554,ls),
(225,625,o),
(227,664,o),
(297,667,c),
(299,700,l)
);
},
{
closed = 1;
nodes = (
(264,790,l),
(137,908,ls),
(99,943,o),
(77,923,o),
(72,917,cs),
(65,909,o),
(53,883,o),
(97,855,cs),
(243,762,l)
);
}
);
};
layerId = UUID0;
shapes = (
{
ref = I;
},
{
pos = (20,2);
ref = gravecomb.case;
}
);
width = 333;
},
{
background = {
anchors = (
{
name = bottom;
pos = (179,0);
},
{
name = ogonek;
pos = (318,0);
},
{
name = top;
pos = (210,963);
},
{
name = topleft;
pos = (33,700);
}
);
shapes = (
{
closed = 1;
nodes = (
(72,700,l),
(68,623,l),
(82,624,o),
(122,625,o),
(143,626,c),
(140,609,o),
(136,572,o),
(134,536,cs),
(114,153,ls),
(110,72,o),
(83,68,o),
(39,66,c),
(35,0,l),
(320,0,l),
(324,77,l),
(310,77,o),
(270,76,o),
(249,74,c),
(252,91,o),
(255,128,o),
(257,164,cs),
(277,547,ls),
(281,628,o),
(308,632,o),
(353,634,c),
(356,700,l)
);
},
{
closed = 1;
nodes = (
(314,819,l),
(205,936,ls),
(178,964,o),
(134,977,o),
(108,943,cs),
(81,910,o),
(104,873,o),
(134,854,c),
(275,770,l)
);
}
);
};
layerId = "6B2A2AD0-3CEC-4B3D-96BE-6A11A3496094";
shapes = (
{
ref = I;
},
{
pos = (51,0);
ref = gravecomb.case;
}
);
width = 384;
}
);
unicode = 204;
},
{
glyphname = Ihookabove;
layers = (
{
background = {
anchors = (
{
name = bottom;
pos = (153,0);
},
{
name = ogonek;
pos = (262,0);
},
{
name = top;
pos = (207,946);
},
{
name = topleft;
pos = (33,700);
}
);
shapes = (
{
closed = 1;
nodes = (
(78,700,l),
(76,656,l),
(100,657,o),
(124,659,o),
(148,660,c),
(145,640,o),
(142,615,o),
(141,588,cs),
(118,156,l),
(115,85,o),
(118,36,o),
(43,33,c),
(41,0,l),
(262,0,l),
(264,44,l),
(240,43,o),
(216,41,o),
(192,40,c),
(195,57,o),
(198,83,o),
(199,119,cs),
(222,554,ls),
(225,625,o),
(227,664,o),
(297,667,c),
(299,700,l)
);
},
{
closed = 1;
nodes = (
(211,756,l),
(212,767,o),
(226,776,o),
(243,788,cs),
(268,806,o),
(286,823,o),
(288,857,cs),
(290,897,o),
(253,938,o),
(183,938,cs),
(116,938,o),
(78,902,o),
(75,868,cs),
(73,841,o),
(90,830,o),
(106,830,cs),
(122,830,o),
(138,840,o),
(138,856,cs),
(138,862,o),
(136,868,o),
(133,872,c),
(136,886,o),
(158,902,o),
(182,902,cs),
(215,902,o),
(234,877,o),
(232,850,cs),
(231,836,o),
(224,820,o),
(211,809,cs),
(193,794,o),
(171,780,o),
(170,756,c)
);
}
);
};
layerId = UUID0;
shapes = (
{
ref = I;
},
{
pos = (30,190);
ref = hookabovecomb;
}
);
width = 333;
},
{
background = {
anchors = (
{
name = bottom;
pos = (179,0);
},
{
name = ogonek;
pos = (318,0);
},
{
name = top;
pos = (245,956);
},
{
name = topleft;
pos = (33,700);
}
);
shapes = (
{
closed = 1;
nodes = (
(72,700,l),
(68,623,l),
(82,624,o),
(122,625,o),
(143,626,c),
(140,609,o),
(136,572,o),
(134,536,cs),
(114,153,ls),
(110,72,o),
(83,68,o),
(39,66,c),
(35,0,l),
(320,0,l),
(324,77,l),
(310,77,o),
(270,76,o),
(249,74,c),
(252,91,o),
(255,128,o),
(257,164,cs),
(277,547,ls),
(281,628,o),
(308,632,o),
(353,634,c),
(356,700,l)
);
},
{
closed = 1;
nodes = (
(284,759,l),
(284,771,o),
(296,785,o),
(313,798,cs),
(333,814,o),
(356,828,o),
(358,864,cs),
(361,921,o),
(317,957,o),
(238,957,cs),
(167,957,o),
(124,908,o),
(121,863,cs),
(119,835,o),
(140,812,o),
(171,812,cs),
(194,812,o),
(206,828,o),
(207,843,cs),
(208,857,o),
(199,870,o),
(179,870,c),
(181,879,o),
(197,897,o),
(235,897,cs),
(263,897,o),
(285,883,o),
(283,855,cs),
(282,838,o),
(273,826,o),
(264,816,cs),
(247,798,o),
(223,787,o),
(222,759,c)
);
}
);
};
layerId = "6B2A2AD0-3CEC-4B3D-96BE-6A11A3496094";
shapes = (
{
ref = I;
},
{
pos = (38,200);
ref = hookabovecomb;
}
);
width = 384;
}
);
unicode = 7880;
},
{
glyphname = Imacron;
kernLeft = I;
kernRight = I;
layers = (
{
background = {
anchors = (
{
name = bottom;
pos = (153,0);
},
{
name = ogonek;
pos = (262,0);
},
{
name = top;
pos = (197,702);
},
{
name = topleft;
pos = (33,700);
}
);
shapes = (
{
closed = 1;
nodes = (
(78,700,l),
(76,656,l),
(100,657,o),
(124,659,o),
(148,660,c),
(145,640,o),
(142,615,o),
(141,588,cs),
(118,156,l),
(115,85,o),
(118,36,o),
(43,33,c),
(41,0,l),
(262,0,l),
(264,44,l),
(240,43,o),
(216,41,o),
(192,40,c),
(195,57,o),
(198,83,o),
(199,119,cs),
(222,554,ls),
(225,625,o),
(227,664,o),
(297,667,c),
(299,700,l)
);
},
{
closed = 1;
nodes = (
(337,839,l),
(340,891,l),
(75,891,l),
(72,835,l)
);
}
);
};
layerId = UUID0;
shapes = (
{
ref = I;
},
{
pos = (27,190);
ref = macroncomb;
}
);
width = 333;
},
{
background = {
anchors = (
{
name = bottom;
pos = (179,0);
},
{
name = ogonek;
pos = (318,0);
},
{
name = top;
pos = (226,700);
},
{
name = topleft;
pos = (33,700);
}
);
shapes = (
{
closed = 1;
nodes = (
(72,700,l),
(68,623,l),
(82,624,o),
(122,625,o),
(143,626,c),
(140,609,o),
(136,572,o),
(134,536,cs),
(114,153,ls),
(110,72,o),
(83,68,o),
(39,66,c),
(35,0,l),
(320,0,l),
(324,77,l),
(310,77,o),
(270,76,o),
(249,74,c),
(252,91,o),
(255,128,o),
(257,164,cs),
(277,547,ls),
(281,628,o),
(308,632,o),
(353,634,c),
(356,700,l)
);
},
{
closed = 1;
nodes = (
(366,832,l),
(370,922,l),
(86,922,l),
(82,829,l)
);
}
);
};
layerId = "6B2A2AD0-3CEC-4B3D-96BE-6A11A3496094";
shapes = (
{
ref = I;
},
{
pos = (37,200);
ref = macroncomb;
}
);
width = 384;
}
);
unicode = 298;
},
{
glyphname = Iogonek;
kernLeft = I;
kernRight = I;
layers = (
{
background = {
anchors = (
{
name = bottom;
pos = (153,0);
},
{
name = ogonek;
pos = (262,0);
},
{
name = top;
pos = (197,702);
},
{
name = topleft;
pos = (33,700);
}
);
shapes = (
{
closed = 1;
nodes = (
(78,700,l),
(76,656,l),
(100,657,o),
(124,659,o),
(148,660,c),
(145,640,o),
(142,615,o),
(141,588,cs),
(118,156,l),
(115,85,o),
(118,36,o),
(43,33,c),
(41,0,l),
(262,0,l),
(264,44,l),
(240,43,o),
(216,41,o),
(192,40,c),
(195,57,o),
(198,83,o),
(199,119,cs),
(222,554,ls),
(225,625,o),
(227,664,o),
(297,667,c),
(299,700,l)
);
},
{
closed = 1;
nodes = (
(188,-284,o),
(235,-252,o),
(263,-221,c),
(249,-204,l),
(224,-226,o),
(197,-236,o),
(173,-236,cs),
(134,-236,o),
(113,-208,o),
(113,-166,cs),
(113,-95,o),
(184,-30,o),
(262,0,c),
(264,26,l),
(160,-7,o),
(55,-84,o),
(50,-182,cs),
(47,-242,o),
(81,-284,o),
(140,-284,cs)
);
}
);
};
layerId = UUID0;
shapes = (
{
ref = I;
},
{
pos = (4,-27);
ref = ogonekcomb;
}
);
width = 333;
},
{
background = {
anchors = (
{
name = bottom;
pos = (179,0);
},
{
name = ogonek;
pos = (318,0);
},
{
name = top;
pos = (226,700);
},
{
name = topleft;
pos = (33,700);
}
);
shapes = (
{
closed = 1;
nodes = (
(72,700,l),
(68,623,l),
(82,624,o),
(122,625,o),
(143,626,c),
(140,609,o),
(136,572,o),
(134,536,cs),
(114,153,ls),
(110,72,o),
(83,68,o),
(39,66,c),
(35,0,l),
(320,0,l),
(324,77,l),
(310,77,o),
(270,76,o),
(249,74,c),
(252,91,o),
(255,128,o),
(257,164,cs),
(277,547,ls),
(281,628,o),
(308,632,o),
(353,634,c),
(356,700,l)
);
},
{
closed = 1;
nodes = (
(234,-265,o),
(285,-234,o),
(323,-188,c),
(290,-145,l),
(268,-164,o),
(246,-174,o),
(226,-174,cs),
(199,-174,o),
(184,-158,o),
(185,-134,cs),
(186,-78,o),
(253,-26,o),
(318,0,c),
(322,62,l),
(205,24,o),
(92,-62,o),
(87,-162,cs),
(83,-230,o),
(126,-265,o),
(187,-265,cs)
);
}
);
};
layerId = "6B2A2AD0-3CEC-4B3D-96BE-6A11A3496094";
shapes = (
{
ref = I;
},
{
pos = (41,0);
ref = ogonekcomb;
}
);
width = 384;
}
);
unicode = 302;
},
{
glyphname = Itilde;
layers = (
{
background = {
anchors = (
{
name = bottom;
pos = (153,0);
},
{
name = ogonek;
pos = (262,0);
},
{
name = top;
pos = (209,911);
},
{
name = topleft;
pos = (33,700);
}
);
shapes = (
{
closed = 1;
nodes = (
(78,700,l),
(76,656,l),
(100,657,o),
(124,659,o),
(148,660,c),
(145,640,o),
(142,615,o),
(141,588,cs),
(118,156,l),
(115,85,o),
(118,36,o),
(43,33,c),
(41,0,l),
(262,0,l),
(264,44,l),
(240,43,o),
(216,41,o),
(192,40,c),
(195,57,o),
(198,83,o),
(199,119,cs),
(222,554,ls),
(225,625,o),
(227,664,o),
(297,667,c),
(299,700,l)
);
},
{
closed = 1;
nodes = (
(84,844,o),
(114,860,o),
(137,860,cs),
(184,860,o),
(208,807,o),
(270,807,cs),
(305,807,o),
(348,832,o),
(373,898,c),
(349,910,l),
(327,877,o),
(304,858,o),
(273,859,cs),
(229,860,o),
(208,913,o),
(145,911,cs),
(108,910,o),
(58,875,o),
(39,828,c),
(64,815,l)
);
}
);
};
layerId = UUID0;
shapes = (
{
ref = I;
},
{
pos = (-35,190);
ref = tildecomb;
}
);
width = 333;
},
{
background = {
anchors = (
{
name = bottom;
pos = (179,0);
},
{
name = ogonek;
pos = (318,0);
},
{
name = top;
pos = (239,951);
},
{
name = topleft;
pos = (33,700);
}
);
shapes = (
{
closed = 1;
nodes = (
(72,700,l),
(68,623,l),
(82,624,o),
(122,625,o),
(143,626,c),
(140,609,o),
(136,572,o),
(134,536,cs),
(114,153,ls),
(110,72,o),
(83,68,o),
(39,66,c),
(35,0,l),
(320,0,l),
(324,77,l),
(310,77,o),
(270,76,o),
(249,74,c),
(252,91,o),
(255,128,o),
(257,164,cs),
(277,547,ls),
(281,628,o),
(308,632,o),
(353,634,c),
(356,700,l)
);
},
{
closed = 1;
nodes = (
(131,838,o),
(159,847,o),
(175,847,cs),
(214,847,o),
(242,809,o),
(295,809,cs),
(335,809,o),
(385,839,o),
(412,923,c),
(359,951,l),
(342,920,o),
(319,900,o),
(295,900,cs),
(247,900,o),
(235,938,o),
(173,938,cs),
(129,938,o),
(79,900,o),
(58,840,c),
(111,806,l)
);
}
);
};
layerId = "6B2A2AD0-3CEC-4B3D-96BE-6A11A3496094";
shapes = (
{
ref = I;
},
{
pos = (-13,200);
ref = tildecomb;
}
);
width = 384;
}
);
unicode = 296;
},
{
glyphname = J;
kernLeft = J;
kernRight = J;
layers = (
{
anchors = (
{
name = top;
pos = (237,702);
}
);
background = {
anchors = (
{
name = top;
pos = (237,702);
}
);
shapes = (
{
closed = 1;
nodes = (
(99,700,l),
(97,656,l),
(131,657,o),
(165,659,o),
(199,660,c),
(197,623,o),
(195,587,o),
(193,550,c),
(173,153,ls),
(167,34,o),
(129,25,o),
(106,24,cs),
(95,24,o),
(79,29,o),
(73,40,c),
(76,46,o),
(77,56,o),
(77,63,cs),
(77,83,o),
(63,109,o),
(30,107,cs),
(2,105,o),
(-14,82,o),
(-14,55,cs),
(-14,2,o),
(39,-16,o),
(87,-16,cs),
(203,-16,o),
(250,56,o),
(260,244,cs),
(276,568,ls),
(279,624,o),
(292,667,o),
(358,667,c),
(361,700,l)
);
}
);
};
layerId = UUID0;
shapes = (
{
closed = 1;
nodes = (
(99,700,l),
(97,656,l),
(131,657,o),
(165,659,o),
(199,660,c),
(197,623,o),
(195,587,o),
(193,550,c),
(173,153,ls),
(167,34,o),
(129,25,o),
(106,24,cs),
(95,24,o),
(79,29,o),
(73,40,c),
(76,46,o),
(77,56,o),
(77,63,cs),
(77,83,o),
(63,109,o),
(30,107,cs),
(2,105,o),
(-14,82,o),
(-14,55,cs),
(-14,2,o),
(39,-16,o),
(87,-16,cs),
(203,-16,o),
(250,56,o),
(260,244,cs),
(276,568,ls),
(279,624,o),
(292,667,o),
(358,667,c),
(361,700,l)
);
}
);
width = 367;
},
{
anchors = (
{
name = top;
pos = (310,700);
}
);
background = {
anchors = (
{
name = top;
pos = (310,700);
}
);
shapes = (
{
closed = 1;
nodes = (
(151,700,l),
(147,623,l),
(161,624,o),
(206,625,o),
(227,626,c),
(224,609,o),
(220,572,o),
(218,536,cs),
(197,135,ls),
(194,79,o),
(178,56,o),
(149,56,cs),
(142,56,o),
(125,59,o),
(120,72,c),
(126,84,o),
(130,98,o),
(130,109,cs),
(130,143,o),
(112,177,o),
(62,174,cs),
(17,172,o),
(-9,133,o),
(-11,91,cs),
(-15,29,o),
(47,-16,o),
(125,-16,cs),
(260,-16,o),
(335,62,o),
(346,254,cs),
(361,547,ls),
(365,628,o),
(392,632,o),
(437,634,c),
(440,700,l)
);
}
);
};
layerId = "6B2A2AD0-3CEC-4B3D-96BE-6A11A3496094";
shapes = (
{
closed = 1;
nodes = (
(151,700,l),
(147,623,l),
(161,624,o),
(206,625,o),
(227,626,c),
(224,609,o),
(220,572,o),
(218,536,cs),
(197,135,ls),
(194,79,o),
(178,56,o),
(149,56,cs),
(142,56,o),
(125,59,o),
(120,72,c),
(126,84,o),
(130,98,o),
(130,109,cs),
(130,143,o),
(112,177,o),
(62,174,cs),
(17,172,o),
(-9,133,o),
(-11,91,cs),
(-15,29,o),
(47,-16,o),
(125,-16,cs),
(260,-16,o),
(335,62,o),
(346,254,cs),
(361,547,ls),
(365,628,o),
(392,632,o),
(437,634,c),
(440,700,l)
);
}
);
width = 445;
}
);
unicode = 74;
},
{
glyphname = Jcircumflex;
kernLeft = J;
kernRight = J;
layers = (
{
background = {
anchors = (
{
name = top;
pos = (237,702);
}
);
shapes = (
{
closed = 1;
nodes = (
(99,700,l),
(97,656,l),
(131,657,o),
(165,659,o),
(199,660,c),
(197,623,o),
(195,587,o),
(193,550,c),
(173,153,ls),
(167,34,o),
(129,25,o),
(106,24,cs),
(95,24,o),
(79,29,o),
(73,40,c),
(76,46,o),
(77,56,o),
(77,63,cs),
(77,83,o),
(63,109,o),
(30,107,cs),
(2,105,o),
(-14,82,o),
(-14,55,cs),
(-14,2,o),
(39,-16,o),
(87,-16,cs),
(203,-16,o),
(250,56,o),
(260,244,cs),
(276,568,ls),
(279,624,o),
(292,667,o),
(358,667,c),
(361,700,l)
);
},
{
closed = 1;
nodes = (
(408,793,l),
(254,934,l),
(253,934,l),
(86,794,l),
(102,774,l),
(245,854,l),
(389,766,l)
);
}
);
};
layerId = UUID0;
shapes = (
{
ref = J;
},
{
pos = (8,2);
ref = circumflexcomb.case.i;
}
);
width = 367;
},
{
background = {
anchors = (
{
name = top;
pos = (310,700);
}
);
shapes = (
{
closed = 1;
nodes = (
(151,700,l),
(147,623,l),
(161,624,o),
(206,625,o),
(227,626,c),
(224,609,o),
(220,572,o),
(218,536,cs),
(197,135,ls),
(194,79,o),
(178,56,o),
(149,56,cs),
(142,56,o),
(125,59,o),
(120,72,c),
(126,84,o),
(130,98,o),
(130,109,cs),
(130,143,o),
(112,177,o),
(62,174,cs),
(17,172,o),
(-9,133,o),
(-11,91,cs),
(-15,29,o),
(47,-16,o),
(125,-16,cs),
(260,-16,o),
(335,62,o),
(346,254,cs),
(361,547,ls),
(365,628,o),
(392,632,o),
(437,634,c),
(440,700,l)
);
},
{
closed = 1;
nodes = (
(479,814,l),
(328,971,l),
(313,971,l),
(138,818,l),
(174,771,l),
(313,867,l),
(436,768,l)
);
}
);
};
layerId = "6B2A2AD0-3CEC-4B3D-96BE-6A11A3496094";
shapes = (
{
ref = J;
},
{
pos = (58,0);
ref = circumflexcomb.case.i;
}
);
width = 445;
}
);
unicode = 308;
},
{
glyphname = K;
kernLeft = I;
kernRight = K;
layers = (
{
anchors = (
{
name = bottom;
pos = (320,0);
},
{
name = top;
pos = (368,702);
}
);
background = {
anchors = (
{
name = bottom;
pos = (320,0);
},
{
name = top;
pos = (368,702);
}
);
shapes = (
{
closed = 1;
nodes = (
(262,0,l),
(264,44,l),
(240,43,o),
(216,41,o),
(192,40,c),
(195,57,o),
(197,83,o),
(199,119,cs),
(211,340,l),
(229,340,o),
(246,341,o),
(264,341,c),
(287,326,o),
(313,293,o),
(335,260,cs),
(446,98,l),
(483,47,o),
(522,0,o),
(542,0,cs),
(660,0,l),
(662,33,l),
(619,33,o),
(591,41,o),
(521,142,c),
(416,291,ls),
(394,322,o),
(375,353,o),
(338,376,c),
(444,532,ls),
(518,641,o),
(569,660,o),
(653,667,c),
(655,700,l),
(440,700,l),
(438,659,l),
(459,660,o),
(480,660,o),
(501,661,c),
(469,638,o),
(442,604,o),
(424,577,cs),
(291,380,l),
(213,380,l),
(222,554,ls),
(226,625,o),
(232,664,o),
(297,667,c),
(299,700,l),
(78,700,l),
(76,656,l),
(100,657,o),
(124,659,o),
(148,660,c),
(145,640,o),
(143,615,o),
(141,588,cs),
(118,156,l),
(115,85,o),
(118,36,o),
(43,33,c),
(41,0,l)
);
}
);
};
layerId = UUID0;
shapes = (
{
closed = 1;
nodes = (
(262,0,l),
(264,44,l),
(240,43,o),
(216,41,o),
(192,40,c),
(195,57,o),
(197,83,o),
(199,119,cs),
(211,340,l),
(229,340,o),
(246,341,o),
(264,341,c),
(287,326,o),
(313,293,o),
(335,260,cs),
(446,98,l),
(483,47,o),
(522,0,o),
(542,0,cs),
(660,0,l),
(662,33,l),
(619,33,o),
(591,41,o),
(521,142,c),
(416,291,ls),
(394,322,o),
(375,353,o),
(338,376,c),
(444,532,ls),
(518,641,o),
(569,660,o),
(653,667,c),
(655,700,l),
(440,700,l),
(438,659,l),
(459,660,o),
(480,660,o),
(501,661,c),
(469,638,o),
(442,604,o),
(424,577,cs),
(291,380,l),
(213,380,l),
(222,554,ls),
(226,625,o),
(232,664,o),
(297,667,c),
(299,700,l),
(78,700,l),
(76,656,l),
(100,657,o),
(124,659,o),
(148,660,c),
(145,640,o),
(143,615,o),
(141,588,cs),
(118,156,l),
(115,85,o),
(118,36,o),
(43,33,c),
(41,0,l)
);
}
);
width = 667;
},
{
anchors = (
{
name = bottom;
pos = (355,0);
},
{
name = top;
pos = (393,700);
}
);
background = {
anchors = (
{
name = bottom;
pos = (355,0);
},
{
name = top;
pos = (393,700);
}
);
shapes = (
{
closed = 1;
nodes = (
(320,0,l),
(324,77,l),
(310,77,o),
(270,76,o),
(249,74,c),
(252,91,o),
(255,128,o),
(257,164,cs),
(265,315,l),
(277,315,o),
(299,315,o),
(301,315,c),
(318,302,o),
(339,271,o),
(356,246,c),
(447,102,ls),
(472,63,o),
(523,1,o),
(540,0,c),
(692,0,l),
(696,66,l),
(651,68,o),
(608,117,o),
(570,174,cs),
(476,319,ls),
(462,341,o),
(442,361,o),
(417,378,c),
(521,532,ls),
(581,621,o),
(636,632,o),
(681,634,c),
(684,700,l),
(439,700,l),
(436,623,l),
(450,624,o),
(478,625,o),
(499,627,c),
(481,612,o),
(451,566,o),
(425,526,cs),
(342,395,l),
(269,395,l),
(277,547,ls),
(281,628,o),
(308,632,o),
(353,634,c),
(356,700,l),
(72,700,l),
(68,623,l),
(82,624,o),
(122,625,o),
(143,626,c),
(140,609,o),
(136,572,o),
(134,536,cs),
(114,153,ls),
(110,72,o),
(83,68,o),
(39,66,c),
(35,0,l)
);
}
);
};
layerId = "6B2A2AD0-3CEC-4B3D-96BE-6A11A3496094";
shapes = (
{
closed = 1;
nodes = (
(320,0,l),
(324,77,l),
(310,77,o),
(270,76,o),
(249,74,c),
(252,91,o),
(255,128,o),
(257,164,cs),
(265,315,l),
(277,315,o),
(299,315,o),
(301,315,c),
(318,302,o),
(339,271,o),
(356,246,c),
(447,102,ls),
(472,63,o),
(523,1,o),
(540,0,c),
(692,0,l),
(696,66,l),
(651,68,o),
(608,117,o),
(570,174,cs),
(476,319,ls),
(462,341,o),
(442,361,o),
(417,378,c),
(521,532,ls),
(581,621,o),
(636,632,o),
(681,634,c),
(684,700,l),
(439,700,l),
(436,623,l),
(450,624,o),
(478,625,o),
(499,627,c),
(481,612,o),
(451,566,o),
(425,526,cs),
(342,395,l),
(269,395,l),
(277,547,ls),
(281,628,o),
(308,632,o),
(353,634,c),
(356,700,l),
(72,700,l),
(68,623,l),
(82,624,o),
(122,625,o),
(143,626,c),
(140,609,o),
(136,572,o),
(134,536,cs),
(114,153,ls),
(110,72,o),
(83,68,o),
(39,66,c),
(35,0,l)
);
}
);
width = 711;
}
);
unicode = 75;
},
{
glyphname = Kcaron;
layers = (
{
background = {
anchors = (
{
name = bottom;
pos = (355,0);
},
{
name = top;
pos = (407,962);
}
);
shapes = (
{
closed = 1;
nodes = (
(320,0,l),
(324,77,l),
(310,77,o),
(270,76,o),
(249,74,c),
(252,91,o),
(255,128,o),
(257,164,cs),
(265,315,l),
(277,315,o),
(299,315,o),
(301,315,c),
(318,302,o),
(339,271,o),
(356,246,c),
(447,102,ls),
(472,63,o),
(523,1,o),
(540,0,c),
(692,0,l),
(696,66,l),
(651,68,o),
(608,117,o),
(570,174,cs),
(476,319,ls),
(462,341,o),
(442,361,o),
(417,378,c),
(521,532,ls),
(581,621,o),
(636,632,o),
(681,634,c),
(684,700,l),
(439,700,l),
(436,623,l),
(450,624,o),
(478,625,o),
(499,627,c),
(481,612,o),
(451,566,o),
(425,526,cs),
(342,395,l),
(269,395,l),
(277,547,ls),
(281,628,o),
(308,632,o),
(353,634,c),
(356,700,l),
(72,700,l),
(68,623,l),
(82,624,o),
(122,625,o),
(143,626,c),
(140,609,o),
(136,572,o),
(134,536,cs),
(114,153,ls),
(110,72,o),
(83,68,o),
(39,66,c),
(35,0,l)
);
},
{
closed = 1;
nodes = (
(611,922,l),
(591,962,l),
(400,875,l),
(220,962,l),
(192,921,l),
(379,770,l),
(399,770,l)
);
}
);
};
layerId = "6B2A2AD0-3CEC-4B3D-96BE-6A11A3496094";
shapes = (
{
ref = K;
},
{
pos = (147,0);
ref = caroncomb.case;
}
);
width = 711;
},
{
background = {
anchors = (
{
name = bottom;
pos = (320,0);
},
{
name = top;
pos = (381,947);
}
);
shapes = (
{
closed = 1;
nodes = (
(262,0,l),
(264,44,l),
(240,43,o),
(216,41,o),
(192,40,c),
(195,57,o),
(197,83,o),
(199,119,cs),
(211,340,l),
(229,340,o),
(246,341,o),
(264,341,c),
(287,326,o),
(313,293,o),
(335,260,cs),
(446,98,l),
(483,47,o),
(522,0,o),
(542,0,cs),
(660,0,l),
(662,33,l),
(619,33,o),
(591,41,o),
(521,142,c),
(416,291,ls),
(394,322,o),
(375,353,o),
(338,376,c),
(444,532,ls),
(518,641,o),
(569,660,o),
(653,667,c),
(655,700,l),
(440,700,l),
(438,659,l),
(459,660,o),
(480,660,o),
(501,661,c),
(469,638,o),
(442,604,o),
(424,577,cs),
(291,380,l),
(213,380,l),
(222,554,ls),
(226,625,o),
(232,664,o),
(297,667,c),
(299,700,l),
(78,700,l),
(76,656,l),
(100,657,o),
(124,659,o),
(148,660,c),
(145,640,o),
(143,615,o),
(141,588,cs),
(118,156,l),
(115,85,o),
(118,36,o),
(43,33,c),
(41,0,l)
);
},
{
closed = 1;
nodes = (
(565,921,l),
(550,947,l),
(373,850,l),
(206,945,l),
(187,916,l),
(370,773,l),
(372,773,l)
);
}
);
};
layerId = UUID0;
shapes = (
{
ref = K;
},
{
pos = (127,2);
ref = caroncomb.case;
}
);
width = 667;
}
);
unicode = 488;
},
{
glyphname = Kcommaaccent;
kernLeft = I;
kernRight = K;
layers = (
{
background = {
anchors = (
{
name = bottom;
pos = (320,0);
},
{
name = top;
pos = (368,702);
}
);
shapes = (
{
closed = 1;
nodes = (
(262,0,l),
(264,44,l),
(240,43,o),
(216,41,o),
(192,40,c),
(195,57,o),
(197,83,o),
(199,119,cs),
(211,340,l),
(229,340,o),
(246,341,o),
(264,341,c),
(287,326,o),
(313,293,o),
(335,260,cs),
(446,98,l),
(483,47,o),
(522,0,o),
(542,0,cs),
(660,0,l),
(662,33,l),
(619,33,o),
(591,41,o),
(521,142,c),
(416,291,ls),
(394,322,o),
(375,353,o),
(338,376,c),
(444,532,ls),
(518,641,o),
(569,660,o),
(653,667,c),
(655,700,l),
(440,700,l),
(438,659,l),
(459,660,o),
(480,660,o),
(501,661,c),
(469,638,o),
(442,604,o),
(424,577,cs),
(291,380,l),
(213,380,l),
(222,554,ls),
(226,625,o),
(232,664,o),
(297,667,c),
(299,700,l),
(78,700,l),
(76,656,l),
(100,657,o),
(124,659,o),
(148,660,c),
(145,640,o),
(143,615,o),
(141,588,cs),
(118,156,l),
(115,85,o),
(118,36,o),
(43,33,c),
(41,0,l)
);
},
{
closed = 1;
nodes = (
(289,-212,o),
(325,-159,o),
(329,-108,cs),
(331,-90,o),
(328,-73,o),
(322,-56,c),
(251,-72,l),
(258,-128,o),
(263,-160,o),
(212,-240,c),
(237,-259,l)
);
}
);
};
layerId = UUID0;
shapes = (
{
ref = K;
},
{
pos = (165,0);
ref = commaaccentcomb;
}
);
width = 667;
},
{
background = {
anchors = (
{
name = bottom;
pos = (355,0);
},
{
name = top;
pos = (393,700);
}
);
shapes = (
{
closed = 1;
nodes = (
(320,0,l),
(324,77,l),
(310,77,o),
(270,76,o),
(249,74,c),
(252,91,o),
(255,128,o),
(257,164,cs),
(265,315,l),
(277,315,o),
(299,315,o),
(301,315,c),
(318,302,o),
(339,271,o),
(356,246,c),
(447,102,ls),
(472,63,o),
(523,1,o),
(540,0,c),
(692,0,l),
(696,66,l),
(651,68,o),
(608,117,o),
(570,174,cs),
(476,319,ls),
(462,341,o),
(442,361,o),
(417,378,c),
(521,532,ls),
(581,621,o),
(636,632,o),
(681,634,c),
(684,700,l),
(439,700,l),
(436,623,l),
(450,624,o),
(478,625,o),
(499,627,c),
(481,612,o),
(451,566,o),
(425,526,cs),
(342,395,l),
(269,395,l),
(277,547,ls),
(281,628,o),
(308,632,o),
(353,634,c),
(356,700,l),
(72,700,l),
(68,623,l),
(82,624,o),
(122,625,o),
(143,626,c),
(140,609,o),
(136,572,o),
(134,536,cs),
(114,153,ls),
(110,72,o),
(83,68,o),
(39,66,c),
(35,0,l)
);
},
{
closed = 1;
nodes = (
(337,-240,o),
(394,-167,o),
(397,-108,c),
(399,-84,o),
(394,-59,o),
(382,-36,c),
(274,-60,l),
(282,-129,o),
(281,-165,o),
(223,-253,c),
(275,-294,l)
);
}
);
};
layerId = "6B2A2AD0-3CEC-4B3D-96BE-6A11A3496094";
shapes = (
{
ref = K;
},
{
pos = (188,0);
ref = commaaccentcomb;
}
);
width = 711;
}
);
unicode = 310;
},
{
glyphname = L;
kernLeft = I;
kernRight = L;
layers = (
{
anchors = (
{
name = bottom;
pos = (275,0);
},
{
name = center;
pos = (294,350);
},
{
name = top;
pos = (192,702);
},
{
name = topright;
pos = (318,450);
}
);
background = {
anchors = (
{
name = bottom;
pos = (275,0);
},
{
name = top;
pos = (192,702);
}
);
shapes = (
{
closed = 1;
nodes = (
(77,700,l),
(77,656,l),
(101,657,o),
(124,659,o),
(148,660,c),
(144,640,o),
(143,615,o),
(141,588,cs),
(117,156,ls),
(113,85,o),
(117,36,o),
(42,33,c),
(40,0,l),
(532,0,l),
(549,207,l),
(515,207,l),
(509,88,o),
(462,42,o),
(378,40,cs),
(191,37,l),
(194,54,o),
(196,79,o),
(198,115,cs),
(221,544,l),
(224,615,o),
(226,664,o),
(296,667,c),
(298,700,l)
);
}
);
};
layerId = UUID0;
shapes = (
{
closed = 1;
nodes = (
(77,700,l),
(77,656,l),
(101,657,o),
(124,659,o),
(148,660,c),
(144,640,o),
(143,615,o),
(141,588,cs),
(117,156,ls),
(113,85,o),
(117,36,o),
(42,33,c),
(40,0,l),
(532,0,l),
(549,207,l),
(515,207,l),
(509,88,o),
(462,41,o),
(378,40,cs),
(191,37,l),
(194,54,o),
(196,79,o),
(198,115,cs),
(221,544,l),
(224,615,o),
(226,664,o),
(296,667,c),
(298,700,l)
);
}
);
width = 577;
},
{
anchors = (
{
name = bottom;
pos = (303,0);
},
{
name = center;
pos = (308,350);
},
{
name = top;
pos = (211,700);
},
{
name = topright;
pos = (353,432);
}
);
background = {
anchors = (
{
name = bottom;
pos = (303,0);
},
{
name = top;
pos = (211,700);
}
);
shapes = (
{
closed = 1;
nodes = (
(72,700,l),
(68,623,l),
(82,624,o),
(122,625,o),
(143,626,c),
(140,609,o),
(136,572,o),
(134,536,cs),
(114,153,ls),
(110,72,o),
(83,68,o),
(39,66,c),
(35,0,l),
(566,0,l),
(584,240,l),
(518,240,l),
(512,131,o),
(461,77,o),
(383,76,cs),
(249,76,l),
(252,93,o),
(255,128,o),
(257,164,cs),
(277,547,ls),
(281,628,o),
(308,632,o),
(353,634,c),
(356,700,l)
);
}
);
};
layerId = "6B2A2AD0-3CEC-4B3D-96BE-6A11A3496094";
shapes = (
{
closed = 1;
nodes = (
(72,700,l),
(68,623,l),
(82,624,o),
(122,625,o),
(143,626,c),
(140,609,o),
(136,572,o),
(134,536,cs),
(114,153,ls),
(110,72,o),
(83,68,o),
(39,66,c),
(35,0,l),
(566,0,l),
(584,240,l),
(518,240,l),
(512,131,o),
(461,76,o),
(383,76,cs),
(249,76,l),
(252,93,o),
(255,128,o),
(257,164,cs),
(277,547,ls),
(281,628,o),
(308,632,o),
(353,634,c),
(356,700,l)
);
}
);
width = 606;
}
);
unicode = 76;
},
{
glyphname = Lacute;
kernLeft = I;
kernRight = L;
layers = (
{
background = {
anchors = (
{
name = bottom;
pos = (275,0);
},
{
name = top;
pos = (192,702);
}
);
shapes = (
{
closed = 1;
nodes = (
(77,700,l),
(77,656,l),
(101,657,o),
(124,659,o),
(148,660,c),
(144,640,o),
(143,615,o),
(141,588,cs),
(117,156,ls),
(113,85,o),
(117,36,o),
(42,33,c),
(40,0,l),
(532,0,l),
(549,207,l),
(515,207,l),
(509,88,o),
(462,42,o),
(378,40,cs),
(191,37,l),
(194,54,o),
(196,79,o),
(198,115,cs),
(221,544,l),
(224,615,o),
(226,664,o),
(296,667,c),
(298,700,l)
);
},
{
closed = 1;
nodes = (
(321,855,ls),
(365,883,o),
(353,909,o),
(346,917,cs),
(341,923,o),
(319,943,o),
(281,908,cs),
(154,790,l),
(175,762,l)
);
}
);
};
layerId = UUID0;
shapes = (
{
ref = L;
},
{
pos = (109,2);
ref = acutecomb.case;
}
);
width = 577;
},
{
background = {
anchors = (
{
name = bottom;
pos = (303,0);
},
{
name = top;
pos = (211,700);
}
);
shapes = (
{
closed = 1;
nodes = (
(72,700,l),
(68,623,l),
(82,624,o),
(122,625,o),
(143,626,c),
(140,609,o),
(136,572,o),
(134,536,cs),
(114,153,ls),
(110,72,o),
(83,68,o),
(39,66,c),
(35,0,l),
(566,0,l),
(584,240,l),
(518,240,l),
(512,131,o),
(461,77,o),
(383,76,cs),
(249,76,l),
(252,93,o),
(255,128,o),
(257,164,cs),
(277,547,ls),
(281,628,o),
(308,632,o),
(353,634,c),
(356,700,l)
);
},
{
closed = 1;
nodes = (
(330,854,l),
(363,873,o),
(388,909,o),
(365,943,cs),
(343,976,o),
(297,964,o),
(268,936,cs),
(146,818,l),
(180,770,l)
);
}
);
};
layerId = "6B2A2AD0-3CEC-4B3D-96BE-6A11A3496094";
shapes = (
{
ref = L;
},
{
pos = (101,0);
ref = acutecomb.case;
}
);
width = 606;
}
);
unicode = 313;
},
{
glyphname = Lcaron;
kernLeft = I;
kernRight = L;
layers = (
{
background = {
anchors = (
{
name = bottom;
pos = (275,0);
},
{
name = top;
pos = (192,702);
}
);
shapes = (
{
closed = 1;
nodes = (
(77,700,l),
(77,656,l),
(101,657,o),
(124,659,o),
(148,660,c),
(144,640,o),
(143,615,o),
(141,588,cs),
(117,156,ls),
(113,85,o),
(117,36,o),
(42,33,c),
(40,0,l),
(532,0,l),
(549,207,l),
(515,207,l),
(509,88,o),
(462,42,o),
(378,40,cs),
(191,37,l),
(194,54,o),
(196,79,o),
(198,115,cs),
(221,544,l),
(224,615,o),
(226,664,o),
(296,667,c),
(298,700,l)
);
},
{
closed = 1;
nodes = (
(450,534,o),
(485,587,o),
(490,640,cs),
(493,664,o),
(490,677,o),
(479,700,c),
(410,713,l),
(425,654,o),
(426,596,o),
(382,512,c),
(408,492,l)
);
}
);
};
layerId = UUID0;
shapes = (
{
ref = L;
},
{
pos = (267,-62);
ref = caroncomb.alt;
}
);
width = 577;
},
{
background = {
anchors = (
{
name = bottom;
pos = (303,0);
},
{
name = top;
pos = (211,700);
}
);
shapes = (
{
closed = 1;
nodes = (
(72,700,l),
(68,623,l),
(82,624,o),
(122,625,o),
(143,626,c),
(140,609,o),
(136,572,o),
(134,536,cs),
(114,153,ls),
(110,72,o),
(83,68,o),
(39,66,c),
(35,0,l),
(566,0,l),
(584,240,l),
(518,240,l),
(512,131,o),
(461,77,o),
(383,76,cs),
(249,76,l),
(252,93,o),
(255,128,o),
(257,164,cs),
(277,547,ls),
(281,628,o),
(308,632,o),
(353,634,c),
(356,700,l)
);
},
{
closed = 1;
nodes = (
(510,519,o),
(550,577,o),
(555,633,cs),
(558,659,o),
(555,674,o),
(542,700,c),
(453,717,l),
(470,653,o),
(475,594,o),
(426,504,c),
(465,475,l)
);
}
);
};
layerId = "6B2A2AD0-3CEC-4B3D-96BE-6A11A3496094";
shapes = (
{
ref = L;
},
{
pos = (303,-68);
ref = caroncomb.alt;
}
);
width = 606;
}
);
unicode = 317;
},
{
glyphname = Lcommaaccent;
kernLeft = I;
kernRight = L;
layers = (
{
background = {
anchors = (
{
name = bottom;
pos = (275,0);
},
{
name = top;
pos = (192,702);
}
);
shapes = (
{
closed = 1;
nodes = (
(77,700,l),
(77,656,l),
(101,657,o),
(124,659,o),
(148,660,c),
(144,640,o),
(143,615,o),
(141,588,cs),
(117,156,ls),
(113,85,o),
(117,36,o),
(42,33,c),
(40,0,l),
(532,0,l),
(549,207,l),
(515,207,l),
(509,88,o),
(462,42,o),
(378,40,cs),
(191,37,l),
(194,54,o),
(196,79,o),
(198,115,cs),
(221,544,l),
(224,615,o),
(226,664,o),
(296,667,c),
(298,700,l)
);
},
{
closed = 1;
nodes = (
(244,-212,o),
(280,-159,o),
(284,-108,cs),
(286,-90,o),
(283,-73,o),
(277,-56,c),
(206,-72,l),
(213,-128,o),
(218,-160,o),
(167,-240,c),
(192,-259,l)
);
}
);
};
layerId = UUID0;
shapes = (
{
ref = L;
},
{
pos = (120,0);
ref = commaaccentcomb;
}
);
width = 577;
},
{
background = {
anchors = (
{
name = bottom;
pos = (303,0);
},
{
name = top;
pos = (211,700);
}
);
shapes = (
{
closed = 1;
nodes = (
(72,700,l),
(68,623,l),
(82,624,o),
(122,625,o),
(143,626,c),
(140,609,o),
(136,572,o),
(134,536,cs),
(114,153,ls),
(110,72,o),
(83,68,o),
(39,66,c),
(35,0,l),
(566,0,l),
(584,240,l),
(518,240,l),
(512,131,o),
(461,77,o),
(383,76,cs),
(249,76,l),
(252,93,o),
(255,128,o),
(257,164,cs),
(277,547,ls),
(281,628,o),
(308,632,o),
(353,634,c),
(356,700,l)
);
},
{
closed = 1;
nodes = (
(285,-240,o),
(342,-167,o),
(345,-108,c),
(347,-84,o),
(342,-59,o),
(330,-36,c),
(222,-60,l),
(230,-129,o),
(229,-165,o),
(171,-253,c),
(223,-294,l)
);
}
);
};
layerId = "6B2A2AD0-3CEC-4B3D-96BE-6A11A3496094";
shapes = (
{
ref = L;
},
{
pos = (136,0);
ref = commaaccentcomb;
}
);
width = 606;
}
);
unicode = 315;
},
{
glyphname = Ldot;
layers = (
{
background = {
anchors = (
{
name = bottom;
pos = (303,0);
},
{
name = top;
pos = (211,700);
}
);
shapes = (
{
closed = 1;
nodes = (
(72,700,l),
(68,623,l),
(82,624,o),
(122,625,o),
(143,626,c),
(140,609,o),
(136,572,o),
(134,536,cs),
(114,153,ls),
(110,72,o),
(83,68,o),
(39,66,c),
(35,0,l),
(566,0,l),
(584,240,l),
(518,240,l),
(512,131,o),
(461,77,o),
(383,76,cs),
(249,76,l),
(252,93,o),
(255,128,o),
(257,164,cs),
(277,547,ls),
(281,628,o),
(308,632,o),
(353,634,c),
(356,700,l)
);
},
{
closed = 1;
nodes = (
(368,419,o),
(332,384,o),
(330,341,cs),
(328,298,o),
(356,263,o),
(400,263,cs),
(443,263,o),
(473,298,o),
(475,341,cs),
(477,384,o),
(448,419,o),
(407,419,cs)
);
}
);
};
layerId = "6B2A2AD0-3CEC-4B3D-96BE-6A11A3496094";
shapes = (
{
ref = L;
},
{
pos = (287,0);
ref = periodcentered.loclCAT;
}
);
width = 606;
},
{
background = {
anchors = (
{
name = bottom;
pos = (275,0);
},
{
name = top;
pos = (192,702);
}
);
shapes = (
{
closed = 1;
nodes = (
(77,700,l),
(77,656,l),
(101,657,o),
(124,659,o),
(148,660,c),
(144,640,o),
(143,615,o),
(141,588,cs),
(117,156,ls),
(113,85,o),
(117,36,o),
(42,33,c),
(40,0,l),
(532,0,l),
(549,207,l),
(515,207,l),
(509,88,o),
(462,42,o),
(378,40,cs),
(191,37,l),
(194,54,o),
(196,79,o),
(198,115,cs),
(221,544,l),
(224,615,o),
(226,664,o),
(296,667,c),
(298,700,l)
);
},
{
closed = 1;
nodes = (
(322,389,o),
(293,361,o),
(291,326,cs),
(290,290,o),
(314,263,o),
(345,263,cs),
(375,263,o),
(404,290,o),
(405,326,cs),
(407,361,o),
(385,389,o),
(353,389,cs)
);
}
);
};
layerId = UUID0;
shapes = (
{
ref = L;
},
{
pos = (228,0);
ref = periodcentered.loclCAT;
}
);
width = 577;
}
);
unicode = 319;
},
{
glyphname = Lslash;
kernLeft = I;
kernRight = L;
layers = (
{
background = {
shapes = (
{
closed = 1;
nodes = (
(78,700,l),
(78,656,l),
(102,657,o),
(125,659,o),
(149,660,c),
(145,640,o),
(144,615,o),
(142,588,cs),
(128,343,l),
(47,284,l),
(44,228,l),
(125,288,l),
(118,156,ls),
(114,85,o),
(118,36,o),
(43,33,c),
(41,0,l),
(533,0,l),
(550,207,l),
(516,207,l),
(510,88,o),
(463,42,o),
(379,40,cs),
(192,37,l),
(195,54,o),
(197,79,o),
(199,115,cs),
(212,352,l),
(388,482,l),
(391,536,l),
(215,406,l),
(222,544,l),
(225,615,o),
(227,664,o),
(297,667,c),
(299,700,l)
);
}
);
};
layerId = UUID0;
shapes = (
{
closed = 1;
nodes = (
(78,700,l),
(78,656,l),
(102,657,o),
(125,659,o),
(149,660,c),
(145,640,o),
(144,615,o),
(142,588,cs),
(128,343,l),
(47,284,l),
(44,228,l),
(125,288,l),
(118,156,ls),
(114,85,o),
(118,36,o),
(43,33,c),
(41,0,l),
(533,0,l),
(550,207,l),
(516,207,l),
(510,88,o),
(463,42,o),
(379,40,cs),
(192,37,l),
(195,54,o),
(197,79,o),
(199,115,cs),
(212,352,l),
(388,482,l),
(391,536,l),
(215,406,l),
(222,544,l),
(225,615,o),
(227,664,o),
(297,667,c),
(299,700,l)
);
}
);
width = 577;
},
{
background = {
shapes = (
{
closed = 1;
nodes = (
(73,700,l),
(69,623,l),
(83,624,o),
(123,625,o),
(144,626,c),
(141,609,o),
(137,572,o),
(135,536,cs),
(125,349,l),
(46,292,l),
(41,180,l),
(120,237,l),
(115,153,ls),
(111,72,o),
(84,68,o),
(40,66,c),
(36,0,l),
(567,0,l),
(585,240,l),
(519,240,l),
(513,131,o),
(462,77,o),
(384,76,cs),
(250,76,l),
(253,93,o),
(256,128,o),
(258,164,cs),
(268,344,l),
(442,471,l),
(448,582,l),
(273,454,l),
(278,547,ls),
(282,628,o),
(309,632,o),
(354,634,c),
(357,700,l)
);
}
);
};
layerId = "6B2A2AD0-3CEC-4B3D-96BE-6A11A3496094";
shapes = (
{
closed = 1;
nodes = (
(73,700,l),
(69,623,l),
(83,624,o),
(123,625,o),
(144,626,c),
(141,609,o),
(137,572,o),
(135,536,cs),
(125,349,l),
(46,292,l),
(41,180,l),
(120,237,l),
(115,153,ls),
(111,72,o),
(84,68,o),
(40,66,c),
(36,0,l),
(567,0,l),
(585,240,l),
(519,240,l),
(513,131,o),
(462,77,o),
(384,76,cs),
(250,76,l),
(253,93,o),
(256,128,o),
(258,164,cs),
(268,344,l),
(442,471,l),
(448,582,l),
(273,454,l),
(278,547,ls),
(282,628,o),
(309,632,o),
(354,634,c),
(357,700,l)
);
}
);
width = 606;
}
);
unicode = 321;
},
